<svg id="svg" version="1.1" xmlns="http://www.w3.org/2000/svg" xmlns:xlink="http://www.w3.org/1999/xlink" width="400" height="475.527950310559" viewBox="0, 0, 400,475.527950310559"><g id="svgg"><path id="path0" d="M182.695 5.438 C 182.557 5.576,181.632 5.700,180.639 5.713 C 179.458 5.729,178.757 5.936,178.613 6.310 C 178.492 6.625,178.137 6.785,177.824 6.665 C 177.511 6.544,175.758 6.814,173.927 7.263 C 172.097 7.712,170.330 8.107,170.000 8.140 C 169.670 8.173,169.310 8.293,169.200 8.407 C 168.992 8.622,165.735 9.531,164.000 9.859 C 163.450 9.963,162.829 10.217,162.620 10.424 C 162.411 10.631,161.930 10.800,161.552 10.800 C 160.859 10.800,152.088 13.664,150.600 14.377 C 150.160 14.587,148.904 15.050,147.810 15.406 C 146.715 15.761,145.635 16.197,145.410 16.374 C 144.982 16.710,142.493 17.574,141.800 17.627 C 141.580 17.643,141.130 17.888,140.800 18.171 C 140.470 18.453,139.210 19.025,138.000 19.441 C 136.790 19.858,135.562 20.424,135.271 20.699 C 134.981 20.975,134.520 21.200,134.248 21.200 C 133.977 21.200,132.504 21.829,130.977 22.599 C 129.450 23.368,127.975 23.998,127.700 23.999 C 127.425 23.999,127.200 24.210,127.200 24.467 C 127.200 24.723,127.093 24.826,126.962 24.695 C 126.831 24.564,126.066 24.833,125.262 25.293 C 122.455 26.899,119.396 28.390,118.900 28.395 C 118.625 28.398,118.400 28.567,118.400 28.771 C 118.400 28.975,117.680 29.460,116.800 29.848 C 115.920 30.236,115.200 30.662,115.200 30.795 C 115.200 30.928,114.390 31.370,113.400 31.778 C 112.410 32.187,111.600 32.646,111.600 32.800 C 111.600 32.953,110.835 33.416,109.900 33.828 C 108.965 34.240,108.056 34.807,107.880 35.089 C 107.704 35.370,107.344 35.602,107.080 35.605 C 106.816 35.608,106.150 35.967,105.600 36.402 C 105.050 36.837,102.620 38.490,100.200 40.076 C 97.780 41.662,95.710 43.077,95.600 43.220 C 95.490 43.363,94.950 43.712,94.400 43.995 C 93.850 44.279,93.130 44.762,92.800 45.068 C 92.470 45.375,90.670 46.782,88.800 48.196 C 86.930 49.609,84.860 51.210,84.200 51.753 C 83.540 52.296,81.830 53.700,80.400 54.874 C 78.970 56.048,77.368 57.367,76.839 57.804 C 76.311 58.242,75.024 59.455,73.979 60.500 C 72.934 61.545,71.951 62.400,71.794 62.400 C 71.137 62.400,56.281 77.788,51.600 83.318 C 51.050 83.968,50.191 84.939,49.692 85.476 C 49.193 86.013,48.476 86.935,48.099 87.526 C 47.722 88.117,47.096 88.835,46.707 89.123 C 46.318 89.410,46.000 89.840,46.000 90.077 C 46.000 90.314,45.548 90.979,44.996 91.554 C 42.723 93.920,42.400 94.298,42.400 94.585 C 42.400 94.750,41.815 95.622,41.100 96.523 C 40.385 97.424,39.620 98.451,39.400 98.805 C 37.751 101.460,37.085 102.400,36.851 102.400 C 36.703 102.400,36.228 103.075,35.795 103.900 C 35.362 104.725,34.781 105.544,34.504 105.720 C 34.227 105.896,34.000 106.214,34.000 106.426 C 34.000 106.822,31.215 111.238,30.737 111.601 C 30.387 111.867,28.637 114.964,27.630 117.100 C 27.189 118.035,26.671 118.800,26.478 118.800 C 26.286 118.800,25.894 119.511,25.607 120.379 C 25.320 121.248,24.886 122.036,24.643 122.131 C 24.399 122.226,23.845 123.225,23.412 124.352 C 22.979 125.478,22.508 126.400,22.366 126.400 C 22.225 126.400,21.799 127.210,21.421 128.200 C 21.043 129.190,20.578 130.000,20.387 130.000 C 20.197 130.000,19.729 130.990,19.347 132.200 C 18.966 133.410,18.525 134.400,18.367 134.400 C 18.209 134.400,17.757 135.300,17.361 136.400 C 16.966 137.500,16.517 138.400,16.364 138.400 C 16.212 138.400,15.970 138.864,15.828 139.432 C 15.685 140.000,15.047 141.575,14.410 142.932 C 13.773 144.289,13.131 145.895,12.983 146.500 C 12.834 147.105,12.587 147.600,12.432 147.600 C 12.278 147.600,11.822 148.725,11.419 150.100 C 11.017 151.475,10.468 152.870,10.200 153.200 C 9.932 153.530,9.496 154.700,9.230 155.800 C 8.965 156.900,8.519 158.160,8.239 158.600 C 7.959 159.040,7.397 160.660,6.990 162.200 C 6.582 163.740,6.139 165.090,6.005 165.200 C 5.871 165.310,5.412 166.885,4.987 168.700 C 4.561 170.515,4.097 172.000,3.956 172.000 C 3.815 172.000,3.379 173.665,2.987 175.700 C 2.596 177.735,2.149 179.490,1.995 179.600 C 1.627 179.862,-0.008 188.619,-0.004 190.300 C 0.001 191.999,0.511 191.955,1.146 190.200 C 1.424 189.430,1.796 188.800,1.972 188.800 C 2.147 188.800,2.616 187.950,3.013 186.911 C 3.409 185.873,4.064 184.669,4.467 184.236 C 4.870 183.803,5.200 183.241,5.200 182.986 C 5.200 182.731,5.558 182.109,5.996 181.605 C 6.434 181.100,7.099 179.992,7.473 179.143 C 7.848 178.295,8.291 177.600,8.458 177.600 C 8.626 177.600,9.080 176.931,9.468 176.113 C 9.856 175.296,10.409 174.351,10.697 174.013 C 10.985 173.676,11.666 172.879,12.210 172.242 C 12.755 171.604,13.200 170.974,13.201 170.842 C 13.201 170.709,13.741 169.970,14.400 169.200 C 15.059 168.430,15.599 167.692,15.599 167.559 C 15.600 167.427,16.095 166.772,16.700 166.103 C 17.305 165.435,18.250 164.336,18.800 163.662 C 19.350 162.987,20.700 161.453,21.800 160.253 C 22.900 159.053,24.779 156.975,25.974 155.635 C 27.170 154.296,28.303 153.200,28.492 153.200 C 28.680 153.200,29.804 152.255,30.989 151.100 C 33.709 148.448,34.351 147.916,39.925 143.700 C 40.434 143.315,41.190 142.695,41.604 142.321 C 42.018 141.948,42.902 141.361,43.568 141.017 C 44.692 140.435,47.278 138.810,48.200 138.106 C 48.420 137.938,49.500 137.364,50.600 136.832 C 51.700 136.300,52.690 135.743,52.800 135.596 C 52.910 135.448,53.900 134.992,55.000 134.584 C 56.100 134.175,57.090 133.718,57.200 133.568 C 57.310 133.417,58.296 132.991,59.390 132.621 C 60.485 132.251,61.565 131.796,61.790 131.610 C 62.016 131.424,63.343 130.976,64.739 130.615 C 66.136 130.253,67.576 129.795,67.939 129.596 C 68.781 129.134,74.045 128.000,75.346 128.000 C 75.889 128.000,76.393 127.840,76.467 127.643 C 77.048 126.088,103.949 126.050,107.400 127.600 C 107.840 127.798,110.000 128.320,112.200 128.760 C 117.348 129.789,122.944 131.246,123.200 131.623 C 123.310 131.785,124.210 132.133,125.200 132.397 C 126.190 132.661,127.950 133.310,129.112 133.838 C 130.273 134.367,131.410 134.800,131.637 134.800 C 132.041 134.800,133.702 135.531,139.469 138.248 C 141.047 138.992,142.542 139.600,142.792 139.600 C 143.043 139.600,143.159 139.742,143.052 139.916 C 142.944 140.090,143.744 140.547,144.828 140.933 C 145.913 141.318,146.800 141.805,146.800 142.016 C 146.800 142.227,147.042 142.400,147.339 142.400 C 148.016 142.400,150.518 143.615,150.845 144.103 C 150.979 144.304,151.159 144.443,151.245 144.413 C 151.616 144.280,158.814 147.533,159.200 148.009 C 159.310 148.144,160.210 148.571,161.200 148.956 C 162.190 149.342,163.555 149.981,164.233 150.376 C 164.910 150.770,166.125 151.311,166.933 151.578 C 167.740 151.844,168.400 152.198,168.400 152.364 C 168.400 152.531,168.626 152.667,168.902 152.667 C 169.179 152.667,170.169 153.149,171.102 153.738 C 172.036 154.328,172.800 154.721,172.800 154.612 C 172.800 154.502,174.500 155.284,176.578 156.348 C 178.682 157.426,180.508 158.132,180.700 157.940 C 180.891 157.749,181.388 157.864,181.821 158.199 C 182.574 158.782,182.574 158.793,181.834 158.533 C 181.347 158.362,181.163 158.416,181.328 158.684 C 181.471 158.915,181.949 159.198,182.392 159.314 C 183.195 159.524,183.196 159.436,183.298 82.724 C 183.394 10.736,183.347 4.786,182.695 5.438 " stroke="none" fill="#e02692" fill-rule="evenodd"></path><path id="path1" d="M0.000 284.980 C 0.000 286.669,1.549 294.845,1.975 295.400 C 2.143 295.620,2.596 297.420,2.981 299.400 C 3.365 301.380,3.811 303.090,3.971 303.200 C 4.131 303.310,4.583 304.740,4.976 306.378 C 5.369 308.016,5.840 309.636,6.022 309.978 C 6.204 310.320,6.663 311.680,7.042 313.000 C 7.421 314.320,7.870 315.584,8.039 315.809 C 8.208 316.034,8.716 317.552,9.168 319.182 C 9.620 320.812,10.134 322.248,10.312 322.373 C 10.489 322.498,10.883 323.410,11.189 324.400 C 11.494 325.390,11.890 326.397,12.069 326.637 C 12.247 326.877,12.275 327.192,12.130 327.337 C 11.985 327.482,12.057 327.600,12.290 327.600 C 12.523 327.600,12.833 328.095,12.980 328.700 C 13.127 329.305,13.581 330.520,13.989 331.400 C 16.558 336.936,17.523 339.105,17.772 339.900 C 17.927 340.395,18.222 340.800,18.427 340.800 C 18.632 340.800,18.797 341.025,18.793 341.300 C 18.787 341.765,21.957 348.357,22.400 348.800 C 22.510 348.910,23.050 349.885,23.600 350.967 C 26.001 355.691,26.501 356.611,26.766 356.800 C 27.030 356.988,30.014 362.134,30.360 363.000 C 30.448 363.220,30.632 363.490,30.769 363.600 C 30.906 363.710,31.820 365.060,32.800 366.600 C 33.780 368.140,34.694 369.490,34.831 369.600 C 34.968 369.710,35.305 370.226,35.580 370.747 C 35.854 371.268,36.871 372.737,37.839 374.010 C 38.808 375.283,39.600 376.511,39.600 376.740 C 39.600 376.968,39.936 377.390,40.346 377.677 C 40.756 377.965,41.435 378.830,41.855 379.600 C 42.275 380.370,43.300 381.720,44.132 382.600 C 44.964 383.480,45.909 384.695,46.233 385.300 C 46.556 385.905,46.955 386.400,47.119 386.400 C 47.284 386.400,47.757 387.030,48.172 387.800 C 48.587 388.570,49.062 389.200,49.229 389.200 C 49.396 389.200,50.264 390.145,51.158 391.300 C 54.322 395.387,67.806 409.248,74.018 414.800 C 75.372 416.010,76.802 417.295,77.196 417.656 C 77.589 418.016,78.786 419.008,79.856 419.861 C 80.925 420.713,82.160 421.717,82.600 422.093 C 83.040 422.469,85.380 424.307,87.800 426.179 C 90.220 428.050,92.470 429.832,92.800 430.139 C 93.130 430.445,93.985 430.994,94.700 431.358 C 95.415 431.723,96.000 432.196,96.000 432.410 C 96.000 432.625,96.236 432.800,96.525 432.800 C 96.813 432.800,97.409 433.136,97.850 433.546 C 98.290 433.956,99.089 434.526,99.625 434.812 C 100.735 435.403,106.569 439.138,109.065 440.855 C 109.981 441.485,110.926 442.000,111.165 442.000 C 111.404 442.000,111.600 442.166,111.600 442.369 C 111.600 442.572,112.232 442.946,113.004 443.201 C 113.776 443.456,114.631 443.881,114.904 444.146 C 115.451 444.678,117.474 445.783,123.200 448.679 C 125.290 449.735,127.090 450.709,127.200 450.842 C 127.310 450.975,128.075 451.304,128.900 451.573 C 129.725 451.842,130.400 452.258,130.400 452.498 C 130.400 452.737,130.515 452.818,130.656 452.677 C 130.797 452.536,131.382 452.670,131.956 452.975 C 132.530 453.280,133.630 453.755,134.400 454.030 C 135.170 454.306,136.070 454.755,136.400 455.029 C 136.730 455.302,137.757 455.727,138.683 455.974 C 139.609 456.220,140.466 456.583,140.588 456.780 C 140.710 456.977,141.752 457.449,142.905 457.828 C 144.057 458.208,145.090 458.640,145.200 458.789 C 145.310 458.937,146.300 459.304,147.400 459.603 C 148.500 459.902,150.350 460.564,151.511 461.073 C 152.673 461.583,153.876 462.000,154.185 462.000 C 154.495 462.000,155.255 462.210,155.874 462.466 C 156.493 462.723,157.090 462.963,157.200 463.000 C 157.310 463.037,157.850 463.254,158.400 463.483 C 158.950 463.711,160.030 464.026,160.800 464.182 C 162.111 464.448,164.226 465.040,165.600 465.525 C 165.930 465.642,166.593 465.757,167.073 465.782 C 167.553 465.806,168.314 466.160,168.764 466.568 C 169.514 467.246,169.605 467.252,169.838 466.644 C 170.000 466.224,170.260 466.107,170.547 466.328 C 172.533 467.853,172.391 473.411,172.398 393.894 C 172.404 328.298,172.341 320.707,171.798 321.482 C 171.464 321.958,170.698 322.404,170.096 322.474 C 169.442 322.549,169.044 322.814,169.110 323.130 C 169.170 323.421,169.043 323.550,168.828 323.417 C 168.612 323.284,167.797 323.441,167.018 323.767 C 166.238 324.093,165.600 324.244,165.600 324.103 C 165.600 323.962,165.336 324.196,165.013 324.624 C 164.690 325.051,164.420 325.248,164.413 325.062 C 164.406 324.876,163.402 325.287,162.183 325.975 C 160.964 326.663,159.749 327.101,159.483 326.949 C 159.217 326.796,159.127 326.812,159.282 326.984 C 159.437 327.156,158.627 327.746,157.482 328.296 C 156.337 328.846,153.087 330.444,150.260 331.848 C 147.433 333.252,144.890 334.400,144.609 334.400 C 144.328 334.400,143.882 334.661,143.617 334.980 C 143.352 335.298,142.475 335.771,141.668 336.030 C 140.861 336.289,139.930 336.713,139.600 336.972 C 138.980 337.460,132.260 340.400,131.766 340.400 C 131.613 340.400,130.748 340.737,129.844 341.150 C 128.940 341.562,127.210 342.218,126.000 342.609 C 124.790 342.999,123.620 343.452,123.400 343.616 C 123.180 343.779,121.560 344.226,119.800 344.608 C 118.040 344.990,116.409 345.454,116.174 345.639 C 115.940 345.823,114.050 346.257,111.974 346.602 C 109.899 346.948,107.840 347.398,107.400 347.603 C 104.170 349.107,77.115 349.124,76.000 347.623 C 75.890 347.474,74.540 347.133,73.000 346.864 C 69.992 346.339,62.332 344.035,61.996 343.555 C 61.884 343.395,61.254 343.133,60.596 342.973 C 59.394 342.682,53.921 340.326,52.800 339.618 C 52.470 339.410,51.390 338.843,50.400 338.358 C 49.410 337.873,47.766 336.890,46.748 336.173 C 45.729 335.456,44.324 334.575,43.626 334.214 C 42.929 333.853,42.052 333.293,41.679 332.969 C 39.346 330.945,38.654 330.400,38.417 330.400 C 38.271 330.400,37.802 330.085,37.375 329.700 C 36.948 329.315,35.918 328.491,35.086 327.869 C 34.254 327.247,32.573 325.762,31.351 324.569 C 30.129 323.376,28.998 322.400,28.837 322.400 C 28.419 322.400,20.931 314.359,18.600 311.407 C 17.940 310.572,17.130 309.592,16.800 309.231 C 15.863 308.205,12.800 304.059,12.800 303.817 C 12.800 303.698,12.485 303.240,12.100 302.800 C 10.629 301.119,10.176 300.505,9.422 299.174 C 8.995 298.418,8.410 297.562,8.122 297.271 C 7.835 296.981,7.600 296.514,7.600 296.233 C 7.600 295.953,7.256 295.413,6.837 295.033 C 6.417 294.653,5.848 293.770,5.572 293.071 C 5.296 292.372,4.783 291.440,4.432 291.000 C 4.080 290.560,3.075 288.726,2.196 286.923 C 0.434 283.305,-0.000 282.922,0.000 284.980 " stroke="none" fill="#a924bc" fill-rule="evenodd"></path><path id="path2" d="M80.600 136.911 C 78.840 137.129,77.285 137.487,77.145 137.705 C 77.004 137.924,76.697 137.983,76.461 137.838 C 76.225 137.692,75.710 137.753,75.316 137.973 C 74.922 138.193,73.565 138.572,72.300 138.815 C 71.035 139.058,70.000 139.445,70.000 139.675 C 70.000 139.905,69.640 139.999,69.200 139.884 C 68.760 139.769,68.400 139.799,68.400 139.950 C 68.400 140.101,67.545 140.467,66.500 140.763 C 65.455 141.059,64.201 141.548,63.714 141.850 C 63.227 142.153,61.967 142.691,60.914 143.047 C 59.861 143.403,58.910 143.827,58.800 143.990 C 58.690 144.153,57.790 144.681,56.800 145.163 C 54.346 146.358,52.281 147.488,51.800 147.899 C 51.580 148.086,50.770 148.591,50.000 149.020 C 49.230 149.449,48.456 150.025,48.280 150.300 C 48.104 150.575,47.768 150.800,47.534 150.800 C 47.068 150.800,43.595 153.245,42.004 154.693 C 41.456 155.192,40.876 155.600,40.715 155.600 C 40.553 155.600,39.611 156.410,38.621 157.400 C 37.631 158.390,36.693 159.200,36.536 159.200 C 36.380 159.200,34.197 161.315,31.687 163.900 C 25.208 170.571,25.200 170.580,25.200 170.886 C 25.200 171.039,24.795 171.618,24.300 172.173 C 22.756 173.904,22.225 174.575,21.432 175.796 C 21.010 176.447,20.335 177.333,19.932 177.765 C 19.529 178.197,19.200 178.778,19.200 179.056 C 19.200 179.333,18.973 179.704,18.696 179.880 C 18.419 180.056,17.834 180.920,17.396 181.800 C 16.958 182.680,16.431 183.522,16.224 183.671 C 15.825 183.957,14.985 185.448,13.557 188.400 C 13.078 189.390,12.517 190.310,12.309 190.445 C 12.101 190.579,11.942 190.802,11.954 190.940 C 11.966 191.077,11.591 192.047,11.121 193.095 C 10.650 194.143,10.234 195.090,10.197 195.200 C 10.159 195.310,9.829 196.069,9.464 196.887 C 9.099 197.705,8.800 198.480,8.800 198.609 C 8.800 198.738,8.451 199.609,8.025 200.545 C 7.599 201.480,7.030 203.135,6.760 204.223 C 6.491 205.310,6.157 206.290,6.019 206.400 C 5.880 206.510,5.448 208.040,5.058 209.800 C 4.668 211.560,4.193 213.360,4.001 213.800 C 3.570 214.789,2.929 218.820,2.569 222.800 C 2.420 224.450,2.109 226.037,1.878 226.327 C 1.292 227.061,1.293 247.642,1.879 248.879 C 2.119 249.385,2.620 252.320,2.993 255.400 C 3.366 258.480,3.804 261.180,3.968 261.400 C 4.131 261.620,4.600 263.330,5.010 265.200 C 5.419 267.070,5.870 268.690,6.012 268.800 C 6.154 268.910,6.491 269.890,6.760 270.977 C 7.030 272.065,7.599 273.720,8.025 274.655 C 8.451 275.591,8.800 276.462,8.800 276.591 C 8.800 276.720,9.099 277.495,9.464 278.313 C 9.829 279.131,10.159 279.890,10.197 280.000 C 10.234 280.110,10.650 281.057,11.121 282.105 C 11.591 283.153,11.966 284.123,11.954 284.260 C 11.942 284.398,12.101 284.621,12.309 284.755 C 12.517 284.890,13.078 285.810,13.557 286.800 C 15.001 289.785,15.827 291.244,16.235 291.529 C 16.448 291.678,16.959 292.565,17.372 293.500 C 17.784 294.435,18.266 295.200,18.442 295.200 C 18.618 295.200,19.061 295.830,19.427 296.600 C 19.792 297.370,20.212 298.000,20.359 298.000 C 20.507 298.000,20.961 298.565,21.369 299.255 C 22.099 300.490,22.513 301.024,24.300 303.027 C 24.795 303.582,25.200 304.154,25.200 304.298 C 25.200 304.595,25.794 305.236,31.876 311.500 C 34.279 313.975,36.384 316.000,36.554 316.000 C 36.724 316.000,37.529 316.675,38.344 317.500 C 39.159 318.325,40.359 319.401,41.013 319.890 C 45.103 322.958,47.194 324.400,47.552 324.400 C 47.776 324.400,48.104 324.625,48.280 324.900 C 48.456 325.175,49.230 325.751,50.000 326.180 C 50.770 326.609,51.580 327.114,51.800 327.301 C 52.281 327.712,54.346 328.842,56.800 330.037 C 57.790 330.519,58.690 331.047,58.800 331.210 C 58.910 331.373,59.861 331.797,60.914 332.153 C 61.967 332.509,63.227 333.047,63.714 333.350 C 64.201 333.652,65.455 334.141,66.500 334.437 C 67.545 334.733,68.400 335.088,68.400 335.228 C 68.400 335.367,69.795 335.789,71.500 336.166 C 73.205 336.542,74.937 337.035,75.349 337.259 C 78.779 339.131,108.400 339.020,108.400 337.136 C 108.400 336.951,108.831 336.800,109.357 336.800 C 110.754 336.800,116.527 335.571,117.028 335.167 C 117.263 334.977,118.701 334.533,120.224 334.180 C 121.747 333.827,123.175 333.389,123.397 333.207 C 123.618 333.025,124.880 332.565,126.200 332.185 C 127.520 331.805,128.690 331.374,128.800 331.228 C 128.910 331.081,130.125 330.627,131.500 330.217 C 132.875 329.808,134.000 329.339,134.000 329.174 C 134.000 329.009,134.990 328.563,136.200 328.182 C 137.410 327.802,138.400 327.374,138.400 327.233 C 138.400 327.091,139.220 326.733,140.222 326.437 C 141.224 326.141,142.291 325.651,142.594 325.349 C 142.896 325.047,143.274 324.800,143.435 324.800 C 143.838 324.800,151.352 321.107,151.600 320.787 C 151.710 320.645,152.565 320.195,153.500 319.787 C 154.435 319.380,155.200 318.901,155.200 318.723 C 155.200 318.545,155.384 318.400,155.608 318.400 C 155.832 318.400,156.777 317.907,157.708 317.305 C 158.639 316.702,159.895 315.991,160.500 315.724 C 161.105 315.457,161.600 315.050,161.600 314.819 C 161.600 314.589,161.859 314.400,162.176 314.400 C 163.276 314.400,163.093 306.409,161.974 305.600 C 161.822 305.490,161.364 302.655,160.956 299.300 C 160.549 295.945,160.077 293.200,159.908 293.200 C 159.738 293.200,159.600 292.861,159.600 292.447 C 159.600 291.650,157.903 290.918,157.666 291.613 C 157.592 291.828,157.336 291.884,157.098 291.737 C 156.822 291.566,156.757 291.711,156.921 292.137 C 157.143 292.717,156.954 292.775,155.489 292.571 C 154.233 292.396,153.954 292.445,154.400 292.762 C 155.249 293.365,154.207 293.336,153.236 292.730 C 152.630 292.351,152.353 292.390,151.813 292.930 C 151.381 293.362,150.760 293.528,150.071 293.398 C 149.482 293.286,149.225 293.301,149.500 293.431 C 150.194 293.758,150.127 294.400,149.400 294.400 C 149.070 294.400,148.800 294.220,148.800 294.000 C 148.800 293.780,148.421 293.600,147.957 293.600 C 147.362 293.600,147.184 293.781,147.351 294.217 C 147.547 294.727,147.328 294.796,146.094 294.613 C 144.980 294.448,144.804 294.487,145.400 294.768 C 146.169 295.129,146.165 295.145,145.300 295.172 C 144.805 295.187,144.400 295.020,144.400 294.800 C 144.400 294.580,144.119 294.400,143.776 294.400 C 143.402 294.400,143.268 294.587,143.442 294.868 C 143.633 295.178,143.517 295.254,143.099 295.093 C 142.735 294.954,142.373 295.094,142.246 295.425 C 142.124 295.741,141.794 295.997,141.513 295.994 C 141.148 295.990,141.174 295.863,141.600 295.556 C 142.099 295.197,142.077 295.165,141.467 295.362 C 141.064 295.493,140.550 295.600,140.324 295.600 C 140.099 295.600,140.019 295.872,140.147 296.205 C 140.331 296.686,140.163 296.756,139.330 296.547 C 138.574 296.357,138.363 296.416,138.574 296.758 C 138.785 297.100,138.552 297.163,137.734 296.984 C 136.866 296.794,136.741 296.835,137.200 297.162 C 137.663 297.491,137.413 297.589,136.100 297.594 C 135.165 297.597,134.399 297.735,134.397 297.900 C 134.391 298.433,132.426 299.131,131.500 298.928 C 130.753 298.764,130.702 298.810,131.200 299.198 C 131.673 299.566,131.434 299.613,130.071 299.423 C 128.804 299.246,128.419 299.306,128.630 299.649 C 128.838 299.986,128.595 300.041,127.760 299.846 C 126.927 299.652,126.769 299.688,127.198 299.972 C 127.713 300.313,127.685 300.452,126.998 300.971 C 125.958 301.757,125.362 301.769,126.008 300.990 C 126.286 300.655,126.398 300.265,126.257 300.124 C 126.116 299.982,126.000 300.065,126.000 300.306 C 126.000 300.548,125.616 300.868,125.147 301.017 C 124.466 301.233,124.406 301.364,124.847 301.667 C 125.217 301.922,124.871 301.972,123.800 301.819 C 122.089 301.576,121.082 301.958,121.279 302.778 C 121.351 303.077,120.914 303.340,120.204 303.424 C 119.311 303.530,119.159 303.466,119.604 303.171 C 120.238 302.750,118.739 303.015,116.800 303.665 C 115.992 303.937,116.068 303.963,117.200 303.805 C 118.579 303.613,118.572 303.625,116.673 304.605 C 115.613 305.152,114.173 305.587,113.473 305.572 C 112.399 305.548,112.325 305.490,113.000 305.200 C 113.502 304.984,113.576 304.857,113.200 304.859 C 112.870 304.860,111.970 305.119,111.200 305.434 C 109.983 305.932,109.950 305.978,110.948 305.784 C 111.910 305.597,112.007 305.647,111.548 306.092 C 110.843 306.777,107.677 307.810,107.334 307.467 C 107.190 307.323,107.641 307.092,108.336 306.953 C 109.031 306.814,109.600 306.543,109.600 306.350 C 109.600 305.791,108.397 305.945,107.756 306.587 C 107.433 306.910,106.681 307.113,106.085 307.039 C 105.488 306.964,105.270 306.988,105.600 307.090 C 107.188 307.586,106.468 307.790,103.480 307.692 C 99.565 307.563,96.000 307.914,96.000 308.429 C 96.000 308.633,96.720 308.800,97.600 308.800 C 98.480 308.800,99.200 308.620,99.200 308.400 C 99.200 308.180,99.830 308.000,100.600 308.000 C 103.092 308.000,102.084 308.666,98.920 309.110 C 96.996 309.380,95.579 309.403,95.146 309.171 C 94.765 308.967,92.821 308.800,90.826 308.800 C 88.675 308.800,87.200 308.637,87.200 308.400 C 87.200 308.180,86.435 307.992,85.500 307.982 C 84.565 307.972,83.260 307.701,82.600 307.380 L 81.400 306.795 82.600 307.033 C 86.173 307.739,88.528 307.996,91.467 307.998 C 93.716 307.999,94.789 308.156,94.912 308.500 C 95.010 308.775,95.245 308.855,95.434 308.678 C 96.105 308.048,94.556 307.612,91.600 307.598 C 88.173 307.582,83.140 306.933,82.817 306.465 C 82.497 306.000,77.996 304.670,77.711 304.956 C 77.577 305.090,77.797 305.200,78.200 305.200 C 78.603 305.200,78.827 305.307,78.697 305.437 C 78.403 305.730,75.600 304.747,75.600 304.351 C 75.600 304.192,74.988 303.860,74.241 303.614 C 72.843 303.152,70.738 301.600,71.510 301.600 C 71.748 301.600,72.213 301.870,72.543 302.200 C 72.873 302.530,73.353 302.800,73.610 302.800 C 74.192 302.800,76.503 304.065,76.878 304.588 C 77.031 304.802,77.288 304.845,77.449 304.684 C 77.808 304.325,76.523 303.294,75.300 302.960 C 74.805 302.824,74.400 302.553,74.400 302.357 C 74.400 302.160,74.076 302.000,73.680 302.000 C 73.284 302.000,72.785 301.825,72.571 301.611 C 72.358 301.398,71.737 301.151,71.191 301.063 C 70.618 300.970,70.220 300.650,70.247 300.303 C 70.277 299.918,70.042 299.769,69.592 299.886 C 69.206 299.987,68.750 299.843,68.580 299.567 C 68.359 299.210,68.468 299.140,68.955 299.327 C 69.350 299.479,69.541 299.428,69.405 299.209 C 69.275 298.998,68.659 298.928,68.035 299.053 C 67.197 299.221,66.757 299.078,66.351 298.508 C 66.048 298.083,65.260 297.393,64.600 296.974 C 63.072 296.003,62.434 295.176,62.693 294.502 C 62.921 293.909,61.720 292.393,61.038 292.413 C 60.797 292.420,60.915 292.665,61.300 292.957 C 61.685 293.249,62.000 293.693,62.000 293.944 C 62.000 294.568,61.203 294.525,61.187 293.900 C 61.170 293.259,59.794 291.600,59.279 291.600 C 59.062 291.600,58.782 291.329,58.655 290.999 C 58.458 290.487,58.571 290.493,59.412 291.045 C 59.955 291.401,60.400 291.881,60.400 292.113 C 60.400 292.344,60.494 292.439,60.609 292.324 C 60.964 291.970,60.345 290.800,59.803 290.800 C 59.522 290.800,59.006 290.364,58.657 289.830 C 58.307 289.297,57.665 288.747,57.229 288.609 C 56.793 288.471,56.212 287.737,55.938 286.979 C 55.664 286.220,55.205 285.600,54.920 285.600 C 54.242 285.600,54.262 285.982,54.981 286.766 C 56.912 288.870,57.168 289.200,56.872 289.200 C 56.478 289.200,55.133 287.690,54.136 286.131 C 53.739 285.509,53.096 284.765,52.707 284.477 C 52.318 284.190,52.000 283.738,52.000 283.472 C 52.000 283.207,51.595 282.812,51.100 282.595 C 50.605 282.378,50.176 281.930,50.146 281.600 C 50.117 281.270,50.072 280.788,50.046 280.529 C 50.021 280.269,49.773 279.819,49.495 279.529 C 49.218 279.238,48.773 278.509,48.508 277.908 C 48.173 277.151,47.827 276.892,47.382 277.062 C 46.962 277.223,46.780 277.117,46.855 276.754 C 47.067 275.731,45.525 272.399,44.846 272.413 C 44.276 272.424,44.271 272.483,44.800 272.913 C 45.130 273.181,45.719 274.120,46.109 275.000 C 46.605 276.121,46.639 276.360,46.222 275.800 C 45.895 275.360,45.441 274.783,45.214 274.517 C 44.986 274.251,44.800 273.868,44.800 273.666 C 44.800 273.464,44.549 273.089,44.241 272.834 C 43.934 272.579,43.776 272.015,43.890 271.579 C 44.044 270.990,43.940 270.848,43.484 271.023 C 42.759 271.301,42.223 269.989,42.589 268.834 C 42.723 268.412,42.645 267.952,42.416 267.810 C 42.187 267.669,42.000 267.305,42.000 267.002 C 42.000 266.398,41.480 265.145,40.589 263.600 C 40.172 262.877,40.010 262.787,40.006 263.276 C 40.003 263.648,40.180 264.064,40.400 264.200 C 40.620 264.336,40.799 264.752,40.798 265.124 C 40.791 266.920,39.498 263.097,39.339 260.811 C 39.240 259.387,39.012 258.127,38.833 258.011 C 38.654 257.895,38.381 257.392,38.225 256.894 C 38.070 256.396,37.783 256.087,37.589 256.207 C 37.394 256.327,37.293 255.565,37.365 254.513 C 37.437 253.461,37.419 253.185,37.324 253.900 C 37.080 255.739,36.400 255.518,36.400 253.600 C 36.400 252.720,36.580 252.000,36.800 252.000 C 37.020 252.000,37.200 251.812,37.200 251.582 C 37.200 251.353,36.885 251.218,36.500 251.282 C 35.938 251.377,35.789 251.085,35.742 249.800 L 35.684 248.200 35.996 249.600 C 36.259 250.779,36.284 250.685,36.157 249.000 C 36.075 247.900,35.982 246.640,35.951 246.200 C 35.920 245.756,35.752 246.023,35.575 246.800 C 35.369 247.703,35.302 246.708,35.388 244.000 C 35.462 241.690,35.438 240.385,35.336 241.100 C 35.233 241.815,34.981 242.400,34.775 242.400 C 34.209 242.400,34.325 239.302,34.900 239.033 C 35.300 238.847,35.300 238.753,34.900 238.567 C 34.307 238.290,34.223 236.800,34.800 236.800 C 35.020 236.800,35.200 236.350,35.200 235.800 C 35.200 234.754,34.612 234.440,34.265 235.300 C 34.154 235.575,34.049 235.395,34.032 234.900 C 34.012 234.353,34.235 234.000,34.600 234.000 C 35.061 234.000,35.200 233.489,35.200 231.800 C 35.200 230.590,35.020 229.600,34.800 229.600 C 34.563 229.600,34.400 228.133,34.400 226.000 C 34.400 222.109,35.053 221.050,35.326 224.500 C 35.417 225.655,35.423 225.069,35.339 223.199 C 35.219 220.535,35.326 219.598,35.831 218.877 C 36.237 218.297,36.383 217.585,36.224 216.954 C 35.923 215.753,36.344 213.200,36.845 213.200 C 37.040 213.200,37.200 213.560,37.200 214.000 C 37.200 214.440,37.020 214.800,36.800 214.800 C 36.580 214.800,36.400 215.160,36.400 215.600 C 36.400 217.279,37.073 216.290,37.692 213.702 C 38.375 210.847,38.333 209.791,37.626 212.056 C 37.162 213.543,37.317 212.495,38.030 209.324 C 38.286 208.183,38.736 207.157,39.028 207.045 C 39.367 206.915,39.479 207.050,39.337 207.420 C 39.214 207.739,39.328 208.000,39.589 208.000 C 39.901 208.000,39.979 207.615,39.817 206.876 C 39.681 206.257,39.761 205.312,39.994 204.776 C 40.392 203.862,40.403 203.876,40.177 204.999 C 39.839 206.676,40.398 205.981,40.792 204.235 C 41.006 203.286,40.977 202.891,40.705 203.058 C 40.477 203.200,40.382 203.066,40.491 202.756 C 40.598 202.450,40.998 202.228,41.380 202.262 C 41.876 202.306,42.017 202.107,41.874 201.561 C 41.764 201.142,41.819 200.888,41.995 200.997 C 42.172 201.106,42.423 200.917,42.554 200.577 C 42.688 200.227,42.621 200.063,42.400 200.200 C 42.178 200.337,42.112 200.173,42.247 199.821 C 42.378 199.479,42.781 199.197,43.143 199.194 C 43.581 199.190,43.645 199.089,43.334 198.891 C 42.985 198.669,43.000 198.415,43.394 197.876 C 43.793 197.330,43.978 197.283,44.164 197.679 C 44.299 197.965,44.332 197.788,44.238 197.284 C 44.097 196.531,44.203 196.411,44.833 196.610 C 45.538 196.834,46.498 195.489,46.348 194.486 C 46.162 193.239,46.528 192.325,47.366 191.943 C 47.897 191.701,48.421 191.164,48.529 190.751 C 48.637 190.338,48.967 190.003,49.263 190.006 C 49.674 190.011,49.660 190.112,49.200 190.437 C 48.803 190.718,48.779 190.813,49.130 190.720 C 49.422 190.643,49.620 190.495,49.571 190.390 C 49.393 190.012,51.135 186.982,51.957 186.238 C 52.421 185.819,52.800 185.332,52.800 185.157 C 52.800 184.982,53.655 183.966,54.700 182.901 C 55.745 181.835,57.140 180.277,57.800 179.437 C 59.272 177.564,60.490 176.356,60.697 176.564 C 60.853 176.720,60.519 177.106,56.001 182.000 C 54.681 183.430,53.601 184.754,53.601 184.942 C 53.600 185.131,53.150 185.639,52.600 186.071 C 52.050 186.504,51.600 187.007,51.600 187.190 C 51.600 187.372,52.140 187.017,52.800 186.400 C 53.460 185.783,54.000 185.114,54.000 184.912 C 54.000 184.710,54.405 184.186,54.900 183.748 C 55.395 183.310,56.520 182.089,57.400 181.035 C 58.280 179.981,59.495 178.657,60.100 178.093 C 60.705 177.529,61.200 176.822,61.200 176.521 C 61.200 176.220,61.802 175.371,62.539 174.634 C 63.275 173.898,63.994 172.992,64.137 172.620 C 64.309 172.171,64.653 172.027,65.164 172.189 C 65.587 172.323,66.047 172.247,66.187 172.021 C 66.338 171.776,66.190 171.706,65.821 171.847 C 65.469 171.982,65.200 171.874,65.200 171.598 C 65.200 171.259,65.620 171.190,66.578 171.370 C 67.711 171.582,68.035 171.483,68.392 170.814 C 68.632 170.366,69.096 170.000,69.424 170.000 C 69.752 170.000,70.191 169.550,70.400 169.000 C 70.622 168.417,71.098 168.000,71.541 168.000 C 72.436 168.000,73.276 167.114,73.114 166.342 C 73.043 166.004,73.286 165.849,73.760 165.931 C 75.052 166.155,78.134 164.742,79.513 163.294 C 80.458 162.302,81.243 161.878,82.313 161.781 C 83.131 161.707,85.150 161.464,86.800 161.241 C 88.450 161.018,89.935 160.827,90.100 160.818 C 91.038 160.763,90.198 160.000,89.200 160.000 C 88.540 160.000,88.000 160.180,88.000 160.400 C 88.000 160.620,87.414 160.800,86.697 160.800 C 85.981 160.800,84.807 160.968,84.090 161.174 C 83.279 161.407,82.872 161.407,83.016 161.174 C 83.143 160.968,83.582 160.800,83.990 160.800 C 84.399 160.800,84.793 160.623,84.867 160.407 C 85.263 159.239,95.779 159.272,95.473 160.441 C 95.295 161.122,95.596 161.173,99.617 161.137 C 103.581 161.101,107.600 161.749,107.600 162.424 C 107.600 162.561,108.680 163.000,110.000 163.400 C 111.454 163.840,112.400 164.349,112.400 164.690 C 112.400 165.363,110.769 164.983,110.311 164.203 C 110.152 163.932,109.162 163.471,108.111 163.178 C 107.060 162.885,105.962 162.411,105.671 162.123 C 105.381 161.835,104.841 161.621,104.471 161.646 C 103.874 161.688,103.877 161.713,104.500 161.876 C 104.885 161.976,105.200 162.223,105.200 162.424 C 105.200 162.624,106.025 162.996,107.034 163.250 C 108.043 163.504,108.961 163.955,109.075 164.252 C 109.320 164.890,112.231 165.751,113.063 165.431 C 113.432 165.290,113.538 165.377,113.355 165.673 C 113.160 165.989,113.297 166.049,113.786 165.861 C 115.159 165.334,117.967 166.781,116.700 167.363 C 116.425 167.489,116.628 167.485,117.150 167.353 C 117.743 167.204,118.006 167.267,117.850 167.520 C 117.696 167.769,117.933 167.838,118.462 167.700 C 119.048 167.547,119.234 167.621,119.043 167.931 C 118.847 168.248,119.104 168.325,119.880 168.183 C 121.093 167.961,122.391 168.556,121.834 169.078 C 121.645 169.255,121.410 169.175,121.312 168.900 C 121.100 168.308,119.600 168.220,119.600 168.800 C 119.600 169.191,120.678 169.389,122.123 169.264 C 122.577 169.225,122.740 169.373,122.561 169.664 C 122.363 169.983,122.554 170.053,123.178 169.890 C 124.671 169.499,126.219 170.449,126.061 171.659 C 126.043 171.801,126.381 171.825,126.814 171.712 C 127.246 171.599,127.600 171.683,127.600 171.898 C 127.600 172.113,128.095 172.210,128.700 172.113 C 129.537 171.979,129.659 172.035,129.212 172.347 C 128.372 172.931,128.996 173.364,130.611 173.319 C 131.450 173.295,131.900 173.439,131.749 173.682 C 131.592 173.937,131.832 173.980,132.400 173.800 C 133.074 173.586,133.221 173.642,132.984 174.025 C 132.762 174.385,132.859 174.463,133.314 174.288 C 133.767 174.114,133.893 174.213,133.737 174.620 C 133.614 174.939,133.714 175.200,133.957 175.200 C 134.201 175.200,134.400 175.020,134.400 174.800 C 134.400 174.580,134.670 174.400,135.000 174.400 C 135.550 174.400,135.784 174.889,135.637 175.730 C 135.606 175.912,135.967 175.937,136.440 175.787 C 137.075 175.586,137.218 175.647,136.988 176.020 C 136.760 176.388,136.909 176.465,137.537 176.300 C 138.158 176.138,138.409 176.261,138.432 176.737 C 138.451 177.153,138.538 177.214,138.665 176.900 C 138.914 176.283,139.881 176.242,140.080 176.840 C 140.161 177.082,140.895 177.280,141.712 177.280 C 142.529 177.280,143.108 177.425,142.998 177.603 C 142.889 177.780,143.119 177.842,143.509 177.740 C 144.316 177.529,146.525 178.541,146.127 178.939 C 145.830 179.236,146.434 179.312,148.291 179.211 C 149.981 179.119,151.280 179.547,150.946 180.087 C 150.768 180.376,151.039 180.427,151.774 180.242 C 152.490 180.063,152.778 180.112,152.610 180.384 C 152.465 180.619,152.701 180.800,153.153 180.800 C 153.593 180.800,154.064 180.620,154.200 180.400 C 154.336 180.180,154.627 180.000,154.847 180.000 C 155.067 180.000,155.121 180.205,154.966 180.455 C 154.764 180.782,155.106 180.832,156.182 180.630 C 157.206 180.438,157.595 180.484,157.414 180.777 C 157.268 181.013,157.465 181.327,157.851 181.475 C 158.254 181.630,158.619 181.543,158.709 181.272 C 158.796 181.012,159.132 180.800,159.457 180.800 C 159.782 180.800,159.944 180.968,159.817 181.172 C 159.691 181.377,159.730 181.633,159.905 181.741 C 160.080 181.849,160.555 179.207,160.960 175.869 C 161.366 172.531,161.822 169.710,161.974 169.600 C 163.093 168.791,163.276 160.800,162.176 160.800 C 161.859 160.800,161.600 160.611,161.600 160.381 C 161.600 160.150,161.105 159.743,160.500 159.476 C 159.895 159.209,158.639 158.498,157.708 157.895 C 156.777 157.293,155.832 156.800,155.608 156.800 C 155.384 156.800,155.200 156.655,155.200 156.477 C 155.200 156.299,154.435 155.820,153.500 155.413 C 152.565 155.005,151.710 154.546,151.600 154.392 C 151.331 154.018,147.479 152.259,147.100 152.338 C 146.935 152.372,146.800 152.244,146.800 152.054 C 146.800 151.864,145.945 151.382,144.900 150.983 C 143.855 150.584,142.785 150.042,142.522 149.780 C 142.259 149.517,141.224 149.059,140.222 148.763 C 139.220 148.467,138.400 148.109,138.400 147.967 C 138.400 147.826,137.410 147.398,136.200 147.018 C 134.990 146.637,134.000 146.191,134.000 146.026 C 134.000 145.861,132.875 145.392,131.500 144.983 C 130.125 144.573,128.910 144.119,128.800 143.972 C 128.690 143.826,127.520 143.395,126.200 143.015 C 124.880 142.635,123.618 142.175,123.397 141.993 C 123.175 141.811,121.759 141.376,120.250 141.026 C 118.742 140.676,117.303 140.262,117.054 140.106 C 116.523 139.774,116.743 139.828,112.400 138.971 C 110.530 138.603,108.692 138.146,108.316 137.957 C 107.940 137.768,107.352 137.720,107.011 137.851 C 106.669 137.982,106.167 137.910,105.895 137.690 C 104.516 136.575,87.514 136.052,80.600 136.911 M91.038 160.645 C 90.857 161.116,90.962 161.224,91.428 161.045 C 91.779 160.910,92.681 160.800,93.433 160.800 C 94.185 160.800,94.800 160.620,94.800 160.400 C 94.800 159.694,91.316 159.921,91.038 160.645 M99.600 160.400 C 99.600 160.620,98.790 160.800,97.800 160.800 C 96.810 160.800,96.000 160.620,96.000 160.400 C 96.000 160.180,96.810 160.000,97.800 160.000 C 98.790 160.000,99.600 160.180,99.600 160.400 M78.200 163.474 C 77.540 163.827,76.910 164.229,76.800 164.366 C 76.498 164.744,74.400 165.615,74.400 165.363 C 74.400 164.895,75.467 164.129,77.000 163.499 C 79.050 162.656,79.756 162.642,78.200 163.474 M72.704 166.889 C 72.614 167.158,72.104 167.479,71.570 167.602 C 71.037 167.725,70.427 168.214,70.216 168.688 C 70.004 169.163,69.538 169.628,69.179 169.721 C 67.935 170.047,69.289 168.114,70.691 167.564 C 71.411 167.282,72.000 166.904,72.000 166.725 C 72.000 166.546,72.195 166.400,72.433 166.400 C 72.672 166.400,72.793 166.620,72.704 166.889 M68.000 170.600 C 68.000 170.930,67.730 171.200,67.400 171.200 C 66.775 171.200,66.606 170.727,67.067 170.267 C 67.527 169.806,68.000 169.975,68.000 170.600 M123.858 170.606 C 123.966 170.889,124.389 171.209,124.798 171.315 C 125.290 171.444,125.473 171.336,125.342 170.994 C 125.234 170.711,124.811 170.391,124.402 170.285 C 123.910 170.156,123.727 170.264,123.858 170.606 M64.432 172.731 C 64.414 173.023,63.860 173.802,63.200 174.462 C 62.540 175.122,62.000 175.868,62.000 176.120 C 62.000 176.372,62.309 176.133,62.688 175.589 C 63.066 175.045,63.721 174.317,64.144 173.970 C 64.567 173.624,64.812 173.084,64.688 172.770 C 64.517 172.338,64.456 172.328,64.432 172.731 M47.365 192.306 C 46.698 192.757,46.378 194.383,47.004 194.143 C 47.375 194.001,48.177 191.960,47.845 192.006 C 47.820 192.009,47.604 192.144,47.365 192.306 M45.716 195.600 C 45.601 196.040,45.348 196.400,45.153 196.400 C 44.612 196.400,44.734 195.293,45.300 195.065 C 45.575 194.954,45.828 194.849,45.863 194.832 C 45.897 194.814,45.831 195.160,45.716 195.600 M38.400 209.600 C 38.400 210.040,38.580 210.400,38.800 210.400 C 39.020 210.400,39.200 210.040,39.200 209.600 C 39.200 209.160,39.020 208.800,38.800 208.800 C 38.580 208.800,38.400 209.160,38.400 209.600 M38.372 259.167 C 38.413 260.564,38.145 260.057,37.862 258.200 C 37.693 257.085,37.729 256.842,37.981 257.400 C 38.181 257.840,38.356 258.635,38.372 259.167 M299.600 262.652 C 298.830 262.747,297.840 262.980,297.400 263.170 C 296.960 263.360,294.710 263.825,292.400 264.204 C 290.090 264.582,288.110 265.017,288.000 265.170 C 287.890 265.324,286.540 265.779,285.000 266.182 C 283.460 266.584,282.020 267.053,281.800 267.223 C 281.580 267.393,281.220 267.572,281.000 267.620 C 280.280 267.779,278.641 268.463,276.200 269.624 C 274.880 270.251,273.305 270.882,272.700 271.026 C 272.095 271.169,271.600 271.408,271.600 271.555 C 271.600 271.703,270.700 272.173,269.600 272.600 C 268.500 273.027,267.600 273.498,267.600 273.648 C 267.600 273.797,266.700 274.243,265.600 274.639 C 264.500 275.034,263.600 275.484,263.600 275.639 C 263.600 275.793,262.700 276.243,261.600 276.639 C 260.500 277.034,259.600 277.484,259.600 277.639 C 259.600 277.793,258.700 278.243,257.600 278.639 C 256.500 279.034,255.600 279.484,255.600 279.639 C 255.600 279.793,254.700 280.243,253.600 280.639 C 252.500 281.034,251.600 281.513,251.600 281.703 C 251.600 281.892,251.420 281.936,251.200 281.800 C 250.980 281.664,250.800 281.707,250.800 281.896 C 250.800 282.085,250.125 282.478,249.300 282.769 C 248.475 283.060,247.530 283.522,247.200 283.794 C 246.870 284.067,245.745 284.610,244.700 285.000 C 243.655 285.390,242.800 285.829,242.800 285.975 C 242.800 286.122,241.900 286.566,240.800 286.961 C 239.700 287.357,238.800 287.842,238.800 288.040 C 238.800 288.238,238.519 288.400,238.176 288.400 C 237.807 288.400,237.669 288.588,237.838 288.862 C 238.000 289.124,237.949 289.216,237.720 289.074 C 237.233 288.773,234.800 289.637,234.800 290.111 C 234.800 290.296,235.008 290.319,235.262 290.162 C 235.516 290.005,236.326 289.810,237.062 289.729 L 238.400 289.581 238.400 381.991 L 238.400 474.400 237.300 474.441 C 236.255 474.480,236.266 474.498,237.519 474.794 C 239.848 475.346,264.667 473.925,265.200 473.210 C 265.310 473.062,268.100 472.610,271.400 472.205 C 274.700 471.800,277.490 471.351,277.600 471.207 C 277.710 471.062,279.780 470.613,282.200 470.207 C 284.620 469.802,286.690 469.350,286.800 469.203 C 286.910 469.056,289.070 468.528,291.600 468.030 C 294.130 467.531,296.380 466.984,296.600 466.814 C 296.820 466.643,298.395 466.198,300.100 465.824 C 301.805 465.451,303.200 465.004,303.200 464.831 C 303.200 464.657,304.640 464.205,306.400 463.824 C 308.160 463.444,309.600 462.995,309.600 462.826 C 309.600 462.657,310.815 462.193,312.300 461.795 C 313.785 461.398,315.090 460.955,315.200 460.811 C 315.310 460.668,316.480 460.219,317.800 459.813 C 319.120 459.408,320.290 458.951,320.400 458.797 C 320.510 458.644,321.590 458.195,322.800 457.800 C 324.010 457.405,325.090 456.955,325.200 456.800 C 325.310 456.645,326.345 456.207,327.500 455.827 C 328.655 455.447,329.600 454.970,329.600 454.768 C 329.600 454.566,329.846 454.400,330.147 454.400 C 330.886 454.400,334.889 452.735,335.447 452.195 C 335.693 451.958,336.638 451.517,337.547 451.217 C 338.456 450.917,339.200 450.545,339.200 450.390 C 339.200 450.235,340.055 449.786,341.100 449.391 C 342.145 448.996,343.090 448.547,343.200 448.393 C 343.310 448.240,344.210 447.719,345.200 447.237 C 347.654 446.042,349.719 444.912,350.200 444.501 C 350.420 444.314,351.230 443.809,352.000 443.380 C 352.770 442.951,353.544 442.375,353.720 442.100 C 353.896 441.825,354.267 441.600,354.544 441.600 C 354.822 441.600,355.403 441.271,355.835 440.868 C 356.267 440.465,357.156 439.796,357.810 439.381 C 359.120 438.550,360.423 437.477,361.795 436.100 C 362.288 435.605,362.819 435.200,362.974 435.200 C 363.333 435.200,374.400 424.147,374.400 423.789 C 374.400 423.641,374.895 423.008,375.500 422.381 C 376.964 420.864,377.647 420.022,378.568 418.604 C 378.990 417.953,379.665 417.067,380.068 416.635 C 380.471 416.203,380.800 415.622,380.800 415.344 C 380.800 415.067,381.027 414.696,381.304 414.520 C 381.581 414.344,382.166 413.480,382.604 412.600 C 383.042 411.720,383.569 410.878,383.776 410.729 C 384.196 410.427,384.572 409.744,387.300 404.333 C 388.345 402.259,389.200 400.346,389.200 400.082 C 389.200 399.817,389.351 399.600,389.536 399.600 C 389.721 399.600,390.109 398.835,390.399 397.900 C 390.689 396.965,391.150 395.829,391.423 395.375 C 391.697 394.921,392.327 393.031,392.824 391.175 C 393.320 389.319,393.855 387.710,394.011 387.600 C 394.167 387.490,394.620 385.690,395.017 383.600 C 395.414 381.510,395.869 379.710,396.028 379.600 C 397.949 378.275,397.934 340.327,396.012 338.800 C 395.874 338.690,395.435 336.845,395.038 334.700 C 394.640 332.555,394.196 330.800,394.051 330.800 C 393.906 330.800,393.438 329.336,393.012 327.547 C 392.586 325.758,392.040 324.093,391.800 323.847 C 391.559 323.601,391.039 322.365,390.644 321.101 C 390.249 319.836,389.776 318.709,389.592 318.595 C 389.409 318.482,389.038 317.716,388.768 316.894 C 388.318 315.525,384.143 307.665,383.618 307.200 C 383.494 307.090,383.038 306.325,382.605 305.500 C 382.172 304.675,381.700 304.000,381.555 304.000 C 381.410 304.000,380.992 303.370,380.627 302.600 C 380.261 301.830,379.791 301.200,379.581 301.200 C 379.372 301.200,379.200 300.987,379.200 300.726 C 379.200 300.465,378.480 299.398,377.600 298.354 C 376.720 297.310,376.000 296.361,376.000 296.244 C 376.000 295.424,361.677 281.222,360.820 281.192 C 360.699 281.188,359.880 280.556,359.000 279.788 C 358.120 279.020,357.085 278.291,356.700 278.169 C 356.315 278.046,356.000 277.787,356.000 277.592 C 356.000 277.397,355.370 276.939,354.600 276.573 C 353.830 276.208,353.200 275.778,353.200 275.619 C 353.200 275.459,352.482 274.985,351.605 274.564 C 350.727 274.144,350.007 273.692,350.005 273.561 C 350.002 273.429,349.235 272.982,348.300 272.568 C 347.365 272.153,346.362 271.586,346.071 271.307 C 345.781 271.028,345.310 270.800,345.025 270.800 C 344.741 270.800,344.079 270.480,343.554 270.088 C 341.784 268.767,333.645 265.600,332.019 265.600 C 331.605 265.600,331.207 265.428,331.133 265.217 C 331.060 265.006,329.200 264.521,327.000 264.138 C 324.800 263.756,322.877 263.262,322.727 263.041 C 322.453 262.639,302.442 262.302,299.600 262.652 M41.600 266.776 C 41.600 267.203,41.780 267.664,42.000 267.800 C 42.220 267.936,42.400 268.217,42.400 268.424 C 42.400 268.631,42.040 268.440,41.600 268.000 C 40.756 267.156,40.525 266.000,41.200 266.000 C 41.420 266.000,41.600 266.349,41.600 266.776 M49.422 280.279 C 50.154 281.011,50.157 281.235,49.431 280.957 C 49.118 280.837,48.578 280.029,48.231 279.161 C 47.440 277.184,47.459 276.527,48.254 278.350 C 48.578 279.093,49.104 279.961,49.422 280.279 M50.800 281.800 C 50.800 282.130,51.076 282.400,51.413 282.400 C 51.749 282.400,52.141 282.715,52.283 283.100 C 52.592 283.941,54.400 285.721,54.400 285.184 C 54.400 284.977,54.040 284.582,53.600 284.307 C 53.160 284.032,52.794 283.626,52.787 283.404 C 52.751 282.306,50.800 280.731,50.800 281.800 M58.308 289.925 C 58.395 290.186,58.182 290.400,57.833 290.400 C 57.485 290.400,57.200 290.115,57.200 289.767 C 57.200 289.060,58.061 289.183,58.308 289.925 M63.000 295.200 C 63.136 295.420,63.507 295.600,63.824 295.600 C 64.141 295.600,64.400 295.784,64.400 296.010 C 64.400 296.235,64.850 296.591,65.400 296.800 C 65.950 297.009,66.400 297.435,66.400 297.747 C 66.400 298.331,67.551 298.982,67.924 298.609 C 68.039 298.494,67.923 298.400,67.667 298.400 C 67.410 298.400,67.189 298.175,67.175 297.900 C 67.162 297.625,66.348 296.815,65.368 296.100 C 63.623 294.828,62.508 294.404,63.000 295.200 M114.244 304.629 C 114.076 305.068,114.204 305.219,114.668 305.129 C 115.034 305.058,115.409 304.775,115.500 304.500 C 115.745 303.765,114.528 303.890,114.244 304.629 M80.567 305.843 C 81.461 306.186,81.354 306.800,80.400 306.800 C 79.956 306.800,79.600 306.533,79.600 306.200 C 79.600 305.527,79.673 305.500,80.567 305.843 " stroke="none" fill="#4914a3" fill-rule="evenodd"></path><path id="path3" d="M292.400 7.431 C 292.400 7.701,294.478 8.456,294.676 8.257 C 294.767 8.167,294.292 7.901,293.620 7.667 C 292.949 7.433,292.400 7.327,292.400 7.431 M298.800 9.627 C 298.800 9.880,299.146 9.944,299.650 9.784 C 300.275 9.586,300.418 9.648,300.188 10.019 C 300.016 10.297,300.039 10.423,300.238 10.300 C 300.454 10.167,300.559 50.779,300.498 110.716 C 300.394 213.941,300.412 212.772,298.966 211.572 C 298.662 211.320,298.336 211.395,298.004 211.795 C 297.580 212.307,297.648 212.389,298.451 212.333 C 298.973 212.297,300.008 212.406,300.750 212.576 C 301.762 212.808,302.025 212.765,301.802 212.403 C 301.572 212.030,301.712 212.032,302.417 212.409 C 303.610 213.048,321.403 212.773,322.600 212.097 C 323.040 211.849,325.155 211.349,327.300 210.986 C 329.445 210.623,331.200 210.163,331.200 209.963 C 331.200 209.763,331.528 209.600,331.929 209.600 C 332.741 209.600,335.957 208.615,337.800 207.802 C 340.537 206.595,346.214 203.839,346.400 203.627 C 346.510 203.502,347.284 203.084,348.120 202.697 C 348.957 202.310,349.857 201.811,350.120 201.589 C 350.384 201.366,351.770 200.422,353.200 199.492 C 354.630 198.561,356.038 197.575,356.329 197.300 C 356.619 197.025,356.990 196.800,357.153 196.800 C 357.316 196.800,357.802 196.485,358.232 196.100 C 358.663 195.715,360.447 194.230,362.196 192.800 C 365.936 189.743,371.696 183.989,374.800 180.211 C 376.010 178.738,377.405 177.053,377.900 176.466 C 378.394 175.880,378.799 175.278,378.800 175.129 C 378.800 174.979,379.025 174.614,379.300 174.318 C 380.259 173.283,383.200 168.836,383.200 168.420 C 383.200 168.189,383.353 168.000,383.539 168.000 C 383.726 168.000,384.216 167.235,384.628 166.300 C 385.041 165.365,385.483 164.510,385.613 164.400 C 386.027 164.047,389.200 157.488,389.200 156.984 C 389.200 156.717,389.436 156.302,389.724 156.063 C 390.012 155.824,390.494 154.722,390.796 153.614 C 391.098 152.506,391.472 151.600,391.628 151.600 C 391.785 151.600,392.304 150.115,392.782 148.300 C 393.260 146.485,393.891 144.460,394.183 143.800 C 394.476 143.140,394.943 141.250,395.221 139.600 C 395.500 137.950,395.857 136.420,396.016 136.200 C 397.934 133.545,397.920 100.185,396.000 95.800 C 395.808 95.360,395.354 93.471,394.993 91.603 C 394.632 89.734,394.196 88.024,394.025 87.803 C 393.854 87.581,393.385 86.140,392.983 84.600 C 392.582 83.060,392.035 81.440,391.768 81.000 C 391.501 80.560,391.153 79.750,390.994 79.200 C 390.108 76.140,385.238 66.461,383.606 64.517 C 383.383 64.251,383.200 63.928,383.200 63.800 C 383.200 63.550,380.273 58.888,379.669 58.175 C 379.471 57.942,378.520 56.680,377.555 55.372 C 375.352 52.385,366.016 42.609,362.385 39.485 C 359.398 36.916,351.115 31.138,348.020 29.464 C 344.670 27.653,336.887 23.731,335.600 23.206 C 334.830 22.891,333.985 22.424,333.722 22.168 C 333.459 21.911,332.424 21.459,331.422 21.163 C 330.420 20.867,329.600 20.499,329.600 20.345 C 329.600 20.191,328.655 19.752,327.500 19.371 C 326.345 18.989,325.040 18.455,324.600 18.183 C 324.160 17.911,323.080 17.466,322.200 17.192 C 321.320 16.919,320.416 16.551,320.190 16.374 C 319.965 16.197,318.885 15.758,317.790 15.399 C 316.696 15.040,315.260 14.504,314.600 14.209 C 313.940 13.914,312.590 13.458,311.600 13.197 C 310.610 12.936,309.620 12.575,309.400 12.397 C 309.180 12.218,307.830 11.778,306.400 11.419 C 304.970 11.061,302.957 10.415,301.926 9.984 C 299.830 9.107,298.800 8.990,298.800 9.627 M89.200 159.657 C 86.890 159.846,84.940 160.180,84.867 160.400 C 84.793 160.620,84.399 160.800,83.990 160.800 C 83.582 160.800,83.143 160.968,83.016 161.174 C 82.872 161.407,83.279 161.407,84.090 161.174 C 84.807 160.968,85.981 160.800,86.697 160.800 C 87.414 160.800,88.000 160.620,88.000 160.400 C 88.000 160.180,88.540 160.000,89.200 160.000 C 90.198 160.000,91.038 160.763,90.100 160.818 C 89.935 160.827,88.450 161.018,86.800 161.241 C 85.150 161.464,83.131 161.707,82.313 161.781 C 81.243 161.878,80.458 162.302,79.513 163.294 C 78.134 164.742,75.052 166.155,73.760 165.931 C 73.286 165.849,73.043 166.004,73.114 166.342 C 73.276 167.114,72.436 168.000,71.541 168.000 C 71.098 168.000,70.622 168.417,70.400 169.000 C 70.191 169.550,69.752 170.000,69.424 170.000 C 69.096 170.000,68.632 170.366,68.392 170.814 C 68.035 171.483,67.711 171.582,66.578 171.370 C 65.620 171.190,65.200 171.259,65.200 171.598 C 65.200 171.874,65.469 171.982,65.821 171.847 C 66.190 171.706,66.338 171.776,66.187 172.021 C 66.047 172.247,65.587 172.323,65.164 172.189 C 64.653 172.027,64.309 172.171,64.137 172.620 C 63.994 172.992,63.275 173.898,62.539 174.634 C 61.802 175.371,61.200 176.220,61.200 176.521 C 61.200 176.822,60.705 177.529,60.100 178.093 C 59.495 178.657,58.280 179.981,57.400 181.035 C 56.520 182.089,55.395 183.310,54.900 183.748 C 54.405 184.186,54.000 184.710,54.000 184.912 C 54.000 185.114,53.460 185.783,52.800 186.400 C 52.140 187.017,51.600 187.372,51.600 187.190 C 51.600 187.007,52.050 186.504,52.600 186.071 C 53.150 185.639,53.600 185.131,53.601 184.942 C 53.601 184.754,54.681 183.430,56.001 182.000 C 60.519 177.106,60.853 176.720,60.697 176.564 C 60.490 176.356,59.272 177.564,57.800 179.437 C 57.140 180.277,55.745 181.835,54.700 182.901 C 53.655 183.966,52.800 184.982,52.800 185.157 C 52.800 185.332,52.421 185.819,51.957 186.238 C 51.116 186.999,49.697 189.453,49.673 190.190 C 49.666 190.405,49.422 190.643,49.130 190.720 C 48.779 190.813,48.803 190.718,49.200 190.437 C 49.660 190.112,49.674 190.011,49.263 190.006 C 48.967 190.003,48.637 190.338,48.529 190.751 C 48.421 191.164,47.897 191.701,47.366 191.943 C 46.528 192.325,46.162 193.239,46.348 194.486 C 46.498 195.489,45.538 196.834,44.833 196.610 C 44.203 196.411,44.097 196.531,44.238 197.284 C 44.332 197.788,44.299 197.965,44.164 197.679 C 43.978 197.283,43.793 197.330,43.394 197.876 C 43.000 198.415,42.985 198.669,43.334 198.891 C 43.645 199.089,43.581 199.190,43.143 199.194 C 42.781 199.197,42.378 199.479,42.247 199.821 C 42.112 200.173,42.178 200.337,42.400 200.200 C 42.621 200.063,42.688 200.227,42.554 200.577 C 42.423 200.917,42.172 201.106,41.995 200.997 C 41.819 200.888,41.764 201.142,41.874 201.561 C 42.017 202.107,41.876 202.306,41.380 202.262 C 40.998 202.228,40.598 202.450,40.491 202.756 C 40.382 203.066,40.477 203.200,40.705 203.058 C 40.977 202.891,41.006 203.286,40.792 204.235 C 40.398 205.981,39.839 206.676,40.177 204.999 C 40.403 203.876,40.392 203.862,39.994 204.776 C 39.761 205.312,39.681 206.257,39.817 206.876 C 39.979 207.615,39.901 208.000,39.589 208.000 C 39.328 208.000,39.214 207.739,39.337 207.420 C 39.480 207.047,39.367 206.915,39.019 207.048 C 38.722 207.162,38.360 207.918,38.215 208.728 C 37.853 210.749,37.083 212.944,36.619 213.275 C 36.408 213.426,36.222 214.596,36.208 215.875 C 36.193 217.154,35.959 218.596,35.687 219.081 C 35.365 219.654,35.245 221.122,35.343 223.281 C 35.426 225.106,35.418 225.655,35.327 224.500 C 35.053 221.051,34.400 222.108,34.400 226.000 C 34.400 228.133,34.563 229.600,34.800 229.600 C 35.020 229.600,35.200 230.590,35.200 231.800 C 35.200 233.489,35.061 234.000,34.600 234.000 C 34.235 234.000,34.012 234.353,34.032 234.900 C 34.049 235.395,34.154 235.575,34.265 235.300 C 34.612 234.440,35.200 234.754,35.200 235.800 C 35.200 236.350,35.020 236.800,34.800 236.800 C 34.223 236.800,34.307 238.290,34.900 238.567 C 35.300 238.753,35.300 238.847,34.900 239.033 C 34.325 239.302,34.209 242.400,34.775 242.400 C 34.981 242.400,35.233 241.815,35.336 241.100 C 35.438 240.385,35.462 241.690,35.388 244.000 C 35.314 246.335,35.382 247.578,35.541 246.800 C 35.820 245.432,35.833 245.450,36.110 247.600 C 36.469 250.392,36.383 251.913,35.985 249.800 L 35.684 248.200 35.742 249.800 C 35.789 251.085,35.938 251.377,36.500 251.282 C 36.885 251.218,37.200 251.353,37.200 251.582 C 37.200 251.812,37.020 252.000,36.800 252.000 C 36.580 252.000,36.400 252.720,36.400 253.600 C 36.400 255.518,37.080 255.739,37.324 253.900 C 37.419 253.185,37.437 253.461,37.365 254.513 C 37.293 255.565,37.388 256.331,37.575 256.215 C 37.931 255.995,38.420 256.927,38.372 257.733 C 38.356 257.990,38.181 257.840,37.981 257.400 C 37.729 256.842,37.693 257.085,37.862 258.200 C 38.156 260.131,38.400 260.523,38.400 259.067 C 38.400 257.779,39.192 257.618,39.218 258.900 C 39.271 261.608,39.588 263.532,40.157 264.600 C 40.552 265.343,40.796 265.542,40.798 265.124 C 40.799 264.752,40.620 264.336,40.400 264.200 C 40.180 264.064,40.003 263.648,40.006 263.276 C 40.010 262.787,40.172 262.877,40.589 263.600 C 41.480 265.145,42.000 266.398,42.000 267.002 C 42.000 267.305,42.187 267.669,42.416 267.810 C 42.645 267.952,42.723 268.412,42.589 268.834 C 42.223 269.989,42.759 271.301,43.484 271.023 C 43.940 270.848,44.044 270.990,43.890 271.579 C 43.776 272.015,43.934 272.579,44.241 272.834 C 44.549 273.089,44.800 273.464,44.800 273.666 C 44.800 273.868,44.986 274.251,45.214 274.517 C 45.441 274.783,45.895 275.360,46.222 275.800 C 46.639 276.360,46.605 276.121,46.109 275.000 C 45.719 274.120,45.130 273.181,44.800 272.913 C 44.271 272.483,44.276 272.424,44.846 272.413 C 45.525 272.399,47.067 275.731,46.855 276.754 C 46.780 277.117,46.962 277.223,47.382 277.062 C 47.827 276.892,48.173 277.151,48.508 277.908 C 48.773 278.509,49.218 279.238,49.495 279.529 C 49.773 279.819,50.021 280.269,50.046 280.529 C 50.072 280.788,50.117 281.270,50.146 281.600 C 50.176 281.930,50.605 282.378,51.100 282.595 C 51.595 282.812,52.000 283.207,52.000 283.472 C 52.000 283.738,52.318 284.190,52.707 284.477 C 53.096 284.765,53.739 285.509,54.136 286.131 C 55.133 287.690,56.478 289.200,56.872 289.200 C 57.168 289.200,56.912 288.870,54.981 286.766 C 54.262 285.982,54.242 285.600,54.920 285.600 C 55.205 285.600,55.664 286.220,55.938 286.979 C 56.212 287.737,56.793 288.471,57.229 288.609 C 57.665 288.747,58.307 289.297,58.657 289.830 C 59.006 290.364,59.522 290.800,59.803 290.800 C 60.345 290.800,60.964 291.970,60.609 292.324 C 60.494 292.439,60.400 292.344,60.400 292.113 C 60.400 291.881,59.955 291.401,59.412 291.045 C 58.571 290.493,58.458 290.487,58.655 290.999 C 58.782 291.329,59.062 291.600,59.279 291.600 C 59.794 291.600,61.170 293.259,61.187 293.900 C 61.203 294.525,62.000 294.568,62.000 293.944 C 62.000 293.693,61.685 293.249,61.300 292.957 C 60.915 292.665,60.797 292.420,61.038 292.413 C 61.720 292.393,62.921 293.909,62.693 294.502 C 62.434 295.176,63.072 296.003,64.600 296.974 C 65.260 297.393,66.035 298.065,66.323 298.468 C 66.610 298.871,67.185 299.200,67.599 299.200 C 68.014 299.200,68.474 299.396,68.622 299.635 C 68.769 299.874,69.206 299.987,69.592 299.886 C 70.042 299.769,70.277 299.918,70.247 300.303 C 70.220 300.650,70.618 300.970,71.191 301.063 C 71.737 301.151,72.358 301.398,72.571 301.611 C 72.785 301.825,73.284 302.000,73.680 302.000 C 74.076 302.000,74.400 302.160,74.400 302.357 C 74.400 302.553,74.805 302.824,75.300 302.960 C 76.523 303.294,77.808 304.325,77.449 304.684 C 77.288 304.845,77.031 304.802,76.878 304.588 C 76.503 304.065,74.192 302.800,73.610 302.800 C 73.353 302.800,72.873 302.530,72.543 302.200 C 72.213 301.870,71.748 301.600,71.510 301.600 C 70.738 301.600,72.843 303.152,74.241 303.614 C 74.988 303.860,75.600 304.192,75.600 304.351 C 75.600 304.747,78.403 305.730,78.697 305.437 C 78.827 305.307,78.603 305.200,78.200 305.200 C 77.797 305.200,77.577 305.090,77.711 304.956 C 77.996 304.670,82.497 306.000,82.817 306.465 C 83.140 306.933,88.173 307.582,91.600 307.598 C 94.556 307.612,96.105 308.048,95.434 308.678 C 95.245 308.855,95.010 308.775,94.912 308.500 C 94.789 308.156,93.716 307.999,91.467 307.998 C 88.528 307.996,86.173 307.739,82.600 307.033 L 81.400 306.795 82.600 307.380 C 83.260 307.701,84.565 307.972,85.500 307.982 C 86.435 307.992,87.200 308.180,87.200 308.400 C 87.200 308.637,88.675 308.800,90.826 308.800 C 92.821 308.800,94.765 308.967,95.146 309.171 C 95.579 309.403,96.996 309.380,98.920 309.110 C 102.084 308.666,103.092 308.000,100.600 308.000 C 99.830 308.000,99.200 308.180,99.200 308.400 C 99.200 308.620,98.480 308.800,97.600 308.800 C 96.720 308.800,96.000 308.633,96.000 308.429 C 96.000 307.914,99.565 307.563,103.480 307.692 C 106.468 307.790,107.188 307.586,105.600 307.090 C 105.270 306.988,105.488 306.964,106.085 307.039 C 106.681 307.113,107.433 306.910,107.756 306.587 C 108.397 305.945,109.600 305.791,109.600 306.350 C 109.600 306.543,109.031 306.814,108.336 306.953 C 107.641 307.092,107.190 307.323,107.334 307.467 C 107.677 307.810,110.843 306.777,111.548 306.092 C 112.007 305.647,111.910 305.597,110.948 305.784 C 109.950 305.978,109.983 305.932,111.200 305.434 C 111.970 305.119,112.870 304.860,113.200 304.859 C 113.576 304.857,113.502 304.984,113.000 305.200 C 112.325 305.490,112.399 305.548,113.473 305.572 C 114.173 305.587,115.613 305.152,116.673 304.605 C 118.572 303.625,118.579 303.613,117.200 303.805 C 116.068 303.963,115.992 303.937,116.800 303.665 C 118.739 303.015,120.238 302.750,119.604 303.171 C 119.159 303.466,119.311 303.530,120.204 303.424 C 120.914 303.340,121.351 303.077,121.279 302.778 C 121.082 301.958,122.089 301.576,123.800 301.819 C 124.871 301.972,125.217 301.922,124.847 301.667 C 124.406 301.364,124.466 301.233,125.147 301.017 C 125.616 300.868,126.000 300.548,126.000 300.306 C 126.000 300.065,126.116 299.982,126.257 300.124 C 126.398 300.265,126.286 300.655,126.008 300.990 C 125.362 301.769,125.958 301.757,126.998 300.971 C 127.685 300.452,127.713 300.313,127.198 299.972 C 126.769 299.688,126.927 299.652,127.760 299.846 C 128.595 300.041,128.838 299.986,128.630 299.649 C 128.419 299.306,128.804 299.246,130.071 299.423 C 131.434 299.613,131.673 299.566,131.200 299.198 C 130.702 298.810,130.753 298.764,131.500 298.928 C 132.426 299.131,134.391 298.433,134.397 297.900 C 134.399 297.735,135.165 297.597,136.100 297.594 C 137.413 297.589,137.663 297.491,137.200 297.162 C 136.741 296.835,136.866 296.794,137.734 296.984 C 138.552 297.163,138.785 297.100,138.574 296.758 C 138.363 296.416,138.574 296.357,139.330 296.547 C 140.163 296.756,140.331 296.686,140.147 296.205 C 140.019 295.872,140.099 295.600,140.324 295.600 C 140.550 295.600,141.064 295.493,141.467 295.362 C 142.077 295.165,142.099 295.197,141.600 295.556 C 141.174 295.863,141.148 295.990,141.513 295.994 C 141.794 295.997,142.124 295.741,142.246 295.425 C 142.373 295.094,142.735 294.954,143.099 295.093 C 143.517 295.254,143.633 295.178,143.442 294.868 C 143.268 294.587,143.402 294.400,143.776 294.400 C 144.119 294.400,144.400 294.580,144.400 294.800 C 144.400 295.020,144.805 295.187,145.300 295.172 C 146.165 295.145,146.169 295.129,145.400 294.768 C 144.804 294.487,144.980 294.448,146.094 294.613 C 147.328 294.796,147.547 294.727,147.351 294.217 C 147.184 293.781,147.362 293.600,147.957 293.600 C 148.421 293.600,148.800 293.780,148.800 294.000 C 148.800 294.220,149.070 294.400,149.400 294.400 C 150.127 294.400,150.194 293.758,149.500 293.431 C 149.225 293.301,149.482 293.286,150.071 293.398 C 150.760 293.528,151.381 293.362,151.813 292.930 C 152.353 292.390,152.630 292.351,153.236 292.730 C 154.207 293.336,155.249 293.365,154.400 292.762 C 153.954 292.445,154.233 292.396,155.489 292.571 C 156.954 292.775,157.143 292.717,156.921 292.137 C 156.748 291.687,156.817 291.563,157.132 291.758 C 157.389 291.917,157.600 291.853,157.600 291.616 C 157.600 291.354,158.032 291.279,158.700 291.425 C 159.547 291.610,159.662 291.567,159.200 291.238 C 158.759 290.925,158.739 290.811,159.124 290.806 C 159.412 290.803,159.556 290.653,159.445 290.472 C 159.333 290.292,159.122 288.627,158.975 286.772 C 158.829 284.918,158.547 282.500,158.351 281.400 C 157.792 278.278,156.878 268.886,156.568 263.076 C 156.402 259.958,156.105 257.683,155.843 257.515 C 155.214 257.109,155.216 218.089,155.845 217.685 C 156.110 217.515,156.409 215.216,156.583 212.000 C 156.910 205.951,158.182 193.902,159.740 182.100 C 159.908 180.830,159.079 180.164,158.709 181.272 C 158.619 181.543,158.254 181.630,157.851 181.475 C 157.465 181.327,157.268 181.013,157.414 180.777 C 157.595 180.484,157.206 180.438,156.182 180.630 C 155.106 180.832,154.764 180.782,154.966 180.455 C 155.121 180.205,155.067 180.000,154.847 180.000 C 154.627 180.000,154.336 180.180,154.200 180.400 C 154.064 180.620,153.593 180.800,153.153 180.800 C 152.701 180.800,152.465 180.619,152.610 180.384 C 152.778 180.112,152.490 180.063,151.774 180.242 C 151.039 180.427,150.768 180.376,150.946 180.087 C 151.280 179.547,149.981 179.119,148.291 179.211 C 146.434 179.312,145.830 179.236,146.127 178.939 C 146.525 178.541,144.316 177.529,143.509 177.740 C 143.119 177.842,142.889 177.780,142.998 177.603 C 143.108 177.425,142.529 177.280,141.712 177.280 C 140.895 177.280,140.161 177.082,140.080 176.840 C 139.881 176.242,138.914 176.283,138.665 176.900 C 138.538 177.214,138.451 177.153,138.432 176.737 C 138.409 176.261,138.158 176.138,137.537 176.300 C 136.909 176.465,136.760 176.388,136.988 176.020 C 137.218 175.647,137.075 175.586,136.440 175.787 C 135.967 175.937,135.606 175.912,135.637 175.730 C 135.784 174.889,135.550 174.400,135.000 174.400 C 134.670 174.400,134.400 174.580,134.400 174.800 C 134.400 175.020,134.201 175.200,133.957 175.200 C 133.714 175.200,133.614 174.939,133.737 174.620 C 133.893 174.213,133.767 174.114,133.314 174.288 C 132.859 174.463,132.762 174.385,132.984 174.025 C 133.221 173.642,133.074 173.586,132.400 173.800 C 131.832 173.980,131.592 173.937,131.749 173.682 C 131.900 173.439,131.450 173.295,130.611 173.319 C 128.996 173.364,128.372 172.931,129.212 172.347 C 129.659 172.035,129.537 171.979,128.700 172.113 C 128.095 172.210,127.600 172.113,127.600 171.898 C 127.600 171.683,127.246 171.599,126.814 171.712 C 126.381 171.825,126.043 171.801,126.061 171.659 C 126.219 170.449,124.671 169.499,123.178 169.890 C 122.554 170.053,122.363 169.983,122.561 169.664 C 122.740 169.373,122.577 169.225,122.123 169.264 C 120.678 169.389,119.600 169.191,119.600 168.800 C 119.600 168.220,121.100 168.308,121.312 168.900 C 121.410 169.175,121.645 169.255,121.834 169.078 C 122.391 168.556,121.093 167.961,119.880 168.183 C 119.104 168.325,118.847 168.248,119.043 167.931 C 119.234 167.621,119.048 167.547,118.462 167.700 C 117.933 167.838,117.696 167.769,117.850 167.520 C 118.006 167.267,117.743 167.204,117.150 167.353 C 116.628 167.485,116.425 167.489,116.700 167.363 C 117.967 166.781,115.159 165.334,113.786 165.861 C 113.297 166.049,113.160 165.989,113.355 165.673 C 113.538 165.377,113.432 165.290,113.063 165.431 C 112.231 165.751,109.320 164.890,109.075 164.252 C 108.961 163.955,108.043 163.504,107.034 163.250 C 106.025 162.996,105.200 162.624,105.200 162.424 C 105.200 162.223,104.885 161.976,104.500 161.876 C 103.877 161.713,103.874 161.688,104.471 161.646 C 104.841 161.621,105.381 161.835,105.671 162.123 C 105.962 162.411,107.060 162.885,108.111 163.178 C 109.162 163.471,110.152 163.932,110.311 164.203 C 110.769 164.983,112.400 165.363,112.400 164.690 C 112.400 164.349,111.454 163.840,110.000 163.400 C 108.680 163.000,107.600 162.561,107.600 162.424 C 107.600 161.749,103.581 161.101,99.617 161.137 C 95.491 161.174,95.291 161.137,95.487 160.388 C 95.626 159.857,95.493 159.600,95.079 159.600 C 94.742 159.600,94.226 159.536,93.933 159.457 C 93.640 159.379,91.510 159.469,89.200 159.657 M94.800 160.400 C 94.800 160.620,94.185 160.800,93.433 160.800 C 92.681 160.800,91.779 160.910,91.428 161.045 C 90.962 161.224,90.857 161.116,91.038 160.645 C 91.316 159.921,94.800 159.694,94.800 160.400 M96.000 160.400 C 96.000 160.620,96.810 160.800,97.800 160.800 C 98.790 160.800,99.600 160.620,99.600 160.400 C 99.600 160.180,98.790 160.000,97.800 160.000 C 96.810 160.000,96.000 160.180,96.000 160.400 M77.000 163.499 C 75.467 164.129,74.400 164.895,74.400 165.363 C 74.400 165.615,76.498 164.744,76.800 164.366 C 76.910 164.229,77.540 163.827,78.200 163.474 C 79.756 162.642,79.050 162.656,77.000 163.499 M72.000 166.725 C 72.000 166.904,71.411 167.282,70.691 167.564 C 69.289 168.114,67.935 170.047,69.179 169.721 C 69.538 169.628,70.004 169.163,70.216 168.688 C 70.427 168.214,71.037 167.725,71.570 167.602 C 72.544 167.377,73.246 166.400,72.433 166.400 C 72.195 166.400,72.000 166.546,72.000 166.725 M67.067 170.267 C 66.606 170.727,66.775 171.200,67.400 171.200 C 67.730 171.200,68.000 170.930,68.000 170.600 C 68.000 169.975,67.527 169.806,67.067 170.267 M125.342 170.994 C 125.473 171.336,125.290 171.444,124.798 171.315 C 124.389 171.209,123.966 170.889,123.858 170.606 C 123.727 170.264,123.910 170.156,124.402 170.285 C 124.811 170.391,125.234 170.711,125.342 170.994 M64.144 173.970 C 63.721 174.317,63.066 175.045,62.688 175.589 C 62.309 176.133,62.000 176.372,62.000 176.120 C 62.000 175.868,62.540 175.122,63.200 174.462 C 63.860 173.802,64.414 173.023,64.432 172.731 C 64.456 172.328,64.517 172.338,64.688 172.770 C 64.812 173.084,64.567 173.624,64.144 173.970 M47.703 192.973 C 47.601 193.508,47.286 194.035,47.004 194.143 C 46.648 194.280,46.558 194.074,46.710 193.470 C 46.882 192.789,47.446 192.061,47.845 192.006 C 47.869 192.003,47.805 192.438,47.703 192.973 M45.300 195.065 C 44.734 195.293,44.612 196.400,45.153 196.400 C 45.348 196.400,45.601 196.040,45.716 195.600 C 45.831 195.160,45.897 194.814,45.863 194.832 C 45.828 194.849,45.575 194.954,45.300 195.065 M39.200 209.600 C 39.200 210.040,39.020 210.400,38.800 210.400 C 38.580 210.400,38.400 210.040,38.400 209.600 C 38.400 209.160,38.580 208.800,38.800 208.800 C 39.020 208.800,39.200 209.160,39.200 209.600 M37.692 213.702 C 37.073 216.290,36.400 217.279,36.400 215.600 C 36.400 215.160,36.580 214.800,36.800 214.800 C 37.020 214.800,37.201 214.575,37.202 214.300 C 37.206 213.563,38.035 210.702,38.198 210.865 C 38.275 210.941,38.047 212.218,37.692 213.702 M40.800 266.600 C 40.800 266.930,41.160 267.560,41.600 268.000 C 42.040 268.440,42.400 268.631,42.400 268.424 C 42.400 268.217,42.220 267.936,42.000 267.800 C 41.780 267.664,41.600 267.203,41.600 266.776 C 41.600 266.349,41.420 266.000,41.200 266.000 C 40.980 266.000,40.800 266.270,40.800 266.600 M47.633 277.292 C 47.555 277.989,48.913 280.758,49.431 280.957 C 50.157 281.235,50.154 281.011,49.422 280.279 C 49.104 279.961,48.578 279.093,48.254 278.350 C 47.930 277.608,47.651 277.131,47.633 277.292 M52.023 282.100 C 52.436 282.595,52.779 283.182,52.787 283.404 C 52.794 283.626,53.160 284.032,53.600 284.307 C 54.040 284.582,54.400 284.977,54.400 285.184 C 54.400 285.721,52.592 283.941,52.283 283.100 C 52.141 282.715,51.749 282.400,51.413 282.400 C 51.076 282.400,50.800 282.130,50.800 281.800 C 50.800 280.965,51.147 281.050,52.023 282.100 M57.200 289.767 C 57.200 290.115,57.485 290.400,57.833 290.400 C 58.540 290.400,58.417 289.539,57.675 289.292 C 57.414 289.205,57.200 289.418,57.200 289.767 M235.200 290.127 C 234.650 290.352,231.839 291.676,228.954 293.068 C 226.069 294.461,223.425 295.600,223.078 295.600 C 222.731 295.600,222.347 295.761,222.226 295.959 C 221.907 296.474,218.801 298.044,218.794 297.694 C 218.791 297.532,218.656 297.605,218.494 297.856 C 218.173 298.353,206.712 304.000,206.023 304.000 C 205.790 304.000,205.600 304.144,205.600 304.321 C 205.600 304.498,204.700 304.966,203.600 305.361 C 202.500 305.757,201.600 306.203,201.600 306.352 C 201.600 306.502,200.700 306.973,199.600 307.400 C 198.500 307.827,197.600 308.316,197.600 308.488 C 197.600 308.660,197.403 308.800,197.162 308.800 C 196.921 308.800,192.708 310.780,187.800 313.200 C 182.892 315.620,178.703 317.600,178.492 317.600 C 178.281 317.600,177.679 317.932,177.154 318.338 C 176.629 318.743,175.345 319.398,174.300 319.792 L 172.400 320.509 172.353 393.554 C 172.327 433.729,172.324 466.729,172.348 466.886 C 172.398 467.223,171.213 466.841,170.500 466.289 C 170.164 466.029,170.000 466.057,170.000 466.375 C 170.000 466.635,169.792 466.719,169.538 466.562 C 169.243 466.379,169.185 466.453,169.378 466.765 C 169.544 467.033,169.781 467.153,169.903 467.030 C 170.026 466.907,170.339 466.983,170.598 467.198 C 170.857 467.414,171.792 467.655,172.675 467.734 C 173.558 467.814,174.442 467.979,174.640 468.101 C 174.838 468.222,175.855 468.450,176.900 468.606 C 177.945 468.763,178.800 469.016,178.800 469.169 C 178.800 469.323,180.825 469.779,183.300 470.183 C 185.775 470.588,187.980 471.049,188.200 471.208 C 188.420 471.368,191.120 471.806,194.200 472.181 C 197.280 472.557,200.160 473.018,200.600 473.206 C 202.384 473.969,223.388 475.218,233.200 475.145 C 236.543 475.121,238.143 474.989,237.400 474.800 L 236.200 474.495 237.300 474.447 L 238.400 474.400 238.400 382.027 L 238.400 289.654 237.300 289.685 C 236.695 289.703,235.750 289.902,235.200 290.127 M65.368 296.100 C 66.348 296.815,67.162 297.625,67.175 297.900 C 67.189 298.175,67.410 298.400,67.667 298.400 C 67.923 298.400,68.039 298.494,67.924 298.609 C 67.551 298.982,66.400 298.331,66.400 297.747 C 66.400 297.435,65.950 297.009,65.400 296.800 C 64.850 296.591,64.400 296.235,64.400 296.010 C 64.400 295.784,64.141 295.600,63.824 295.600 C 63.507 295.600,63.136 295.420,63.000 295.200 C 62.508 294.404,63.623 294.828,65.368 296.100 M115.500 304.500 C 115.409 304.775,115.034 305.058,114.668 305.129 C 114.204 305.219,114.076 305.068,114.244 304.629 C 114.528 303.890,115.745 303.765,115.500 304.500 M79.600 306.200 C 79.600 306.533,79.956 306.800,80.400 306.800 C 81.354 306.800,81.461 306.186,80.567 305.843 C 79.673 305.500,79.600 305.527,79.600 306.200 M169.900 321.893 C 168.379 322.517,168.068 322.948,168.810 323.406 C 169.035 323.545,169.170 323.421,169.110 323.130 C 169.045 322.816,169.437 322.550,170.071 322.476 C 170.660 322.408,171.357 322.093,171.620 321.776 C 172.205 321.071,171.844 321.096,169.900 321.893 M160.300 326.629 C 158.805 327.440,158.896 327.778,160.400 327.000 C 161.060 326.659,161.600 326.294,161.600 326.190 C 161.600 325.932,161.557 325.947,160.300 326.629 " stroke="none" fill="#880b93" fill-rule="evenodd"></path><path id="path4" d="M218.402 0.427 C 209.676 0.856,201.542 1.566,200.600 1.983 C 200.160 2.177,197.280 2.643,194.200 3.019 C 191.120 3.394,188.420 3.843,188.200 4.015 C 187.980 4.188,187.260 4.390,186.600 4.465 C 185.940 4.539,185.433 4.788,185.472 5.017 C 185.512 5.246,185.154 5.463,184.677 5.499 C 183.990 5.551,183.934 5.486,184.405 5.188 C 184.880 4.888,184.819 4.811,184.104 4.806 L 183.208 4.800 183.202 82.335 L 183.196 159.870 184.298 160.422 C 186.089 161.320,186.125 161.328,185.797 160.752 C 185.624 160.448,185.876 160.605,186.357 161.100 C 186.838 161.595,187.590 162.000,188.028 162.000 C 188.466 162.000,188.929 162.270,189.055 162.600 C 189.182 162.930,189.515 163.200,189.796 163.200 C 190.077 163.200,191.746 163.920,193.504 164.800 C 195.262 165.680,196.903 166.400,197.150 166.400 C 197.398 166.400,197.600 166.562,197.600 166.760 C 197.600 166.958,198.500 167.443,199.600 167.839 C 200.700 168.234,201.600 168.684,201.600 168.839 C 201.600 168.993,202.500 169.443,203.600 169.839 C 204.700 170.234,205.600 170.684,205.600 170.839 C 205.600 170.993,206.500 171.443,207.600 171.839 C 208.700 172.234,209.600 172.684,209.600 172.839 C 209.600 172.993,210.500 173.443,211.600 173.839 C 212.700 174.234,213.600 174.702,213.600 174.879 C 213.600 175.056,213.795 175.200,214.033 175.200 C 214.271 175.200,218.817 177.360,224.135 180.000 C 229.453 182.640,234.028 184.800,234.302 184.800 C 234.576 184.800,234.800 184.980,234.800 185.200 C 234.800 185.420,234.991 185.600,235.224 185.600 C 235.660 185.600,242.441 188.832,242.800 189.211 C 242.910 189.327,243.810 189.776,244.800 190.208 C 245.790 190.641,248.470 191.941,250.756 193.097 C 253.042 194.254,255.157 195.200,255.456 195.200 C 255.755 195.200,256.000 195.336,256.000 195.502 C 256.000 195.782,256.546 196.068,259.200 197.179 C 259.750 197.410,260.470 197.780,260.800 198.003 C 261.130 198.226,262.030 198.679,262.800 199.010 C 263.570 199.341,264.470 199.791,264.800 200.010 C 265.130 200.229,266.210 200.776,267.200 201.224 C 268.190 201.672,269.922 202.537,271.050 203.146 C 272.177 203.755,273.977 204.585,275.050 204.990 C 276.122 205.395,277.090 205.842,277.200 205.984 C 277.310 206.125,278.300 206.564,279.400 206.958 C 280.500 207.353,281.940 207.907,282.600 208.191 C 283.260 208.474,284.790 208.941,286.000 209.228 C 287.210 209.516,288.380 209.879,288.600 210.037 C 288.820 210.195,289.720 210.449,290.600 210.602 C 291.480 210.755,292.560 210.948,293.000 211.032 C 293.440 211.116,294.520 211.288,295.400 211.414 C 296.280 211.541,297.219 211.717,297.487 211.805 C 297.755 211.893,298.083 211.790,298.215 211.576 C 298.347 211.362,298.626 211.292,298.834 211.421 C 299.043 211.550,299.101 211.836,298.965 212.057 C 298.828 212.278,299.095 212.222,299.558 211.933 L 300.400 211.408 300.400 110.904 C 300.400 55.627,300.355 10.265,300.300 10.100 C 300.245 9.935,299.885 9.843,299.500 9.895 C 299.115 9.948,298.800 9.843,298.800 9.662 C 298.800 9.481,298.575 9.311,298.300 9.283 C 296.744 9.128,293.906 8.090,294.419 7.864 C 294.738 7.723,294.586 7.711,294.081 7.837 C 293.575 7.963,292.945 7.888,292.681 7.671 C 292.416 7.453,291.030 7.052,289.600 6.780 C 288.170 6.508,286.695 6.130,286.322 5.940 C 285.949 5.751,283.699 5.252,281.322 4.833 C 278.945 4.414,276.550 3.960,276.000 3.825 C 275.450 3.689,272.930 3.304,270.400 2.968 C 267.870 2.633,265.260 2.194,264.600 1.993 C 259.841 0.544,233.912 -0.335,218.402 0.427 M180.977 5.562 C 181.100 5.762,181.561 5.831,182.000 5.716 C 183.101 5.428,183.002 5.200,181.776 5.200 C 181.213 5.200,180.854 5.363,180.977 5.562 M180.653 157.881 C 180.230 158.303,180.367 158.702,181.021 158.953 C 181.426 159.108,181.542 159.030,181.355 158.727 C 181.164 158.418,181.290 158.349,181.734 158.519 C 182.636 158.866,182.579 158.524,181.653 158.028 C 181.242 157.808,180.792 157.742,180.653 157.881 " stroke="none" fill="#b71694" fill-rule="evenodd"></path></g></svg>