<?xml version="1.0" encoding="utf-8"?>
<!-- Generator: Adobe Illustrator 22.0.1, SVG Export Plug-In . SVG Version: 6.00 Build 0)  -->
<svg version="1.1" id="圖層_1" xmlns="http://www.w3.org/2000/svg" xmlns:xlink="http://www.w3.org/1999/xlink" x="0px" y="0px"
	 viewBox="0 0 565.4 203.7" style="enable-background:new 0 0 565.4 203.7;" xml:space="preserve">
<style type="text/css">
	.st0{clip-path:url(#SVGID_2_);fill:url(#SVGID_3_);}
	.st1{clip-path:url(#SVGID_5_);fill:url(#SVGID_6_);}
	.st2{clip-path:url(#SVGID_8_);fill:url(#SVGID_9_);}
	.st3{clip-path:url(#SVGID_11_);fill:url(#SVGID_12_);}
	.st4{clip-path:url(#SVGID_14_);fill:url(#SVGID_15_);}
	.st5{clip-path:url(#SVGID_17_);fill:url(#SVGID_18_);}
	.st6{clip-path:url(#SVGID_20_);fill:url(#SVGID_21_);}
	.st7{clip-path:url(#SVGID_23_);fill:url(#SVGID_24_);}
	.st8{clip-path:url(#SVGID_26_);fill:url(#SVGID_27_);}
	.st9{clip-path:url(#SVGID_29_);fill:url(#SVGID_30_);}
	.st10{clip-path:url(#SVGID_32_);fill:url(#SVGID_33_);}
	.st11{clip-path:url(#SVGID_35_);fill:url(#SVGID_36_);}
	.st12{fill:#EF3F34;}
	.st13{fill:#0074BB;}
</style>
<g>
	<defs>
		<path id="SVGID_1_" d="M130.9,121.2c18-12.8,61.5-34.1,65.7-19.8c4.3,14.7-17.4,28.9-17.4,28.9l23.2-4.4c0,0,20.6-18.8-2.1-35.9
			c-4.1-3.1-8.6-4.4-13.4-4.4C161.9,85.6,130.9,121.2,130.9,121.2"/>
	</defs>
	<clipPath id="SVGID_2_">
		<use xlink:href="#SVGID_1_"  style="overflow:visible;"/>
	</clipPath>
	
		<linearGradient id="SVGID_3_" gradientUnits="userSpaceOnUse" x1="-140.2452" y1="452.4992" x2="-139.2452" y2="452.4992" gradientTransform="matrix(-3.5951 -34.3633 -34.3633 3.5951 15223.6318 -6324.1816)">
		<stop  offset="0" style="stop-color:#005DAC"/>
		<stop  offset="1" style="stop-color:#66CEF6"/>
	</linearGradient>
	<polygon class="st0" points="131.9,139.8 126.3,86.1 222.1,76.1 227.7,129.8 	"/>
</g>
<g>
	<defs>
		<path id="SVGID_4_" d="M202,91.4c0,0-0.4-0.5-1.2-1.1C201.2,90.7,201.6,91,202,91.4 M139.2,112.4c39-34.8,57-25.7,61.6-22.1
			c-3.9-3.4-8.5-4.7-13.4-4.7C166,85.6,139.2,112.4,139.2,112.4"/>
	</defs>
	<clipPath id="SVGID_5_">
		<use xlink:href="#SVGID_4_"  style="overflow:visible;"/>
	</clipPath>
	
		<linearGradient id="SVGID_6_" gradientUnits="userSpaceOnUse" x1="-139.9932" y1="452.6321" x2="-138.9932" y2="452.6321" gradientTransform="matrix(61.9329 -17.9347 -17.9347 -61.9329 16935.3262 25623.8262)">
		<stop  offset="0" style="stop-color:#457EC1"/>
		<stop  offset="1" style="stop-color:#85D4EB"/>
	</linearGradient>
	<polygon class="st1" points="129.9,80.3 197.2,60.8 211.3,109.7 144.1,129.2 	"/>
</g>
<g>
	<defs>
		<path id="SVGID_7_" d="M57,104.6c0,0-17.4,20.8,4.7,37.4c21.6,16.2,74.2-24.1,74.2-24.1c-19.9,10.1-62.9,26.5-69.5,11.9
			c-6.8-14.9,9.3-30.6,9.3-30.6L57,104.6z"/>
	</defs>
	<clipPath id="SVGID_8_">
		<use xlink:href="#SVGID_7_"  style="overflow:visible;"/>
	</clipPath>
	
		<linearGradient id="SVGID_9_" gradientUnits="userSpaceOnUse" x1="-139.7688" y1="452.6309" x2="-138.7688" y2="452.6309" gradientTransform="matrix(3.8115 36.4322 36.4322 -3.8115 -15872.1924 6924.5786)">
		<stop  offset="0" style="stop-color:#005DAC"/>
		<stop  offset="1" style="stop-color:#66CEF6"/>
	</linearGradient>
	<polygon class="st2" points="134.8,89.4 141.9,157.6 40.6,168.2 33.5,99.9 	"/>
</g>
<g>
	<defs>
		<path id="SVGID_10_" d="M80.2,91.4c-12.7,1.3-19.7,7.5-23.4,12.5c-4.4,6-6.5,13.6-5.7,20.9C51,105.3,72.5,100.7,90.5,108
			c15.8,6.5,30.1,17,35.3,19.8c11.4,6.2,19.8,11.3,27.7,14.6c9.2,3.8,17,5.2,24.6,4.4c9.2-1,17.5-4.9,23.5-11.1
			c5-5.2,11-14.3,9.5-28.8c-0.2,17.9-18.2,21.2-28.3,21.5c-19,0.5-27.1-6.8-48.1-19.9C116.3,97.2,99.1,91.2,85,91.2
			C83.3,91.2,81.8,91.2,80.2,91.4"/>
	</defs>
	<clipPath id="SVGID_11_">
		<use xlink:href="#SVGID_10_"  style="overflow:visible;"/>
	</clipPath>
	
		<linearGradient id="SVGID_12_" gradientUnits="userSpaceOnUse" x1="-139.9878" y1="452.6921" x2="-138.9878" y2="452.6921" gradientTransform="matrix(159.9606 -16.735 -16.735 -159.9606 30019.8125 70198.0156)">
		<stop  offset="0" style="stop-color:#69CDEA"/>
		<stop  offset="0.2545" style="stop-color:#0455A5"/>
		<stop  offset="0.5498" style="stop-color:#457EC1"/>
		<stop  offset="0.5885" style="stop-color:#4E92CB"/>
		<stop  offset="0.6406" style="stop-color:#59AAD8"/>
		<stop  offset="0.6894" style="stop-color:#62BBE1"/>
		<stop  offset="0.733" style="stop-color:#68C7E7"/>
		<stop  offset="0.7672" style="stop-color:#69CDEA"/>
		<stop  offset="1" style="stop-color:#0455A5"/>
	</linearGradient>
	<polygon class="st3" points="44.5,91.8 210.8,74.4 218.4,147.1 52.1,164.5 	"/>
</g>
<g>
	<defs>
		<path id="SVGID_13_" d="M148.2,117.9l1.8,1.2c1.2,0.8,2.4,1.6,3.7,2.4c2.5,1.5,5,3,7.5,4.4c5.1,2.8,10.4,5.3,16,7
			c2.8,0.9,5.7,1.5,8.6,1.9c2.9,0.3,5.9,0.4,8.8-0.2c1.4-0.3,2.9-0.7,4.2-1.2c1.4-0.6,2.7-1.3,3.9-2.1c2.4-1.7,4.4-3.9,5.9-6.4
			c-0.4,0.6-0.9,1.2-1.3,1.7c-0.5,0.6-0.9,1.1-1.5,1.6c-1,1-2.1,1.9-3.3,2.7c-2.4,1.6-5.2,2.6-8,3.1c-2.8,0.5-5.7,0.4-8.6,0.1
			c-2.9-0.4-5.7-1-8.4-1.9c-2.8-0.8-5.5-1.9-8.1-3c-2.7-1.1-5.3-2.4-7.8-3.8c-2.6-1.3-5.1-2.8-7.6-4.2c-1.3-0.7-2.5-1.5-3.7-2.2
			L148.2,117.9l-1.8-1.2L148.2,117.9z"/>
	</defs>
	<clipPath id="SVGID_14_">
		<use xlink:href="#SVGID_13_"  style="overflow:visible;"/>
	</clipPath>
	
		<linearGradient id="SVGID_15_" gradientUnits="userSpaceOnUse" x1="-139.9678" y1="452.5932" x2="-138.9678" y2="452.5932" gradientTransform="matrix(60.5766 -6.3375 -6.3375 -60.5766 11494.7979 26658.5)">
		<stop  offset="0" style="stop-color:#457EC1"/>
		<stop  offset="9.611651e-02" style="stop-color:#4E92CB"/>
		<stop  offset="0.2253" style="stop-color:#59AAD8"/>
		<stop  offset="0.3463" style="stop-color:#62BBE1"/>
		<stop  offset="0.4545" style="stop-color:#68C7E7"/>
		<stop  offset="0.5394" style="stop-color:#69CDEA"/>
		<stop  offset="1" style="stop-color:#457EC1"/>
	</linearGradient>
	<polygon class="st4" points="144.5,116.9 207.9,110.2 210.4,134.9 147.1,141.6 	"/>
</g>
<g>
	<defs>
		<path id="SVGID_16_" d="M83.6,87.1c-9.2,1-17.5,4.9-23.5,11.1c-5,5.2-11.7,14.8-9.2,28.9c0.2-17.9,18.3-23.7,28.4-22.5
			c18,2.1,26.7,7.7,47.7,20.8c20.4,12.8,39.5,18.8,54.4,17.3c12.7-1.3,19.7-7.5,23.4-12.5c4.4-6,6.9-15.6,6.2-23
			c0.2,19.5-21.9,26.2-39.8,18.9c-15.8-6.5-30.1-17-35.3-19.8c-11.4-6.2-19.8-11.3-27.7-14.6c-7.5-3.1-14.2-4.6-20.5-4.6
			C86.4,86.8,85,86.9,83.6,87.1"/>
	</defs>
	<clipPath id="SVGID_17_">
		<use xlink:href="#SVGID_16_"  style="overflow:visible;"/>
	</clipPath>
	
		<linearGradient id="SVGID_18_" gradientUnits="userSpaceOnUse" x1="-140.0122" y1="452.8031" x2="-139.0122" y2="452.8031" gradientTransform="matrix(-160.4003 16.781 16.781 160.4003 -29845.5176 -70173.2031)">
		<stop  offset="0" style="stop-color:#66CEF6"/>
		<stop  offset="0.2545" style="stop-color:#005DAC"/>
		<stop  offset="0.5498" style="stop-color:#378CCB"/>
		<stop  offset="0.5581" style="stop-color:#3A90CE"/>
		<stop  offset="0.6191" style="stop-color:#4DA8DE"/>
		<stop  offset="0.6761" style="stop-color:#5BBBEA"/>
		<stop  offset="0.7272" style="stop-color:#64C8F2"/>
		<stop  offset="0.7672" style="stop-color:#66CEF6"/>
		<stop  offset="0.9996" style="stop-color:#005DAC"/>
		<stop  offset="1" style="stop-color:#005DAC"/>
	</linearGradient>
	<polygon class="st5" points="217.7,143.5 50.3,161 42.6,87.5 210,69.9 	"/>
</g>
<g>
	<defs>
		<path id="SVGID_19_" d="M210.8,109.6c-0.1,0.9-0.2,1.7-0.4,2.6c-0.4,1.7-0.9,3.3-1.7,4.9c-0.8,1.5-1.7,2.9-2.9,4.2
			c-1.1,1.2-2.4,2.3-3.8,3.2c-2.8,1.8-6,2.9-9.2,3.5c-3.2,0.6-6.5,0.7-9.8,0.4c-3.3-0.3-6.5-1-9.6-2.1c-0.8-0.3-1.5-0.5-2.3-0.8
			c-0.8-0.3-1.5-0.6-2.3-0.9c-1.5-0.6-3-1.3-4.5-2c-3-1.4-5.9-2.9-8.8-4.5c-1.5-0.8-2.9-1.6-4.3-2.4l-2.1-1.2l-2.1-1.2l2.1,1.3
			c0.7,0.4,1.4,0.9,2.1,1.3c1.4,0.9,2.8,1.7,4.2,2.6c2.9,1.7,5.8,3.2,8.7,4.7c1.5,0.7,3,1.4,4.5,2.1c0.8,0.3,1.5,0.7,2.3,1
			c0.8,0.3,1.5,0.6,2.3,0.9c3.1,1.1,6.4,1.8,9.7,2.1c3.3,0.3,6.7,0.2,10-0.4c1.7-0.3,3.3-0.8,4.9-1.4c1.6-0.6,3.1-1.4,4.5-2.3
			c1.4-1,2.7-2.1,3.9-3.4c1.1-1.3,2.1-2.8,2.8-4.4c0.7-1.6,1.2-3.3,1.6-5c0.2-0.9,0.3-1.7,0.3-2.6c0.1-0.9,0.1-1.7,0-2.6
			C211,107.9,210.9,108.8,210.8,109.6"/>
	</defs>
	<clipPath id="SVGID_20_">
		<use xlink:href="#SVGID_19_"  style="overflow:visible;"/>
	</clipPath>
	
		<linearGradient id="SVGID_21_" gradientUnits="userSpaceOnUse" x1="-140.031" y1="452.855" x2="-139.031" y2="452.855" gradientTransform="matrix(-63.7121 8.9436 6.9312 66.2267 -11848.8008 -28625.0957)">
		<stop  offset="0" style="stop-color:#81D3ED"/>
		<stop  offset="1" style="stop-color:#0455A5"/>
	</linearGradient>
	<polygon class="st6" points="213.3,129.1 147.9,138.3 144.6,107.4 210.1,98.2 	"/>
</g>
<g>
	<defs>
		<path id="SVGID_22_" d="M114.7,47.8c-7.3,2.9-14.2,6.6-18.8,12.3c-4.4,5.4-7,13.5-8.1,20.4c0,0,14.2-16.4,32.5-22.1
			c13.6-4.2,28.9-2,40.4,7.7c9.2,7.8,13.1,15.7,13.1,15.7c-5.9-26.4-28.2-36.4-45.7-36.4C123.1,45.5,118.5,46.3,114.7,47.8"/>
	</defs>
	<clipPath id="SVGID_23_">
		<use xlink:href="#SVGID_22_"  style="overflow:visible;"/>
	</clipPath>
	
		<linearGradient id="SVGID_24_" gradientUnits="userSpaceOnUse" x1="-140.0326" y1="452.7" x2="-139.0326" y2="452.7" gradientTransform="matrix(72.1259 -25.0995 -39.6321 -56.596 28128.1973 22185.2773)">
		<stop  offset="0" style="stop-color:#457EC1"/>
		<stop  offset="1" style="stop-color:#85D4EB"/>
	</linearGradient>
	<polygon class="st7" points="67.4,52.6 157,21.4 194.4,74.8 104.7,106 	"/>
</g>
<g>
	<defs>
		<path id="SVGID_25_" d="M114.3,48.7c-7.3,2.9-13.7,6.7-18.3,12.4c-4.4,5.4-7,12.5-8.1,19.4c0,0,13.7-17,32-22.6
			c13.6-4.2,29.5-1.5,40.9,8.3c9.2,7.8,13.1,15.7,13.1,15.7c-5.9-26.8-27.1-35.8-44.4-35.8C123.7,46.1,118.4,47.1,114.3,48.7"/>
	</defs>
	<clipPath id="SVGID_26_">
		<use xlink:href="#SVGID_25_"  style="overflow:visible;"/>
	</clipPath>
	
		<linearGradient id="SVGID_27_" gradientUnits="userSpaceOnUse" x1="-139.9638" y1="452.8249" x2="-138.9638" y2="452.8249" gradientTransform="matrix(-53.4721 16.1422 26.0924 41.7485 -19152.0605 -16586.4395)">
		<stop  offset="0" style="stop-color:#66CEF6"/>
		<stop  offset="6.820440e-04" style="stop-color:#66CEF6"/>
		<stop  offset="0.3855" style="stop-color:#457FC1"/>
		<stop  offset="0.4917" style="stop-color:#417CBF"/>
		<stop  offset="0.61" style="stop-color:#3274BA"/>
		<stop  offset="0.7338" style="stop-color:#0F67B2"/>
		<stop  offset="0.8188" style="stop-color:#005DAC"/>
		<stop  offset="1" style="stop-color:#005DAC"/>
	</linearGradient>
	<polygon class="st8" points="192.7,76.2 101.5,103.7 69,51.8 160.2,24.2 	"/>
</g>
<g>
	<defs>
		<path id="SVGID_28_" d="M126.7,45.4c-3.5,0.2-6.9,0.7-10.1,1.7c3.3-0.8,6.7-1.1,10.2-1.2c1.7,0,3.4,0,5.1,0.2
			c1.7,0.1,3.4,0.4,5.1,0.7c3.3,0.6,6.6,1.5,9.7,2.7c3.1,1.2,6,2.7,8.6,4.4c2.6,1.7,5,3.7,7.1,5.8c1,1.1,2,2.2,2.9,3.3
			c0.9,1.1,1.7,2.3,2.5,3.5c3,4.8,5,10,6.2,15.3c-0.7-5.4-2.3-10.7-5.2-15.7c-1.4-2.5-3.2-4.9-5.3-7.1c-2.1-2.2-4.5-4.2-7.2-6
			c-2.7-1.8-5.7-3.3-8.9-4.5c-3.2-1.2-6.6-2.1-10-2.6c-2.6-0.4-5.2-0.6-7.9-0.6C128.4,45.4,127.5,45.4,126.7,45.4"/>
	</defs>
	<clipPath id="SVGID_29_">
		<use xlink:href="#SVGID_28_"  style="overflow:visible;"/>
	</clipPath>
	
		<linearGradient id="SVGID_30_" gradientUnits="userSpaceOnUse" x1="-140.1492" y1="452.9757" x2="-139.1492" y2="452.9757" gradientTransform="matrix(-52.2334 -31.2397 -48.4374 34.7918 14793.2461 -20057.9492)">
		<stop  offset="0" style="stop-color:#457EC1"/>
		<stop  offset="1" style="stop-color:#85D4EB"/>
	</linearGradient>
	<polygon class="st9" points="147.8,100.6 88.8,65.3 142.6,26.7 201.6,62 	"/>
</g>
<g>
	<defs>
		<path id="SVGID_31_" d="M72.8,104.3c-1.8,0.3-3.6,0.6-5.4,1.2c-1.8,0.5-3.5,1.2-5.1,2.1c-1.6,0.9-3.2,1.9-4.6,3.2
			c-1.4,1.2-2.6,2.6-3.5,4.2c-1,1.5-1.7,3.2-2.2,4.8c-0.3,0.8-0.5,1.7-0.6,2.5c-0.2,0.8-0.3,1.7-0.3,2.5c0.1-0.8,0.3-1.7,0.5-2.5
			c0.2-0.8,0.4-1.7,0.7-2.5c0.6-1.6,1.4-3.2,2.4-4.7c1-1.5,2.2-2.8,3.6-4c1.4-1.2,2.9-2.2,4.5-3c3.2-1.7,6.8-2.7,10.3-3.1
			c3.5-0.5,7.1-0.4,10.5,0c3.5,0.4,6.8,1.2,10,2.4c0.8,0.3,1.6,0.6,2.4,0.9c0.8,0.3,1.6,0.7,2.3,1c1.5,0.7,3.1,1.4,4.6,2.1
			c3,1.5,6,3.1,8.9,4.7c1.5,0.8,2.9,1.7,4.4,2.5l2.2,1.3l2.2,1.3l-2.1-1.4c-0.7-0.5-1.4-0.9-2.1-1.4c-1.4-0.9-2.8-1.8-4.3-2.7
			c-2.9-1.7-5.8-3.4-8.8-4.9c-1.5-0.8-3-1.5-4.6-2.2c-0.8-0.4-1.6-0.7-2.3-1c-0.8-0.3-1.6-0.7-2.4-0.9c-3.2-1.2-6.7-2-10.2-2.4
			c-1.8-0.2-3.5-0.3-5.3-0.3C76.5,104,74.7,104.1,72.8,104.3"/>
	</defs>
	<clipPath id="SVGID_32_">
		<use xlink:href="#SVGID_31_"  style="overflow:visible;"/>
	</clipPath>
	
		<linearGradient id="SVGID_33_" gradientUnits="userSpaceOnUse" x1="-139.9595" y1="452.6077" x2="-138.9588" y2="452.6077" gradientTransform="matrix(69.3304 -6.4437 0.124 -65.0167 9698.3398 28642.8281)">
		<stop  offset="0" style="stop-color:#005DAC"/>
		<stop  offset="1" style="stop-color:#66CEF6"/>
	</linearGradient>
	<polygon class="st10" points="51,104 120.4,97.5 120.3,124.8 51,131.3 	"/>
</g>
<g>
	<defs>
		<path id="SVGID_34_" d="M58.7,139.3c0,0,12.5,20.3,61.3-10.8C109.1,135.4,75.2,154.4,58.7,139.3 M120.1,128.5
			c2.2-1.4,3.5-2.3,3.5-2.3C122.4,127,121.2,127.7,120.1,128.5"/>
	</defs>
	<clipPath id="SVGID_35_">
		<use xlink:href="#SVGID_34_"  style="overflow:visible;"/>
	</clipPath>
	
		<linearGradient id="SVGID_36_" gradientUnits="userSpaceOnUse" x1="-140.0068" y1="452.98" x2="-139.0068" y2="452.98" gradientTransform="matrix(-61.7569 17.8838 17.8838 61.7569 -16632.0566 -25334.877)">
		<stop  offset="0" style="stop-color:#457EC1"/>
		<stop  offset="1" style="stop-color:#85D4EB"/>
	</linearGradient>
	<polygon class="st11" points="132.5,157 63.8,176.9 49.8,128.8 118.6,108.8 	"/>
</g>
<g>
	<path class="st12" d="M265.3,138.2l-19.6-0.1c-3.2,0-5.7-2.6-5.7-5.7V87.5c0-3.2,2.6-5.7,5.7-5.7h19.6c1.7,0,3.1,1.5,3.1,3.2
		c0,1.8-1.5,3.3-3.1,3.3h-17c-0.7,0-1.2,0.5-1.2,1.2v12c0,0.6,0.5,1.1,1.2,1.1h14.5c1.8,0,3.2,1.5,3.2,3.3c0,1.8-1.4,3.3-3.2,3.3
		h-14.5c-0.7,0-1.2,0.5-1.2,1.1v20c0,0.6,0.5,1.1,1.2,1.1h17c1.7,0,3.1,1.5,3.1,3.3C268.4,136.7,266.9,138.2,265.3,138.2"/>
	<path class="st12" d="M296.1,137.9h-12.6c-0.7,0-1.2,0.5-1.2,1.2V154c0,1.9-1.5,3.5-3.5,3.5c-1.9,0-3.4-1.6-3.4-3.5v-51.5
		c0-3.2,2.5-5.7,5.6-5.7h16.8c3.2,0,5.7,2.5,5.7,5.7v27.8C303.7,134.5,300.3,137.9,296.1,137.9 M282.4,104.3v26.2
		c0,0.7,0.5,1.2,1.2,1.2h12.2c0.6,0,1.1-0.5,1.1-1.2v-26.2c0-0.7-0.5-1.2-1.1-1.2h-12.2C282.9,103.2,282.4,103.7,282.4,104.3"/>
	<path class="st12" d="M319.8,90.1c0,1.8-1.4,3.3-3.2,3.3h-0.5c-1.7,0-3.2-1.5-3.2-3.3c0-1.7,1.4-3.2,3.2-3.2h0.5
		C318.4,86.9,319.8,88.4,319.8,90.1 M319.8,100.4v34.2c0,1.9-1.5,3.5-3.4,3.5c-1.9,0-3.4-1.6-3.4-3.5v-34.2c0-1.8,1.5-3.4,3.4-3.4
		C318.3,97,319.8,98.6,319.8,100.4"/>
	<path class="st13" d="M396.8,138c-1.9,0-3.4-1.6-3.4-3.5V86.4c0-1.9,1.5-3.5,3.4-3.5c1.9,0,3.4,1.6,3.4,3.5v48.1
		C400.2,136.4,398.7,138,396.8,138"/>
	<path class="st13" d="M430.9,138h-15.7c-3.2,0-5.7-2.6-5.7-5.7v-29.7c0-3.2,2.5-5.7,5.7-5.7h17.6c2.9,1.1,5.6,2.5,5.6,5.7v27.8
		C438.4,134.6,435.1,138,430.9,138 M415.9,104.6v25.7c0,0.6,0.5,1.1,1.1,1.1h13.7c0.7,0,1.2-0.5,1.2-1.1v-25.7
		c0-0.6-0.5-1.2-1.2-1.2H417C416.5,103.4,415.9,104,415.9,104.6"/>
	<path class="st13" d="M453.4,138c-3.1,0-5.6-2.6-5.6-5.7v-32.2c0-1.7,1.3-3.2,3.1-3.2c1.8,0,3.2,1.4,3.2,3.2v30.2
		c0,0.7,0.5,1.1,1.1,1.1H469c0.7,0,1.2-0.4,1.2-1.1v-30.1c0-1.7,1.5-3.2,3.3-3.2c1.8,0,3.2,1.5,3.2,3.2v30.3c0,4.1-3.3,7.6-7.5,7.6
		H453.4z"/>
	<path class="st13" d="M506.7,138h-15c-3.2,0-5.6-2.6-5.6-5.7v-29.7c0-3.2,2.5-5.6,5.6-5.6h14.4c0.7,0,1.2-0.5,1.2-1.2v-9.4
		c0-2,1.6-3.5,3.5-3.5c1.9,0,3.5,1.5,3.5,3.5v44C514.3,134.6,510.9,138,506.7,138 M492.8,104.4v26.2c0,0.7,0.5,1.2,1.1,1.2h12.2
		c0.7,0,1.2-0.5,1.2-1.2v-26.2c0-0.7-0.5-1.2-1.2-1.2h-12.2C493.3,103.2,492.8,103.7,492.8,104.4"/>
	<path class="st12" d="M365.8,102.6c-2.1-1-4.1-1.5-6.3-1.5c-1.4,0-2.7,0.2-4,0.6c0.8,0.2,1.6,0.5,2.4,0.9c2,1,3.8,2.3,5.1,3.9h7.8
		v0C369.6,104.9,367.9,103.6,365.8,102.6"/>
	<path class="st12" d="M357.6,129.4c-0.6,0.3-1.3,0.5-2,0.7c1.3,0.4,2.6,0.6,4,0.6c2.1,0,4-0.4,5.9-1.3c1.9-0.9,3.5-2.1,5.1-3.7
		h-7.8C361.2,127.3,359.5,128.5,357.6,129.4"/>
	<path class="st12" d="M337.3,115.8v-0.2c0.1-6,2.2-11.2,6.5-15.6c3.4-3.4,7.3-5.5,11.7-6.3c-1.3-0.2-2.6-0.3-4-0.3
		c-6,0-11.2,2.2-15.6,6.6c-4.3,4.3-6.5,9.5-6.6,15.6h0c0,0.1,0,0.2,0,0.2c0,6.2,2.2,11.5,6.6,16c4.4,4.5,9.7,6.7,15.8,6.7
		c1.3,0,2.6-0.1,3.9-0.3c-4.5-0.8-8.4-2.9-11.9-6.3C339.5,127.3,337.3,122,337.3,115.8"/>
	<path class="st13" d="M384.3,106.5h-9.1c-1.4-1.6-3.1-2.9-5.1-3.9c-2-1-4.1-1.5-6.3-1.5c-3.9,0-7.2,1.5-10,4.4
		c-2.8,2.9-4.2,6.5-4.2,10.5c0,3.9,1.4,7.3,4.2,10.2c2.8,2.9,6.2,4.4,10,4.4c2.1,0,4-0.4,5.9-1.3c1.9-0.9,3.5-2.1,5.1-3.7h9.3
		c-1.6,3.9-4.3,7-8,9.3c-3.8,2.3-7.8,3.5-12.1,3.5c-6.2,0-11.4-2.2-15.8-6.7c-4.4-4.5-6.6-9.8-6.6-16c0-6.2,2.2-11.4,6.6-15.8
		c4.4-4.4,9.6-6.6,15.6-6.6c4.4,0,8.6,1.2,12.4,3.6C380,99.3,382.7,102.5,384.3,106.5"/>
</g>
</svg>
