<?xml version="1.0" encoding="UTF-8"?>
<!DOCTYPE svg PUBLIC "-//W3C//DTD SVG 1.1//EN" "http://www.w3.org/Graphics/SVG/1.1/DTD/svg11.dtd">
<svg xmlns="http://www.w3.org/2000/svg" version="1.1" width="4267px" height="4267px" style="shape-rendering:geometricPrecision; text-rendering:geometricPrecision; image-rendering:optimizeQuality; fill-rule:evenodd; clip-rule:evenodd" xmlns:xlink="http://www.w3.org/1999/xlink">
<g><path style="opacity:0.998" fill="#019fe8" d="M 2090.5,232.5 C 2471.29,226.404 2822.95,323.57 3145.5,524C 3453.08,720.569 3686.91,982.736 3847,1310.5C 3997.06,1627.84 4056.39,1961.5 4025,2311.5C 3983.85,2717.27 3831.19,3073.61 3567,3380.5C 3310.57,3671.9 2994.07,3868.74 2617.5,3971C 2310.06,4049.99 2001.73,4053.66 1692.5,3982C 1321.02,3890.76 1004.86,3706.93 744,3430.5C 479.156,3144.44 315.822,2807.44 254,2419.5C 204.686,2083.99 240.686,1757.99 362,1441.5C 502.838,1088.36 727.671,801.19 1036.5,580C 1352.54,359.602 1703.87,243.769 2090.5,232.5 Z"/></g>
<g><path style="opacity:1" fill="#fefefe" d="M 2079.5,345.5 C 2431.94,336.928 2758.94,423.094 3060.5,604C 3396.11,811.623 3639.61,1097.79 3791,1462.5C 3920.29,1788.76 3952.96,2124.76 3889,2470.5C 3861.13,2613.76 3816.63,2751.6 3755.5,2884C 2673.6,2884.83 1591.76,2884.67 510,2883.5C 386.047,2612.31 332.047,2327.64 348,2029.5C 372.591,1645.24 504.924,1303.9 745,1005.5C 971.63,730.178 1255.13,537.345 1595.5,427C 1753.2,378.106 1914.53,350.939 2079.5,345.5 Z"/></g>
<g><path style="opacity:1" fill="#019fe8" d="M 1306.5,2772.5 C 1305.08,2773.45 1303.41,2773.78 1301.5,2773.5C 1107.88,2745.78 944.046,2661.45 810,2520.5C 664.337,2361.05 590.837,2172.71 589.5,1955.5C 591.873,1741.31 650.373,1543.97 765,1363.5C 886.364,1175.13 1048.86,1034.3 1252.5,941C 1425.84,864.166 1606.84,835.5 1795.5,855C 2057.16,891.387 2273.99,1008.89 2446,1207.5C 2541.38,1320.89 2609.04,1449.56 2649,1593.5C 2793.65,1530.06 2938.48,1529.56 3083.5,1592C 3225.56,1659.39 3320.73,1767.89 3369,1917.5C 3377.94,1947.22 3383.94,1977.55 3387,2008.5C 3388.8,2034.81 3390.13,2061.14 3391,2087.5C 3403.43,2170.25 3445.93,2232.09 3518.5,2273C 3579.72,2304.13 3643.06,2309.13 3708.5,2288C 3789.85,2256.97 3842.35,2199.47 3866,2115.5C 3863.97,2211.72 3825.14,2289.22 3749.5,2348C 3668.58,2405.82 3579.91,2421.82 3483.5,2396C 3374.14,2358.97 3305.31,2284.47 3277,2172.5C 3271.48,2139.07 3268.81,2105.41 3269,2071.5C 3254.57,1958.74 3201.4,1869.57 3109.5,1804C 3017.41,1743.21 2917.41,1724.88 2809.5,1749C 2692.37,1780.81 2608.2,1851.64 2557,1961.5C 2538.16,2005.53 2527.83,2051.53 2526,2099.5C 2518.05,1840.17 2419.55,1622.67 2230.5,1447C 2044.91,1283.79 1827.91,1207.46 1579.5,1218C 1345.73,1235.15 1147.56,1327.32 985,1494.5C 808.067,1685.27 726.733,1911.27 741,2172.5C 763.261,2368.26 851.761,2526.09 1006.5,2646C 1095.84,2712.74 1195.84,2754.91 1306.5,2772.5 Z"/></g>
<g><path style="opacity:1" fill="#0475c0" d="M 1371.5,2779.5 C 1354.92,2777.88 1338.25,2775.88 1321.5,2773.5C 1172.02,2747.54 1051.52,2674.54 960,2554.5C 858.744,2412.19 827.744,2255.53 867,2084.5C 905.624,1942.65 986.124,1831.49 1108.5,1751C 1236.06,1671.82 1373.73,1646.49 1521.5,1675C 1690,1713.22 1816.5,1807.38 1901,1957.5C 1962.68,2074.94 1981.35,2198.94 1957,2329.5C 1926.17,2474.73 1851,2590.9 1731.5,2678C 1623.36,2753.01 1503.36,2786.85 1371.5,2779.5 Z"/></g>
<g><path style="opacity:1" fill="#fdef03" d="M 1391.5,1752.5 C 1463.97,1750.21 1533.3,1763.71 1599.5,1793C 1521.27,1816.86 1450.1,1853.69 1386,1903.5C 1348.3,1863.29 1318.46,1817.79 1296.5,1767C 1309.89,1762.99 1323.55,1759.99 1337.5,1758C 1355.63,1755.95 1373.63,1754.12 1391.5,1752.5 Z"/></g>
<g><path style="opacity:1" fill="#feef01" d="M 1279.5,1770.5 C 1280.55,1770.35 1281.55,1770.52 1282.5,1771C 1280.91,1771.86 1279.25,1772.53 1277.5,1773C 1276.48,1774.05 1276.32,1775.22 1277,1776.5C 1299.73,1828.83 1330.57,1875.67 1369.5,1917C 1304.33,1972.08 1252.33,2037.41 1213.5,2113C 1212.5,2113.67 1211.5,2113.67 1210.5,2113C 1137.41,2077.62 1064.41,2041.95 991.5,2006C 1044.89,1906.28 1123.56,1833.94 1227.5,1789C 1244.76,1782.3 1262.1,1776.14 1279.5,1770.5 Z"/></g>
<g><path style="opacity:1" fill="#feef02" d="M 1629.5,1807.5 C 1714.17,1852.67 1779,1917.67 1824,2002.5C 1829.01,2011.51 1833.17,2020.84 1836.5,2030.5C 1782.96,2044.03 1728.63,2048.7 1673.5,2044.5C 1673.99,1962.63 1659.33,1883.63 1629.5,1807.5 Z"/></g>
<g><path style="opacity:1" fill="#fdef03" d="M 1592.5,1817.5 C 1593.04,1817.56 1593.38,1817.89 1593.5,1818.5C 1564.92,1877.32 1536.09,1935.99 1507,1994.5C 1468.49,1973.99 1433.32,1948.82 1401.5,1919C 1459.07,1874.21 1522.74,1840.37 1592.5,1817.5 Z"/></g>
<g><path style="opacity:1" fill="#fdef05" d="M 1612.5,1827.5 C 1614.28,1828.57 1615.45,1830.24 1616,1832.5C 1639.83,1900.11 1651.99,1969.78 1652.5,2041.5C 1616.04,2036.18 1580.7,2026.68 1546.5,2013C 1539.82,2010.33 1533.49,2007.16 1527.5,2003.5C 1556.38,1945.08 1584.71,1886.41 1612.5,1827.5 Z"/></g>
<g><path style="opacity:1" fill="#feef01" d="M 1383.5,1932.5 C 1417.35,1964.49 1455.02,1991.32 1496.5,2013C 1497.02,2013.56 1497.36,2014.23 1497.5,2015C 1466.64,2078.56 1435.64,2142.06 1404.5,2205.5C 1403.83,2205.83 1403.17,2206.17 1402.5,2206.5C 1345.89,2178.93 1289.22,2151.27 1232.5,2123.5C 1270.47,2050.18 1320.81,1986.51 1383.5,1932.5 Z"/></g>
<g><path style="opacity:1" fill="#feef01" d="M 1517.5,2023.5 C 1560.25,2043.02 1604.91,2056.02 1651.5,2062.5C 1649.29,2146 1630.13,2225.33 1594,2300.5C 1537.12,2272.64 1480.29,2244.64 1423.5,2216.5C 1455.13,2152.23 1486.47,2087.9 1517.5,2023.5 Z"/></g>
<g><path style="opacity:1" fill="#f8bd01" d="M 973.5,2394.5 C 973.5,2395.17 973.167,2395.5 972.5,2395.5C 930.928,2285.95 928.761,2175.62 966,2064.5C 970.625,2051.12 976.125,2038.12 982.5,2025.5C 1056.17,2061.67 1129.83,2097.83 1203.5,2134C 1167.25,2211.08 1147.58,2292.25 1144.5,2377.5C 1089.37,2372.79 1035.04,2377.29 981.5,2391C 978.428,2391.58 975.761,2392.75 973.5,2394.5 Z"/></g>
<g><path style="opacity:1" fill="#8eb85a" d="M 1845.5,2049.5 C 1845.17,2049.5 1844.83,2049.5 1844.5,2049.5C 1843.09,2047.77 1842.59,2045.77 1843,2043.5C 1843.94,2045.49 1844.77,2047.49 1845.5,2049.5 Z"/></g>
<g><path style="opacity:1" fill="#feef01" d="M 1844.5,2049.5 C 1844.83,2049.5 1845.17,2049.5 1845.5,2049.5C 1892.05,2173.36 1889.05,2296.02 1836.5,2417.5C 1772.44,2386.97 1708.44,2356.14 1644.5,2325C 1634.19,2320.18 1624.19,2314.84 1614.5,2309C 1650.06,2231.68 1669.4,2150.51 1672.5,2065.5C 1721.22,2069.44 1769.55,2066.6 1817.5,2057C 1826.92,2055.55 1835.92,2053.05 1844.5,2049.5 Z"/></g>
<g><path style="opacity:1" fill="#f8bd02" d="M 1222.5,2143.5 C 1279.9,2171.03 1337.24,2198.87 1394.5,2227C 1362.93,2291.31 1331.26,2355.48 1299.5,2419.5C 1256.73,2400.52 1212.23,2387.52 1166,2380.5C 1169.26,2297.81 1188.09,2218.81 1222.5,2143.5 Z"/></g>
<g><path style="opacity:1" fill="#0275c1" d="M 2356.5,2147.5 C 2390.5,2147.5 2424.5,2147.5 2458.5,2147.5C 2458.5,2173.83 2458.5,2200.17 2458.5,2226.5C 2421.5,2226.33 2384.5,2226.5 2347.5,2227C 2300.74,2234.65 2275.58,2262.15 2272,2309.5C 2271.5,2330.5 2271.33,2351.5 2271.5,2372.5C 2333.83,2372.5 2396.17,2372.5 2458.5,2372.5C 2458.5,2398.5 2458.5,2424.5 2458.5,2450.5C 2396.17,2450.5 2333.83,2450.5 2271.5,2450.5C 2271.5,2525.17 2271.5,2599.83 2271.5,2674.5C 2244.5,2674.5 2217.5,2674.5 2190.5,2674.5C 2190.33,2552.17 2190.5,2429.83 2191,2307.5C 2192.48,2271.72 2203.15,2239.05 2223,2209.5C 2243.21,2183.33 2269.37,2165.83 2301.5,2157C 2319.68,2152.1 2338.01,2148.93 2356.5,2147.5 Z"/></g>
<g><path style="opacity:1" fill="#0275c1" d="M 2528.5,2147.5 C 2643.5,2147.5 2758.5,2147.5 2873.5,2147.5C 2873.5,2173.83 2873.5,2200.17 2873.5,2226.5C 2829.83,2226.5 2786.17,2226.5 2742.5,2226.5C 2742.5,2375.83 2742.5,2525.17 2742.5,2674.5C 2714.83,2674.5 2687.17,2674.5 2659.5,2674.5C 2659.5,2525.17 2659.5,2375.83 2659.5,2226.5C 2615.83,2226.5 2572.17,2226.5 2528.5,2226.5C 2528.5,2200.17 2528.5,2173.83 2528.5,2147.5 Z"/></g>
<g><path style="opacity:1" fill="#77b4dd" d="M 3035.5,2148.5 C 3008.17,2148.5 2980.83,2148.5 2953.5,2148.5C 2953.5,2267.83 2953.5,2387.17 2953.5,2506.5C 2952.5,2387 2952.17,2267.33 2952.5,2147.5C 2980.34,2147.17 3008.01,2147.5 3035.5,2148.5 Z"/></g>
<g><path style="opacity:1" fill="#0175c1" d="M 3035.5,2148.5 C 3035.33,2269.5 3035.5,2390.5 3036,2511.5C 3040.01,2559.84 3065.85,2588.01 3113.5,2596C 3152.5,2596.5 3191.5,2596.67 3230.5,2596.5C 3230.5,2622.5 3230.5,2648.5 3230.5,2674.5C 3192.83,2674.67 3155.17,2674.5 3117.5,2674C 3013.12,2666.79 2958.45,2610.95 2953.5,2506.5C 2953.5,2387.17 2953.5,2267.83 2953.5,2148.5C 2980.83,2148.5 3008.17,2148.5 3035.5,2148.5 Z"/></g>
<g><path style="opacity:1" fill="#f8bd01" d="M 1413.5,2236.5 C 1470.97,2263.74 1527.97,2291.74 1584.5,2320.5C 1546.89,2393.8 1496.56,2457.13 1433.5,2510.5C 1399.2,2478.18 1361.2,2451.01 1319.5,2429C 1351.23,2365.04 1382.56,2300.87 1413.5,2236.5 Z"/></g>
<g><path style="opacity:1" fill="#f8bd01" d="M 1538.5,2672.5 C 1538.5,2672.17 1538.5,2671.83 1538.5,2671.5C 1539.64,2671.09 1540.64,2670.43 1541.5,2669.5C 1518.74,2616.27 1487.74,2568.6 1448.5,2526.5C 1513.66,2471.69 1565.33,2406.36 1603.5,2330.5C 1604.36,2329.42 1605.36,2329.25 1606.5,2330C 1679.74,2365.79 1752.74,2401.79 1825.5,2438C 1771.3,2540.93 1690.3,2614.27 1582.5,2658C 1568.12,2663.74 1553.45,2668.57 1538.5,2672.5 Z"/></g>
<g><path style="opacity:1" fill="#f7bd02" d="M 1073.5,2397.5 C 1096.88,2397.08 1120.21,2397.75 1143.5,2399.5C 1144.12,2480.92 1159.12,2559.58 1188.5,2635.5C 1188.17,2635.83 1187.83,2636.17 1187.5,2636.5C 1094.19,2585.02 1025.19,2510.85 980.5,2414C 988.074,2411.68 995.74,2409.68 1003.5,2408C 1026.82,2403.51 1050.15,2400.01 1073.5,2397.5 Z"/></g>
<g><path style="opacity:1" fill="#8a9b5e" d="M 973.5,2394.5 C 975.088,2396.53 975.588,2398.86 975,2401.5C 974.062,2399.51 973.228,2397.51 972.5,2395.5C 973.167,2395.5 973.5,2395.17 973.5,2394.5 Z"/></g>
<g><path style="opacity:1" fill="#f8bd01" d="M 1165.5,2402.5 C 1208.92,2408.98 1250.59,2421.31 1290.5,2439.5C 1261.67,2498.5 1232.83,2557.5 1204,2616.5C 1178.13,2547.55 1165.29,2476.22 1165.5,2402.5 Z"/></g>
<g><path style="opacity:1" fill="#f7bd02" d="M 1309.5,2449.5 C 1348.68,2469 1384.01,2494 1415.5,2524.5C 1358.29,2570.61 1294.29,2604.44 1223.5,2626C 1252.56,2567.38 1281.23,2508.54 1309.5,2449.5 Z"/></g>
<g><path style="opacity:1" fill="#f7bd02" d="M 1430.5,2540.5 C 1468.67,2579.25 1498.51,2623.92 1520,2674.5C 1520.75,2675.64 1520.58,2676.64 1519.5,2677.5C 1429.24,2699.55 1340.24,2695.38 1252.5,2665C 1240.81,2661.11 1229.48,2656.44 1218.5,2651C 1296.56,2627.48 1367.22,2590.65 1430.5,2540.5 Z"/></g>
<g><path style="opacity:1" fill="#829961" d="M 1538.5,2671.5 C 1538.5,2671.83 1538.5,2672.17 1538.5,2672.5C 1536.77,2673.91 1534.77,2674.41 1532.5,2674C 1534.49,2673.06 1536.49,2672.23 1538.5,2671.5 Z"/></g>
<g><path style="opacity:1" fill="#62b9ea" d="M 1306.5,2772.5 C 1310.51,2773.04 1314.51,2773.7 1318.5,2774.5C 1319.73,2774.48 1320.73,2774.15 1321.5,2773.5C 1338.25,2775.88 1354.92,2777.88 1371.5,2779.5C 1347.87,2779.23 1324.54,2777.23 1301.5,2773.5C 1303.41,2773.78 1305.08,2773.45 1306.5,2772.5 Z"/></g>
<g><path style="opacity:1" fill="#fefefe" d="M 2763.5,3167.5 C 2720.34,3166.5 2677,3166.17 2633.5,3166.5C 2633.5,3202.83 2633.5,3239.17 2633.5,3275.5C 2632.71,3275.78 2632.04,3276.28 2631.5,3277C 2620.83,3277.67 2610.17,3277.67 2599.5,3277C 2598.96,3276.28 2598.29,3275.78 2597.5,3275.5C 2597.5,3239.17 2597.5,3202.83 2597.5,3166.5C 2554.83,3166.5 2512.17,3166.5 2469.5,3166.5C 2469.5,3193.17 2469.5,3219.83 2469.5,3246.5C 2468.71,3246.78 2468.04,3247.28 2467.5,3248C 2457.12,3248.81 2446.79,3248.64 2436.5,3247.5C 2435.33,3210.84 2435.17,3174.17 2436,3137.5C 2436.5,3137 2437,3136.5 2437.5,3136C 2490.83,3135.5 2544.17,3135.33 2597.5,3135.5C 2597.5,3126.83 2597.5,3118.17 2597.5,3109.5C 2551.83,3109.67 2506.17,3109.5 2460.5,3109C 2460,3108.5 2459.5,3108 2459,3107.5C 2458.33,3098.17 2458.33,3088.83 2459,3079.5C 2459.5,3079 2460,3078.5 2460.5,3078C 2564.83,3077.33 2669.17,3077.33 2773.5,3078C 2774,3078.5 2774.5,3079 2775,3079.5C 2775.67,3088.83 2775.67,3098.17 2775,3107.5C 2774.5,3108 2774,3108.5 2773.5,3109C 2726.83,3109.5 2680.17,3109.67 2633.5,3109.5C 2633.5,3118.17 2633.5,3126.83 2633.5,3135.5C 2687.83,3135.33 2742.17,3135.5 2796.5,3136C 2797.33,3136.83 2798.17,3137.67 2799,3138.5C 2799.67,3174.5 2799.67,3210.5 2799,3246.5C 2798.5,3247 2798,3247.5 2797.5,3248C 2786.83,3248.67 2776.17,3248.67 2765.5,3248C 2765,3247.5 2764.5,3247 2764,3246.5C 2763.5,3220.17 2763.33,3193.84 2763.5,3167.5 Z"/></g>
<g><path style="opacity:1" fill="#fefefe" d="M 1980.5,3081.5 C 2090.4,3081.17 2200.24,3081.5 2310,3082.5C 2310.67,3093.17 2310.67,3103.83 2310,3114.5C 2309.5,3115 2309,3115.5 2308.5,3116C 2209.83,3116.5 2111.17,3116.67 2012.5,3116.5C 2012.5,3217.5 2012.5,3318.5 2012.5,3419.5C 2111.83,3419.33 2211.17,3419.5 2310.5,3420C 2311,3420.5 2311.5,3421 2312,3421.5C 2312.82,3432.74 2312.65,3443.91 2311.5,3455C 2201.17,3455.67 2090.83,3455.67 1980.5,3455C 1980,3454.5 1979.5,3454 1979,3453.5C 1978.33,3330.17 1978.33,3206.83 1979,3083.5C 1979.72,3082.96 1980.22,3082.29 1980.5,3081.5 Z"/></g>
<g><path style="opacity:1" fill="#fefefe" d="M 1600.5,3172.5 C 1635.17,3172.67 1669.83,3172.5 1704.5,3172C 1703.96,3171.28 1703.29,3170.78 1702.5,3170.5C 1681.41,3160.19 1660.07,3150.36 1638.5,3141C 1637.42,3139.27 1637.26,3137.44 1638,3135.5C 1643.53,3129.63 1649.36,3124.13 1655.5,3119C 1657.5,3118.33 1659.5,3118.33 1661.5,3119C 1678.72,3126.45 1696.06,3133.61 1713.5,3140.5C 1730.11,3132.86 1745.78,3123.7 1760.5,3113C 1712.17,3112.67 1663.83,3112.33 1615.5,3112C 1615,3111.5 1614.5,3111 1614,3110.5C 1613.18,3101.26 1613.35,3092.09 1614.5,3083C 1678.83,3082.33 1743.17,3082.33 1807.5,3083C 1812.58,3087.29 1817.74,3091.45 1823,3095.5C 1823.67,3097.17 1823.67,3098.83 1823,3100.5C 1800.08,3122.87 1774.58,3141.7 1746.5,3157C 1754.5,3161.67 1762.5,3166.33 1770.5,3171C 1789.5,3171.33 1808.5,3171.67 1827.5,3172C 1828,3172.5 1828.5,3173 1829,3173.5C 1829.67,3248.17 1829.67,3322.83 1829,3397.5C 1828.5,3398 1828,3398.5 1827.5,3399C 1816.17,3399.67 1804.83,3399.67 1793.5,3399C 1792.58,3398.63 1791.75,3398.13 1791,3397.5C 1790.5,3377.5 1790.33,3357.5 1790.5,3337.5C 1770.5,3337.5 1750.5,3337.5 1730.5,3337.5C 1730.67,3357.17 1730.5,3376.84 1730,3396.5C 1717.91,3397.65 1705.74,3397.82 1693.5,3397C 1693,3396.5 1692.5,3396 1692,3395.5C 1691.5,3376.17 1691.33,3356.84 1691.5,3337.5C 1671.5,3337.5 1651.5,3337.5 1631.5,3337.5C 1631.67,3357.5 1631.5,3377.5 1631,3397.5C 1630.5,3398 1630,3398.5 1629.5,3399C 1619.83,3399.67 1610.17,3399.67 1600.5,3399C 1600,3398.5 1599.5,3398 1599,3397.5C 1598.33,3322.83 1598.33,3248.17 1599,3173.5C 1599.38,3172.94 1599.88,3172.61 1600.5,3172.5 Z"/></g>
<g><path style="opacity:1" fill="#fcfefe" d="M 1490.5,3082.5 C 1494.32,3083.4 1497.98,3084.9 1501.5,3087C 1522.7,3099.19 1541.53,3114.36 1558,3132.5C 1558.67,3133.83 1558.67,3135.17 1558,3136.5C 1551.5,3143 1545,3149.5 1538.5,3156C 1536.5,3156.67 1534.5,3156.67 1532.5,3156C 1514.81,3136.17 1494.48,3119.67 1471.5,3106.5C 1470.37,3104.93 1470.2,3103.26 1471,3101.5C 1477.4,3094.94 1483.9,3088.6 1490.5,3082.5 Z"/></g>
<g><path style="opacity:1" fill="#fefefe" d="M 2171.5,3181.5 C 2170.96,3181.56 2170.62,3181.89 2170.5,3182.5C 2184.33,3183.83 2197.99,3183.83 2211.5,3182.5C 2217.6,3166.42 2222.94,3150.09 2227.5,3133.5C 2228.45,3133.01 2229.45,3132.68 2230.5,3132.5C 2239.09,3134.86 2247.59,3137.53 2256,3140.5C 2257.44,3141.21 2258.28,3142.38 2258.5,3144C 2253,3157.01 2248,3170.17 2243.5,3183.5C 2265.17,3183.33 2286.84,3183.5 2308.5,3184C 2309.65,3193.42 2309.82,3202.92 2309,3212.5C 2285.91,3213.49 2262.74,3213.83 2239.5,3213.5C 2239.5,3223.5 2239.5,3233.5 2239.5,3243.5C 2259.17,3243.33 2278.84,3243.5 2298.5,3244C 2299,3244.5 2299.5,3245 2300,3245.5C 2300.17,3249.83 2300.33,3254.17 2300.5,3258.5C 2300.47,3263.25 2299.8,3267.75 2298.5,3272C 2278.84,3272.5 2259.17,3272.67 2239.5,3272.5C 2239.5,3283.17 2239.5,3293.83 2239.5,3304.5C 2259.17,3304.33 2278.84,3304.5 2298.5,3305C 2299,3305.5 2299.5,3306 2300,3306.5C 2300.67,3315.17 2300.67,3323.83 2300,3332.5C 2299.5,3333 2299,3333.5 2298.5,3334C 2278.84,3334.5 2259.17,3334.67 2239.5,3334.5C 2239.5,3345.5 2239.5,3356.5 2239.5,3367.5C 2261.84,3367.33 2284.17,3367.5 2306.5,3368C 2307,3368.5 2307.5,3369 2308,3369.5C 2308.67,3378.5 2308.67,3387.5 2308,3396.5C 2307.5,3397 2307,3397.5 2306.5,3398C 2249.5,3398.67 2192.5,3398.67 2135.5,3398C 2134.96,3397.28 2134.29,3396.78 2133.5,3396.5C 2133.67,3349.17 2133.5,3301.83 2133,3254.5C 2132.28,3255.04 2131.78,3255.71 2131.5,3256.5C 2125.76,3265.08 2119.43,3273.24 2112.5,3281C 2110.23,3281.76 2108.06,3281.59 2106,3280.5C 2101.24,3273.98 2096.24,3267.65 2091,3261.5C 2090.33,3259.17 2090.33,3256.83 2091,3254.5C 2112.52,3230.16 2129.52,3202.82 2142,3172.5C 2147.4,3158.98 2152.4,3145.31 2157,3131.5C 2157.83,3130.67 2158.67,3129.83 2159.5,3129C 2168.62,3130.82 2177.46,3133.65 2186,3137.5C 2186.67,3139.17 2186.67,3140.83 2186,3142.5C 2181.65,3155.72 2176.82,3168.72 2171.5,3181.5 Z"/></g>
<g><path style="opacity:1" fill="#fdfefe" d="M 2049.5,3129.5 C 2050.87,3129.34 2052.21,3129.51 2053.5,3130C 2071.5,3138.58 2087.66,3149.74 2102,3163.5C 2102.67,3165.17 2102.67,3166.83 2102,3168.5C 2096.98,3174.02 2092.15,3179.69 2087.5,3185.5C 2085.58,3186.64 2083.58,3186.81 2081.5,3186C 2067.69,3172.19 2052.19,3160.69 2035,3151.5C 2033.81,3149.96 2033.48,3148.29 2034,3146.5C 2039.74,3141.26 2044.91,3135.6 2049.5,3129.5 Z"/></g>
<g><path style="opacity:1" fill="#fdfefe" d="M 1472.5,3166.5 C 1504.84,3166.33 1537.17,3166.5 1569.5,3167C 1570,3167.5 1570.5,3168 1571,3168.5C 1571.67,3177.5 1571.67,3186.5 1571,3195.5C 1551.78,3222.78 1531.94,3249.61 1511.5,3276C 1525.75,3283.71 1539.91,3291.54 1554,3299.5C 1554.33,3325.17 1554.67,3350.83 1555,3376.5C 1568.37,3395.18 1586.21,3407.68 1608.5,3414C 1621.36,3417.18 1634.36,3419.51 1647.5,3421C 1710.88,3423.53 1774.22,3422.7 1837.5,3418.5C 1840.5,3418.41 1842.5,3419.74 1843.5,3422.5C 1838.12,3431.8 1834.62,3441.8 1833,3452.5C 1832.5,3453 1832,3453.5 1831.5,3454C 1770.85,3456.75 1710.18,3457.09 1649.5,3455C 1621.24,3453.27 1594.58,3445.94 1569.5,3433C 1558.42,3425.75 1548.42,3417.25 1539.5,3407.5C 1522.32,3424.51 1504.99,3441.35 1487.5,3458C 1485.83,3458.67 1484.17,3458.67 1482.5,3458C 1477.02,3447.54 1471.69,3437.04 1466.5,3426.5C 1484.73,3411.11 1502.56,3395.11 1520,3378.5C 1520.83,3359.82 1520.67,3341.16 1519.5,3322.5C 1504.6,3313.76 1490.1,3304.42 1476,3294.5C 1475.33,3285.5 1475.33,3276.5 1476,3267.5C 1493.03,3244.64 1509.86,3221.64 1526.5,3198.5C 1508.09,3197.98 1489.75,3197.14 1471.5,3196C 1470.35,3186.91 1470.18,3177.74 1471,3168.5C 1471.72,3167.96 1472.22,3167.29 1472.5,3166.5 Z"/></g>
<g><path style="opacity:1" fill="#40b7ee" d="M 2597.5,3275.5 C 2596.5,3239.67 2596.17,3203.67 2596.5,3167.5C 2554.5,3167.5 2512.5,3167.5 2470.5,3167.5C 2470.83,3194.01 2470.5,3220.34 2469.5,3246.5C 2469.5,3219.83 2469.5,3193.17 2469.5,3166.5C 2512.17,3166.5 2554.83,3166.5 2597.5,3166.5C 2597.5,3202.83 2597.5,3239.17 2597.5,3275.5 Z"/></g>
<g><path style="opacity:1" fill="#40b7ee" d="M 2763.5,3167.5 C 2720.5,3167.5 2677.5,3167.5 2634.5,3167.5C 2634.83,3203.67 2634.5,3239.67 2633.5,3275.5C 2633.5,3239.17 2633.5,3202.83 2633.5,3166.5C 2677,3166.17 2720.34,3166.5 2763.5,3167.5 Z"/></g>
<g><path style="opacity:1" fill="#bfe6f8" d="M 1702.5,3170.5 C 1703.29,3170.78 1703.96,3171.28 1704.5,3172C 1669.83,3172.5 1635.17,3172.67 1600.5,3172.5C 1634.5,3171.83 1668.5,3171.17 1702.5,3170.5 Z"/></g>
<g><path style="opacity:1" fill="#84d0f4" d="M 2171.5,3181.5 C 2184.66,3182.5 2197.99,3182.83 2211.5,3182.5C 2197.99,3183.83 2184.33,3183.83 2170.5,3182.5C 2170.62,3181.89 2170.96,3181.56 2171.5,3181.5 Z"/></g>
<g><path style="opacity:1" fill="#fcfdfe" d="M 2491.5,3189.5 C 2520.84,3189.33 2550.17,3189.5 2579.5,3190C 2580,3190.5 2580.5,3191 2581,3191.5C 2581.67,3199.17 2581.67,3206.83 2581,3214.5C 2580.17,3215.33 2579.33,3216.17 2578.5,3217C 2549.83,3217.67 2521.17,3217.67 2492.5,3217C 2491.67,3216.17 2490.83,3215.33 2490,3214.5C 2489.33,3206.83 2489.33,3199.17 2490,3191.5C 2490.72,3190.96 2491.22,3190.29 2491.5,3189.5 Z"/></g>
<g><path style="opacity:1" fill="#fcfdfe" d="M 2649.5,3189.5 C 2679.5,3189.33 2709.5,3189.5 2739.5,3190C 2740,3190.5 2740.5,3191 2741,3191.5C 2741.67,3199.17 2741.67,3206.83 2741,3214.5C 2740.17,3215.33 2739.33,3216.17 2738.5,3217C 2709.17,3217.67 2679.83,3217.67 2650.5,3217C 2650,3216.5 2649.5,3216 2649,3215.5C 2648.2,3206.76 2648.36,3198.09 2649.5,3189.5 Z"/></g>
<g><path style="opacity:1" fill="#95d6f5" d="M 1758.5,3203.5 C 1749.5,3203.5 1740.5,3203.5 1731.5,3203.5C 1731.5,3215.17 1731.5,3226.83 1731.5,3238.5C 1730.5,3226.68 1730.17,3214.68 1730.5,3202.5C 1740.01,3202.17 1749.35,3202.51 1758.5,3203.5 Z"/></g>
<g><path style="opacity:1" fill="#049fe8" d="M 1758.5,3203.5 C 1770.17,3203.5 1781.83,3203.5 1793.5,3203.5C 1793.5,3215.5 1793.5,3227.5 1793.5,3239.5C 1772.85,3238.63 1752.18,3238.3 1731.5,3238.5C 1731.5,3226.83 1731.5,3215.17 1731.5,3203.5C 1740.5,3203.5 1749.5,3203.5 1758.5,3203.5 Z"/></g>
<g><path style="opacity:1" fill="#08a0e8" d="M 1629.5,3203.5 C 1650.17,3203.5 1670.83,3203.5 1691.5,3203.5C 1691.5,3215.5 1691.5,3227.5 1691.5,3239.5C 1670.83,3239.5 1650.17,3239.5 1629.5,3239.5C 1629.5,3227.5 1629.5,3215.5 1629.5,3203.5 Z"/></g>
<g><path style="opacity:1" fill="#fcfefe" d="M 2034.5,3203.5 C 2054.5,3211 2072.33,3222 2088,3236.5C 2088.67,3238.5 2088.67,3240.5 2088,3242.5C 2082.79,3248.04 2077.96,3253.88 2073.5,3260C 2071.5,3260.67 2069.5,3260.67 2067.5,3260C 2052.91,3245.74 2036.41,3234.24 2018,3225.5C 2017.33,3224.17 2017.33,3222.83 2018,3221.5C 2023.39,3215.28 2028.89,3209.28 2034.5,3203.5 Z"/></g>
<g><path style="opacity:1" fill="#fcfefe" d="M 2483.5,3239.5 C 2515.5,3239.33 2547.5,3239.5 2579.5,3240C 2580,3240.5 2580.5,3241 2581,3241.5C 2581.67,3249.5 2581.67,3257.5 2581,3265.5C 2580.5,3266 2580,3266.5 2579.5,3267C 2547.17,3267.67 2514.83,3267.67 2482.5,3267C 2481.35,3258.58 2481.18,3250.08 2482,3241.5C 2482.72,3240.96 2483.22,3240.29 2483.5,3239.5 Z"/></g>
<g><path style="opacity:1" fill="#fcfefe" d="M 2650.5,3239.5 C 2683.5,3239.33 2716.5,3239.5 2749.5,3240C 2750,3240.5 2750.5,3241 2751,3241.5C 2751.67,3249.83 2751.67,3258.17 2751,3266.5C 2717.24,3267.66 2683.4,3267.83 2649.5,3267C 2648.35,3258.58 2648.18,3250.08 2649,3241.5C 2649.72,3240.96 2650.22,3240.29 2650.5,3239.5 Z"/></g>
<g><path style="opacity:1" fill="#40b7ee" d="M 2162.5,3211.5 C 2162.5,3222.83 2162.5,3234.17 2162.5,3245.5C 2178.5,3245.5 2194.5,3245.5 2210.5,3245.5C 2210.5,3234.17 2210.5,3222.83 2210.5,3211.5C 2211.49,3222.99 2211.83,3234.65 2211.5,3246.5C 2194.83,3246.5 2178.17,3246.5 2161.5,3246.5C 2161.17,3234.65 2161.51,3222.99 2162.5,3211.5 Z"/></g>
<g><path style="opacity:1" fill="#009ee8" d="M 2162.5,3211.5 C 2178.5,3211.5 2194.5,3211.5 2210.5,3211.5C 2210.5,3222.83 2210.5,3234.17 2210.5,3245.5C 2194.5,3245.5 2178.5,3245.5 2162.5,3245.5C 2162.5,3234.17 2162.5,3222.83 2162.5,3211.5 Z"/></g>
<g><path style="opacity:1" fill="#7fcef3" d="M 2133.5,3396.5 C 2132.83,3349.83 2132.17,3303.17 2131.5,3256.5C 2131.78,3255.71 2132.28,3255.04 2133,3254.5C 2133.5,3301.83 2133.67,3349.17 2133.5,3396.5 Z"/></g>
<g><path style="opacity:1" fill="#009ee8" d="M 1691.5,3270.5 C 1691.5,3281.83 1691.5,3293.17 1691.5,3304.5C 1671.83,3304.5 1652.17,3304.5 1632.5,3304.5C 1632.5,3293.17 1632.5,3281.83 1632.5,3270.5C 1652.17,3270.5 1671.83,3270.5 1691.5,3270.5 Z"/></g>
<g><path style="opacity:1" fill="#0da0e8" d="M 1730.5,3269.5 C 1751.49,3270.12 1772.49,3270.45 1793.5,3270.5C 1793.5,3281.83 1793.5,3293.17 1793.5,3304.5C 1772.5,3304.5 1751.5,3304.5 1730.5,3304.5C 1730.5,3292.83 1730.5,3281.17 1730.5,3269.5 Z"/></g>
<g><path style="opacity:1" fill="#12a1e8" d="M 2161.5,3270.5 C 2178.17,3270.5 2194.83,3270.5 2211.5,3270.5C 2211.5,3282.83 2211.5,3295.17 2211.5,3307.5C 2194.83,3307.5 2178.17,3307.5 2161.5,3307.5C 2161.5,3295.17 2161.5,3282.83 2161.5,3270.5 Z"/></g>
<g><path style="opacity:1" fill="#fdfefe" d="M 2482.5,3293.5 C 2572.17,3293.33 2661.83,3293.5 2751.5,3294C 2752,3294.5 2752.5,3295 2753,3295.5C 2753.67,3304.17 2753.67,3312.83 2753,3321.5C 2752.5,3322 2752,3322.5 2751.5,3323C 2661.83,3323.67 2572.17,3323.67 2482.5,3323C 2482,3322.5 2481.5,3322 2481,3321.5C 2480.33,3312.83 2480.33,3304.17 2481,3295.5C 2481.72,3294.96 2482.22,3294.29 2482.5,3293.5 Z"/></g>
<g><path style="opacity:1" fill="#fdfefe" d="M 2078.5,3299.5 C 2079.55,3299.35 2080.55,3299.52 2081.5,3300C 2087,3305.5 2092.5,3311 2098,3316.5C 2098.67,3318.17 2098.67,3319.83 2098,3321.5C 2085.56,3350.55 2071.39,3378.72 2055.5,3406C 2053.5,3406.67 2051.5,3406.67 2049.5,3406C 2043.33,3399.83 2037.17,3393.67 2031,3387.5C 2030.33,3386.17 2030.33,3384.83 2031,3383.5C 2047.52,3357.13 2062.52,3329.8 2076,3301.5C 2076.99,3300.93 2077.83,3300.27 2078.5,3299.5 Z"/></g>
<g><path style="opacity:1" fill="#94d5f5" d="M 1691.5,3270.5 C 1671.83,3270.5 1652.17,3270.5 1632.5,3270.5C 1632.5,3281.83 1632.5,3293.17 1632.5,3304.5C 1652.17,3304.5 1671.83,3304.5 1691.5,3304.5C 1671.67,3305.5 1651.67,3305.83 1631.5,3305.5C 1631.5,3293.5 1631.5,3281.5 1631.5,3269.5C 1651.67,3269.17 1671.67,3269.5 1691.5,3270.5 Z"/></g>
<g><path style="opacity:1" fill="#12a1e8" d="M 2161.5,3331.5 C 2178.17,3331.5 2194.83,3331.5 2211.5,3331.5C 2211.5,3344.5 2211.5,3357.5 2211.5,3370.5C 2194.83,3370.5 2178.17,3370.5 2161.5,3370.5C 2161.5,3357.5 2161.5,3344.5 2161.5,3331.5 Z"/></g>
<g><path style="opacity:1" fill="#fdfefe" d="M 2535.5,3377.5 C 2536.04,3377.44 2536.38,3377.11 2536.5,3376.5C 2505.51,3375.5 2474.51,3375.17 2443.5,3375.5C 2441.4,3366.09 2440.9,3356.42 2442,3346.5C 2442.5,3346 2443,3345.5 2443.5,3345C 2559.17,3344.33 2674.83,3344.33 2790.5,3345C 2791,3345.5 2791.5,3346 2792,3346.5C 2792.82,3356.08 2792.65,3365.58 2791.5,3375C 2758.17,3375.33 2724.83,3375.67 2691.5,3376C 2722.07,3396.56 2749.57,3420.73 2774,3448.5C 2774.84,3451.32 2774.01,3453.48 2771.5,3455C 2763.51,3459.91 2755.35,3464.41 2747,3468.5C 2746.17,3468.33 2745.33,3468.17 2744.5,3468C 2738.63,3460.62 2732.3,3453.62 2725.5,3447C 2639.52,3450.07 2553.52,3452.74 2467.5,3455C 2465.84,3452.49 2465.01,3449.66 2465,3446.5C 2463.76,3438.86 2463.43,3431.2 2464,3423.5C 2464.5,3423 2465,3422.5 2465.5,3422C 2480.83,3421.67 2496.17,3421.33 2511.5,3421C 2520.67,3407.17 2528.67,3392.67 2535.5,3377.5 Z"/></g>
<g><path style="opacity:1" fill="#7fcef3" d="M 2443.5,3375.5 C 2474.51,3375.17 2505.51,3375.5 2536.5,3376.5C 2536.38,3377.11 2536.04,3377.44 2535.5,3377.5C 2504.83,3376.83 2474.17,3376.17 2443.5,3375.5 Z"/></g>
<g><path style="opacity:1" fill="#52bcef" d="M 2573.5,3376.5 C 2611.33,3375.34 2649.33,3375.17 2687.5,3376C 2686.96,3376.72 2686.29,3377.22 2685.5,3377.5C 2648.34,3376.5 2611,3376.17 2573.5,3376.5 Z"/></g>
<g><path style="opacity:1" fill="#079fe8" d="M 2573.5,3376.5 C 2611,3376.17 2648.34,3376.5 2685.5,3377.5C 2678.53,3381.66 2671.53,3385.82 2664.5,3390C 2663.24,3391.81 2663.24,3393.65 2664.5,3395.5C 2676.52,3402.36 2687.86,3410.19 2698.5,3419C 2648.49,3420.65 2598.49,3421.48 2548.5,3421.5C 2557.1,3406.63 2565.43,3391.63 2573.5,3376.5 Z"/></g>
<g><path style="opacity:1" fill="#fdfefe" d="M 2148.5,3582.5 C 2166.93,3581.14 2182.6,3586.98 2195.5,3600C 2190.94,3605.63 2186.28,3611.13 2181.5,3616.5C 2162.87,3600.71 2145.71,3602.04 2130,3620.5C 2119.62,3640.14 2118.95,3660.14 2128,3680.5C 2138.88,3697.46 2153.72,3701.96 2172.5,3694C 2176.92,3691.59 2180.75,3688.42 2184,3684.5C 2188.33,3689.5 2192.67,3694.5 2197,3699.5C 2197.67,3700.5 2197.67,3701.5 2197,3702.5C 2178.69,3720.78 2157.19,3725.62 2132.5,3717C 2108.9,3705.66 2096.4,3686.83 2095,3660.5C 2091.77,3632.15 2101.27,3609.32 2123.5,3592C 2131.48,3587.51 2139.82,3584.35 2148.5,3582.5 Z"/></g>
<g><path style="opacity:1" fill="#fdfefe" d="M 1487.5,3585.5 C 1514.83,3585.5 1542.17,3585.5 1569.5,3585.5C 1569.5,3592.83 1569.5,3600.17 1569.5,3607.5C 1551.17,3607.5 1532.83,3607.5 1514.5,3607.5C 1514.5,3619.17 1514.5,3630.83 1514.5,3642.5C 1530.17,3642.5 1545.83,3642.5 1561.5,3642.5C 1561.5,3649.83 1561.5,3657.17 1561.5,3664.5C 1545.83,3664.5 1530.17,3664.5 1514.5,3664.5C 1514.5,3682.5 1514.5,3700.5 1514.5,3718.5C 1505.5,3718.5 1496.5,3718.5 1487.5,3718.5C 1487.5,3674.17 1487.5,3629.83 1487.5,3585.5 Z"/></g>
<g><path style="opacity:1" fill="#fefffe" d="M 1612.5,3585.5 C 1621.17,3585.5 1629.83,3585.5 1638.5,3585.5C 1638.5,3629.83 1638.5,3674.17 1638.5,3718.5C 1629.83,3718.5 1621.17,3718.5 1612.5,3718.5C 1612.5,3674.17 1612.5,3629.83 1612.5,3585.5 Z"/></g>
<g><path style="opacity:1" fill="#fcfefe" d="M 1680.5,3585.5 C 1690.08,3585.18 1699.58,3585.51 1709,3586.5C 1720.27,3608.09 1731.93,3629.42 1744,3650.5C 1749.33,3661.83 1754.67,3673.17 1760,3684.5C 1759.45,3674.19 1758.79,3663.86 1758,3653.5C 1757.5,3630.84 1757.33,3608.17 1757.5,3585.5C 1765.83,3585.5 1774.17,3585.5 1782.5,3585.5C 1782.5,3629.83 1782.5,3674.17 1782.5,3718.5C 1773.25,3718.82 1764.08,3718.48 1755,3717.5C 1736.95,3685.4 1719.95,3652.73 1704,3619.5C 1704.1,3630.85 1704.76,3642.18 1706,3653.5C 1706.5,3675.16 1706.67,3696.83 1706.5,3718.5C 1697.83,3718.5 1689.17,3718.5 1680.5,3718.5C 1680.5,3674.17 1680.5,3629.83 1680.5,3585.5 Z"/></g>
<g><path style="opacity:1" fill="#fefefe" d="M 1824.5,3585.5 C 1858.5,3585.5 1892.5,3585.5 1926.5,3585.5C 1926.5,3592.83 1926.5,3600.17 1926.5,3607.5C 1913.83,3607.5 1901.17,3607.5 1888.5,3607.5C 1888.5,3644.5 1888.5,3681.5 1888.5,3718.5C 1879.83,3718.5 1871.17,3718.5 1862.5,3718.5C 1862.5,3681.5 1862.5,3644.5 1862.5,3607.5C 1849.83,3607.5 1837.17,3607.5 1824.5,3607.5C 1824.5,3600.17 1824.5,3592.83 1824.5,3585.5 Z"/></g>
<g><path style="opacity:1" fill="#fdfefe" d="M 1995.5,3637.5 C 2010.66,3638.5 2025.99,3638.83 2041.5,3638.5C 2041.5,3645.83 2041.5,3653.17 2041.5,3660.5C 2026.17,3660.5 2010.83,3660.5 1995.5,3660.5C 1995.5,3672.5 1995.5,3684.5 1995.5,3696.5C 2014.5,3696.5 2033.5,3696.5 2052.5,3696.5C 2052.5,3703.83 2052.5,3711.17 2052.5,3718.5C 2024.5,3718.5 1996.5,3718.5 1968.5,3718.5C 1968.5,3674.17 1968.5,3629.83 1968.5,3585.5C 1995.83,3585.5 2023.17,3585.5 2050.5,3585.5C 2050.5,3592.83 2050.5,3600.17 2050.5,3607.5C 2032.17,3607.5 2013.83,3607.5 1995.5,3607.5C 1995.5,3617.5 1995.5,3627.5 1995.5,3637.5 Z"/></g>
<g><path style="opacity:1" fill="#fefffe" d="M 2317.5,3718.5 C 2317.5,3699.17 2317.5,3679.83 2317.5,3660.5C 2300.5,3660.5 2283.5,3660.5 2266.5,3660.5C 2266.5,3679.83 2266.5,3699.17 2266.5,3718.5C 2257.83,3718.5 2249.17,3718.5 2240.5,3718.5C 2240.5,3674.17 2240.5,3629.83 2240.5,3585.5C 2249.17,3585.5 2257.83,3585.5 2266.5,3585.5C 2266.5,3602.83 2266.5,3620.17 2266.5,3637.5C 2283.5,3637.5 2300.5,3637.5 2317.5,3637.5C 2317.5,3620.17 2317.5,3602.83 2317.5,3585.5C 2326.17,3585.5 2334.83,3585.5 2343.5,3585.5C 2343.5,3629.83 2343.5,3674.17 2343.5,3718.5C 2334.83,3718.5 2326.17,3718.5 2317.5,3718.5 Z"/></g>
<g><path style="opacity:1" fill="#fdfefe" d="M 2385.5,3585.5 C 2394.5,3585.5 2403.5,3585.5 2412.5,3585.5C 2412.5,3622.5 2412.5,3659.5 2412.5,3696.5C 2430.5,3696.5 2448.5,3696.5 2466.5,3696.5C 2466.5,3703.83 2466.5,3711.17 2466.5,3718.5C 2439.5,3718.5 2412.5,3718.5 2385.5,3718.5C 2385.5,3674.17 2385.5,3629.83 2385.5,3585.5 Z"/></g>
<g><path style="opacity:1" fill="#fefffe" d="M 2508.5,3585.5 C 2517.5,3585.5 2526.5,3585.5 2535.5,3585.5C 2535.5,3629.83 2535.5,3674.17 2535.5,3718.5C 2526.5,3718.5 2517.5,3718.5 2508.5,3718.5C 2508.5,3674.17 2508.5,3629.83 2508.5,3585.5 Z"/></g>
<g><path style="opacity:1" fill="#fefefe" d="M 2604.5,3607.5 C 2603.51,3618.99 2603.17,3630.65 2603.5,3642.5C 2619.5,3642.5 2635.5,3642.5 2651.5,3642.5C 2651.5,3649.83 2651.5,3657.17 2651.5,3664.5C 2635.83,3664.5 2620.17,3664.5 2604.5,3664.5C 2604.5,3682.5 2604.5,3700.5 2604.5,3718.5C 2595.5,3718.5 2586.5,3718.5 2577.5,3718.5C 2577.5,3674.17 2577.5,3629.83 2577.5,3585.5C 2604.83,3585.5 2632.17,3585.5 2659.5,3585.5C 2659.5,3592.83 2659.5,3600.17 2659.5,3607.5C 2641.17,3607.5 2622.83,3607.5 2604.5,3607.5 Z"/></g>
<g><path style="opacity:1" fill="#fefffe" d="M 2728.5,3607.5 C 2727.51,3617.65 2727.17,3627.99 2727.5,3638.5C 2743.17,3638.5 2758.83,3638.5 2774.5,3638.5C 2774.5,3645.83 2774.5,3653.17 2774.5,3660.5C 2759.17,3660.5 2743.83,3660.5 2728.5,3660.5C 2727.5,3672.32 2727.17,3684.32 2727.5,3696.5C 2746.83,3696.5 2766.17,3696.5 2785.5,3696.5C 2785.5,3703.83 2785.5,3711.17 2785.5,3718.5C 2757.5,3718.5 2729.5,3718.5 2701.5,3718.5C 2701.5,3674.17 2701.5,3629.83 2701.5,3585.5C 2728.83,3585.5 2756.17,3585.5 2783.5,3585.5C 2783.5,3592.83 2783.5,3600.17 2783.5,3607.5C 2765.17,3607.5 2746.83,3607.5 2728.5,3607.5 Z"/></g>
<g><path style="opacity:1" fill="#90d4f5" d="M 1995.5,3637.5 C 2011.17,3637.5 2026.83,3637.5 2042.5,3637.5C 2042.83,3645.35 2042.49,3653.02 2041.5,3660.5C 2041.5,3653.17 2041.5,3645.83 2041.5,3638.5C 2025.99,3638.83 2010.66,3638.5 1995.5,3637.5 Z"/></g>
<g><path style="opacity:1" fill="#94d5f5" d="M 2728.5,3607.5 C 2728.5,3617.5 2728.5,3627.5 2728.5,3637.5C 2744.01,3637.17 2759.34,3637.5 2774.5,3638.5C 2758.83,3638.5 2743.17,3638.5 2727.5,3638.5C 2727.17,3627.99 2727.51,3617.65 2728.5,3607.5 Z"/></g>
<g><path style="opacity:1" fill="#95d6f5" d="M 2604.5,3607.5 C 2604.5,3618.83 2604.5,3630.17 2604.5,3641.5C 2620.34,3641.17 2636.01,3641.5 2651.5,3642.5C 2635.5,3642.5 2619.5,3642.5 2603.5,3642.5C 2603.17,3630.65 2603.51,3618.99 2604.5,3607.5 Z"/></g>
<g><path style="opacity:1" fill="#80cff4" d="M 2317.5,3718.5 C 2316.5,3699.67 2316.17,3680.67 2316.5,3661.5C 2300.17,3661.5 2283.83,3661.5 2267.5,3661.5C 2267.83,3680.67 2267.5,3699.67 2266.5,3718.5C 2266.5,3699.17 2266.5,3679.83 2266.5,3660.5C 2283.5,3660.5 2300.5,3660.5 2317.5,3660.5C 2317.5,3679.83 2317.5,3699.17 2317.5,3718.5 Z"/></g>
<g><path style="opacity:1" fill="#93d5f5" d="M 2728.5,3660.5 C 2728.5,3672.17 2728.5,3683.83 2728.5,3695.5C 2747.67,3695.17 2766.67,3695.5 2785.5,3696.5C 2766.17,3696.5 2746.83,3696.5 2727.5,3696.5C 2727.17,3684.32 2727.5,3672.32 2728.5,3660.5 Z"/></g>
</svg>
