<svg width="1000" height="1000" xmlns="http://www.w3.org/2000/svg" version="1.1">

 <g>
  <title>Layer 1</title>
  <g stroke="null" transform="translate(94 108) translate(37.834 30.994) scale(2.33302 2.06859) translate(-37.834 -30.994)" style="vector-effect: non-scaling-stroke;" id="svgg">
   <path style="vector-effect: non-scaling-stroke;" stroke="null" fill-rule="evenodd" fill="#ec6c04" d="m37.834,78.018l0,47.024l0.891,-0.158c0.49,-0.086 67.019,-10.576 147.841,-23.309c80.823,-12.734 147.32,-23.26 147.773,-23.392l0.822,-0.239l-0.959,-0.185c-0.528,-0.102 -67.088,-10.602 -147.91,-23.333c-80.823,-12.732 -147.289,-23.212 -147.704,-23.29l-0.754,-0.142l0,47.024" id="path0"/>
   <path style="vector-effect: non-scaling-stroke;" stroke="null" fill-rule="evenodd" fill="#1c1c34" d="m196.573,148.08c-21.437,2.161 -33.61,16.762 -34.999,41.982l-0.178,3.221l12.242,0c11.477,0 12.243,-0.03 12.243,-0.48c0.007,-15.709 6.018,-23.515 18.094,-23.499c10.6,0.015 17.033,6.878 17.08,18.222c0.049,11.79 -4.549,17.45 -28.15,34.661c-18.174,13.253 -25.096,21.276 -29.583,34.29c-1.824,5.289 -3.212,12.702 -3.212,17.149l0,1.905l43.591,0l43.592,0l0,-11.103l0,-11.104l-27.704,0l-27.703,0l0.885,-1.302c2.586,-3.802 6.992,-7.4 22.582,-18.437c24.285,-17.193 30.822,-26.133 31.575,-43.181c1.219,-27.598 -19.948,-45.389 -50.355,-42.324m-158.739,64.943l0,62.508l13.297,0l13.297,0l0,-28.101l0,-28.102l26.045,0l26.045,0l0,28.102l0,28.101l13.297,0l13.297,0l0,-62.508l0,-62.509l-13.297,0l-13.297,0l0,23.304l0,23.303l-26.045,0l-26.045,0l0,-23.303l0,-23.304l-13.297,0l-13.297,0l0,62.509m225.914,-23.784c0.005,38.6 0.141,45.798 0.976,51.468c3.703,25.16 18.162,37.209 45.626,38.02c28.195,0.832 44.679,-9.965 49.731,-32.577c1.712,-7.666 1.635,-5.322 1.737,-52.524l0.093,-43.112l-13.427,0l-13.426,0l-0.109,41.33c-0.096,36.658 -0.159,41.671 -0.561,44.354c-1.979,13.221 -7.338,18.965 -18.532,19.866c-14.414,1.16 -21.807,-4.587 -24.329,-18.915c-0.412,-2.341 -0.469,-6.861 -0.562,-44.62l-0.102,-42.015l-13.56,0l-13.561,0l0.006,38.725m50.166,111.561c-1.734,0.437 -3.315,0.85 -3.512,0.92c-0.256,0.09 -0.003,0.778 0.891,2.418c0.688,1.26 1.25,2.372 1.25,2.47c0,0.097 -6.292,0.177 -13.982,0.177l-13.983,0l-0.004,13.914c-0.007,23.848 -1.105,32.54 -5.234,41.436c-0.587,1.265 -1.067,2.331 -1.067,2.369c0,0.037 0.771,0.561 1.713,1.162c0.943,0.602 2.233,1.487 2.867,1.965l1.154,0.871l0.833,-1.65c4.763,-9.436 6.584,-21.544 6.59,-43.823l0.002,-9.938l11.241,0l11.241,0l0,2.193l0,2.194l-8.911,0l-8.91,0l0,2.467l0,2.468l8.91,0l8.911,0l0,2.193l0,2.193l-10.556,0l-10.555,0l0,2.742l0,2.741l10.555,0l10.556,0l0,2.331l0,2.33l-9.322,0l-9.321,0l0,2.605l0,2.604l0.882,0l0.883,0l-1.626,1.643c-0.996,1.006 -1.523,1.735 -1.362,1.883c0.145,0.132 1.62,1.14 3.279,2.24c1.659,1.1 3.75,2.566 4.647,3.258c0.898,0.691 1.802,1.386 2.01,1.544c0.285,0.216 -1.303,0.922 -6.429,2.858c-3.744,1.415 -6.905,2.653 -7.023,2.752c-0.263,0.221 2.251,5.755 2.615,5.755c0.325,0 6.09,-2.503 14.019,-6.088c3.334,-1.507 6.216,-2.802 6.405,-2.879c0.263,-0.107 0.343,0.621 0.343,3.119c0,4.764 0.404,4.477 -6.31,4.477l-5.456,0l0.794,1.68c0.437,0.924 0.953,2.298 1.147,3.054l0.352,1.373l4.668,-0.19c10.661,-0.433 11.705,-1.222 11.882,-8.973l0.105,-4.565l2.783,1.227c5.31,2.342 12.667,5.864 15.37,7.359c1.494,0.826 2.791,1.503 2.882,1.503c0.144,0 3.031,-4.389 3.257,-4.951c0.085,-0.212 -7.75,-4.117 -11.529,-5.747c-2.501,-1.078 -2.507,-1.093 -0.823,-2.064c2.385,-1.373 9.116,-5.891 9.116,-6.118c0,-0.123 -1.077,-1.076 -2.394,-2.118l-2.395,-1.895l1.161,-0.084l1.161,-0.084l0,-4.782l0,-4.782l3.427,0l3.427,0l0,-3.016l0,-3.016l-3.427,0l-3.427,0l0,-4.524l0,-4.523l-9.322,0l-9.321,0l0,-2.194l0,-2.193l12.337,0l12.337,0l0,-3.153l0,-3.153l-12.277,0l-12.277,0l-1.632,-2.874c-2.475,-4.359 -1.907,-4.044 -5.616,-3.111m-241.379,2.935c-0.966,1.602 -1.727,2.942 -1.69,2.979c0.037,0.038 1.785,0.568 3.885,1.18c7.547,2.199 15.182,5.05 20.195,7.541l2.944,1.463l1.059,-1.835c2.673,-4.635 2.702,-4.705 2.138,-5.124c-2.337,-1.738 -16.73,-6.772 -24.646,-8.62l-2.127,-0.496l-1.758,2.912m65.094,30.878l0,33.859l3.425,0l3.426,0l0.07,-26.114l0.07,-26.114l0.912,3.252c0.501,1.789 1.138,4.42 1.414,5.847c0.617,3.185 0.336,2.989 2.837,1.971c2.393,-0.975 2.326,-0.799 1.546,-4.051c-0.685,-2.858 -0.791,-2.815 1.731,-0.702c2.439,2.045 2.267,1.99 3.265,1.034l0.769,-0.737l0,9.921l0,9.921l2.872,0l2.872,0l-0.126,0.754c-1.727,10.356 -4.454,14.852 -11.083,18.276l-2.433,1.257l1.326,1.435c0.729,0.789 1.674,2.021 2.098,2.737c0.934,1.574 0.839,1.568 3.339,0.205c7.925,-4.32 12.108,-11.086 13.553,-21.922l0.347,-2.604l2.367,-0.079l2.367,-0.079l0.118,9.948c0.175,14.815 0.134,14.758 10.74,14.735c9.007,-0.02 10.206,-1.171 10.998,-10.564l0.186,-2.213l-1.744,-0.624c-0.96,-0.343 -2.393,-0.983 -3.184,-1.421l-1.44,-0.798l-0.002,1.853c-0.007,6.817 -0.407,7.473 -4.544,7.473c-4.324,0 -3.953,0.904 -3.953,-9.615l0,-8.754l3.29,0l3.29,0l0.005,-10.897l0.005,-10.898l0.812,1.371c0.447,0.753 0.859,1.494 0.914,1.644c0.084,0.226 3.064,-1.65 5.237,-3.296c1.048,-0.794 -7.577,-12.015 -14.188,-18.458l-1.223,-1.193l-2.519,1.694l-2.519,1.694l1.468,1.555c3.101,3.284 8.747,10.166 10.216,12.453l0.484,0.754l-13.184,0l-13.185,0l2.013,-2.575c3.154,-4.035 8.078,-11.992 8.112,-13.109c0.005,-0.155 -2.851,-1.109 -6.083,-2.033c-0.361,-0.103 -0.72,0.363 -1.548,2.006c-2.379,4.717 -6.084,9.676 -10.18,13.623l-2.528,2.435l-1.097,-3.395c-1.339,-4.146 -1.228,-4.02 -3.047,-3.446c-0.807,0.254 -1.549,0.462 -1.649,0.462c-0.1,0 -0.181,-2.776 -0.181,-6.168l0,-6.169l-3.427,0l-3.427,0l0,33.859m78.123,-32.677c-2.094,8.04 -6.932,18.786 -10.983,24.389c-1.572,2.174 -1.546,2.012 -0.612,3.842c0.401,0.786 1.118,2.388 1.593,3.559l0.863,2.129l0.565,-0.621c0.31,-0.342 1.259,-1.669 2.108,-2.949l1.543,-2.328l0,19.257l0,19.258l3.153,0l3.153,0l0,-25.463l0,-25.463l0.651,-1.474c0.955,-2.159 3.298,-8.53 4.094,-11.133l0.691,-2.257l-1.827,-0.533c-1.005,-0.293 -2.472,-0.719 -3.26,-0.947l-1.433,-0.415l-0.299,1.149m33.734,1.697l0,2.878l-4.387,0l-4.386,0l0,2.742l0,2.742l4.386,0l4.387,0l0,2.193l0,2.193l-6.032,0l-6.031,0l0,2.605l0,2.604l6.031,0l6.032,0l0,2.33l0,2.331l-4.387,0l-4.386,0l0,2.604l0,2.605l4.386,0l4.387,0l0,2.193l0,2.193l-4.935,0l-4.935,0l0,2.742l0,2.742l4.935,0l4.935,0l0,2.33l0,2.33l-5.757,0l-5.758,0l0,2.879l0,2.879l5.758,0l5.757,0l0,3.838l0,3.838l3.016,0l3.015,0l0,-3.838l0,-3.838l7.129,0l7.128,0l0,-2.879l0,-2.879l-7.128,0l-7.129,0l0,-2.33l0,-2.33l6.032,0l6.032,0l0,-2.742l0,-2.742l-6.032,0l-6.032,0l0,-2.193l0,-2.193l5.484,0l5.483,0l0,-4.935l0,-4.935l2.33,0l2.331,0l0,-2.604l0,-2.605l-2.331,0l-2.33,0l0,-4.935l0,-4.935l-5.483,0l-5.484,0l0,-2.878l0,-2.879l-3.015,0l-3.016,0l0,2.879m-27.69,5.209l0,3.153l3.594,0l3.593,0l-0.187,0.753c-0.276,1.113 -4.669,12.596 -6.214,16.244c-0.734,1.734 -1.335,3.307 -1.335,3.495c0,0.264 1.267,0.344 5.441,0.344l5.44,0l-0.384,2.81c-0.634,4.641 -2.373,11.994 -2.838,11.994c-0.345,0 -2.097,-3.83 -2.923,-6.391c-0.399,-1.235 -0.759,-2.292 -0.802,-2.35c-0.252,-0.342 -5.03,1.725 -5.03,2.176c0,1.34 2.934,8.12 4.89,11.299c1.368,2.225 1.352,1.815 0.148,3.71c-1.669,2.628 -3.802,5.053 -5.837,6.635l-1.939,1.508l1.163,0.948c0.64,0.521 1.662,1.477 2.271,2.125c0.61,0.647 1.262,1.177 1.449,1.177c0.628,0 5.197,-4.673 6.653,-6.804c0.791,-1.159 1.464,-2.143 1.495,-2.187c0.032,-0.044 0.967,0.611 2.079,1.456c6.349,4.824 12.103,6.174 27.14,6.365l10.039,0.128l0.18,-0.919c0.146,-0.751 0.779,-2.426 1.708,-4.521c0.102,-0.231 -2.603,-0.352 -10.229,-0.458c-10.777,-0.149 -12.414,-0.298 -16.939,-1.54c-3.676,-1.008 -7.282,-2.923 -10.25,-5.441l-0.921,-0.782l0.838,-2.45c1.209,-3.535 2.163,-7.385 2.916,-11.771c0.621,-3.615 1.614,-11.675 1.452,-11.78c-0.497,-0.322 -3.568,-0.695 -5.716,-0.695c-1.496,0 -2.72,-0.048 -2.72,-0.108c0,-0.059 0.934,-2.557 2.075,-5.551c2.716,-7.124 5.601,-15.076 5.601,-15.438c0,-0.194 -2.591,-0.287 -7.951,-0.287l-7.95,0l0,3.153m39.205,5.346l0,2.193l-2.742,0l-2.742,0l0,-2.193l0,-2.193l2.742,0l2.742,0l0,2.193m-129.93,3.632c-0.5,4.176 -1.572,9.824 -2.504,13.198c-0.453,1.641 -0.787,3.022 -0.741,3.068c0.191,0.191 4.661,1.76 5.012,1.76c0.96,0 2.942,-9.613 3.821,-18.531l0.165,-1.671l-2.271,-0.317c-1.249,-0.175 -2.467,-0.317 -2.708,-0.317c-0.35,0 -0.505,0.562 -0.774,2.81m-66.643,1.166l0,3.427l9.732,0l9.733,0l0,19.335l0,19.335l-0.754,0.297c-0.505,0.2 -2.395,0.24 -5.735,0.122l-4.982,-0.176l0.897,2.133c0.494,1.174 1.062,2.782 1.264,3.573l0.366,1.44l3.581,-0.009c7.544,-0.018 10.881,-1.008 12.292,-3.647c0.601,-1.125 0.612,-1.325 0.692,-13.471l0.082,-12.329l1.111,2.048c5.337,9.836 12.776,17.347 21.548,21.752c1.39,0.698 2.57,1.269 2.624,1.269c0.053,0 0.906,-1.08 1.894,-2.399c0.989,-1.319 2.116,-2.695 2.506,-3.057l0.709,-0.659l-3.763,-1.848c-6.152,-3.022 -12.305,-8.049 -16.056,-13.119c-1.578,-2.133 -1.795,-1.667 2.149,-4.608c5.534,-4.128 14.942,-12.09 14.942,-12.646c0,-0.106 -1.411,-1.211 -3.136,-2.454l-3.136,-2.261l-4.335,4.331c-3.967,3.964 -10.748,9.933 -11.283,9.933c-0.481,0 -3.228,-6.251 -4.873,-11.089c-0.828,-2.435 -0.927,-3.043 -0.927,-5.689l0,-2.961l-13.571,0l-13.571,0l0,3.427m196.573,4.934l0,2.331l-2.742,0l-2.742,0l0,-2.331l0,-2.33l2.742,0l2.742,0l0,2.33m71.83,0.686l0,2.193l-5.895,0l-5.894,0l0,-2.193l0,-2.193l5.894,0l5.895,0l0,2.193m-151.337,6.443l0,5.346l-8.91,0l-8.91,0l0,-5.346l0,-5.346l8.91,0l8.91,0l0,5.346m-116.587,-1.3l-10.075,0.073l0,3.423l0,3.424l7.969,0l7.969,0l-0.172,0.617c-1.653,5.907 -8.94,15.553 -14.969,19.814l-2.336,1.651l2.823,2.693l2.824,2.692l1.729,-1.234c8.406,-5.998 17.409,-20.358 19,-30.304l0.17,-1.063l-2.106,-0.876c-2.642,-1.1 -1.139,-0.994 -12.826,-0.91m267.924,4.864l0,2.33l-5.895,0l-5.894,0l0,-2.33l0,-2.331l5.894,0l5.895,0l0,2.331m-18.917,11.055l0,3.516l-3.359,1.33c-1.847,0.731 -3.782,1.504 -4.299,1.717c-0.911,0.376 -0.887,0.327 0.758,-1.529l1.7,-1.917l-1.033,-0.817c-0.568,-0.449 -2.757,-1.941 -4.865,-3.316l-3.833,-2.5l7.465,0l7.466,0l0,3.516m22.336,-2.997c-1.99,1.91 -10.469,7.98 -11.147,7.98c-0.191,0 -1.182,-0.328 -2.204,-0.729l-1.857,-0.728l0,-3.521l0,-3.521l7.874,0c7.734,0 7.865,0.009 7.334,0.519" id="path1"/>
   <path style="vector-effect: non-scaling-stroke;" stroke="null" fill-rule="evenodd" fill="#f0441c" id="path2"/>
   <path style="vector-effect: non-scaling-stroke;" stroke="null" fill-rule="evenodd" fill="#54441c" id="path3"/>
   <path style="vector-effect: non-scaling-stroke;" stroke="null" fill-rule="evenodd" fill="#1c481c" id="path4"/>
   <path style="vector-effect: non-scaling-stroke;" stroke="null" fill-rule="evenodd" fill="#1c1c38" id="path5"/>
   <path style="vector-effect: non-scaling-stroke;" stroke="null" fill-rule="evenodd" fill="#1c1c38" id="path6"/>
   <path style="vector-effect: non-scaling-stroke;" stroke="null" fill-rule="evenodd" fill="#1c1c38" id="path7"/>
   <path style="vector-effect: non-scaling-stroke;" stroke="null" fill-rule="evenodd" fill="#1c1c38" id="path8"/>
  </g>
 </g>
</svg>