<svg width="1000" height="1000" xmlns="http://www.w3.org/2000/svg" version="1.1">

 <g>
  <title>Layer 1</title>
  <g stroke="null" transform="translate(8 264) translate(1.667 0) scale(2.37275 2.60994) translate(-1.667 0) translate(1.667 0) scale(1.05038 1.06779) translate(-1.667 0)" style="vector-effect: non-scaling-stroke;" id="svgg">
   <path stroke="null" style="vector-effect: non-scaling-stroke;" fill-rule="evenodd" fill="#c40404" d="m126.333,43.417l0,43.416l7.666,0l7.666,0l0.042,-13.208l0.043,-13.208l1.107,1.416c0.609,0.779 1.274,1.567 1.478,1.75c0.205,0.184 0.655,0.746 1,1.25c0.345,0.504 0.831,1.105 1.078,1.334c0.248,0.229 0.72,0.791 1.048,1.25c0.329,0.458 0.794,1.021 1.034,1.25c0.24,0.229 0.731,0.791 1.09,1.25c0.36,0.458 0.694,0.87 0.743,0.916c0.049,0.046 0.164,0.206 0.255,0.355c0.286,0.465 3.691,4.54 4.149,4.966c0.239,0.222 0.435,0.485 0.436,0.583c0.001,0.099 0.475,0.712 1.054,1.363c0.579,0.65 1.231,1.438 1.45,1.75c0.218,0.312 0.839,1.064 1.379,1.672c0.54,0.608 1.069,1.257 1.174,1.442c0.105,0.185 0.642,0.854 1.192,1.487c0.55,0.633 1.226,1.429 1.502,1.768l0.503,0.617l10.497,-0.043l10.498,-0.043l-0.672,-0.75c-0.369,-0.413 -0.944,-1.088 -1.278,-1.5c-0.333,-0.413 -0.818,-0.979 -1.078,-1.259c-0.26,-0.28 -0.695,-0.803 -0.966,-1.161c-0.272,-0.358 -0.61,-0.768 -0.75,-0.911c-0.141,-0.143 -1.006,-1.158 -1.922,-2.256c-0.916,-1.098 -1.86,-2.184 -2.097,-2.413c-0.238,-0.229 -0.611,-0.679 -0.83,-1c-0.22,-0.321 -0.87,-1.087 -1.445,-1.702c-0.575,-0.615 -1.046,-1.177 -1.046,-1.25c0,-0.072 -0.422,-0.582 -0.939,-1.132c-0.516,-0.549 -1.132,-1.262 -1.368,-1.583c-0.237,-0.321 -0.558,-0.711 -0.713,-0.868c-0.156,-0.156 -1.058,-1.206 -2.004,-2.333c-0.947,-1.127 -1.891,-2.221 -2.098,-2.431c-0.208,-0.211 -0.379,-0.436 -0.38,-0.5c-0.002,-0.065 -0.423,-0.568 -0.937,-1.118c-0.514,-0.55 -1.216,-1.375 -1.56,-1.833c-0.345,-0.458 -0.832,-1.021 -1.084,-1.25c-0.252,-0.229 -0.759,-0.821 -1.127,-1.316c-0.368,-0.494 -0.928,-1.169 -1.245,-1.5c-0.317,-0.33 -0.774,-0.863 -1.016,-1.184c-0.241,-0.321 -0.881,-1.071 -1.421,-1.667c-1.588,-1.752 -1.577,-1.723 -0.919,-2.467c0.309,-0.349 0.832,-0.967 1.163,-1.375c0.331,-0.408 1.192,-1.453 1.914,-2.324c0.721,-0.871 1.646,-1.996 2.054,-2.5c0.408,-0.504 0.801,-0.941 0.872,-0.971c0.072,-0.029 0.412,-0.442 0.755,-0.916c0.344,-0.475 1.096,-1.385 1.672,-2.023c0.576,-0.638 1.048,-1.253 1.048,-1.366c0,-0.113 0.131,-0.303 0.292,-0.423c0.362,-0.271 1.004,-1.017 3.125,-3.635c0.916,-1.131 2.159,-2.625 2.761,-3.32c0.603,-0.695 1.165,-1.388 1.25,-1.542c0.086,-0.153 0.629,-0.805 1.207,-1.449c0.578,-0.644 1.224,-1.419 1.434,-1.722c0.211,-0.302 0.737,-0.925 1.169,-1.383c0.432,-0.459 0.886,-1.021 1.009,-1.25c0.123,-0.229 0.564,-0.771 0.98,-1.203c0.416,-0.432 1.023,-1.182 1.35,-1.667l0.593,-0.88l-10.377,-0.044c-9.743,-0.04 -10.389,-0.025 -10.59,0.25c-0.117,0.162 -0.418,0.519 -0.668,0.794c-0.25,0.275 -0.66,0.804 -0.912,1.176c-0.251,0.372 -0.701,0.946 -0.998,1.276c-0.779,0.864 -1.064,1.216 -1.406,1.739c-0.166,0.255 -0.458,0.631 -0.647,0.836c-0.19,0.205 -0.901,1.108 -1.581,2.006c-0.68,0.898 -1.512,1.933 -1.849,2.3c-0.337,0.367 -0.878,1.063 -1.203,1.546c-0.324,0.484 -0.822,1.113 -1.106,1.397c-0.284,0.284 -0.767,0.901 -1.074,1.37c-0.306,0.47 -0.79,1.116 -1.077,1.437c-0.286,0.321 -0.619,0.696 -0.741,0.833c-0.121,0.138 -0.401,0.506 -0.622,0.819c-0.221,0.312 -0.579,0.762 -0.795,1c-0.216,0.237 -0.623,0.75 -0.904,1.14c-0.28,0.389 -0.572,0.708 -0.648,0.708c-0.076,0 -0.141,0.094 -0.145,0.208c-0.003,0.115 -0.265,0.509 -0.581,0.875l-0.574,0.667l-0.003,-21.875l-0.002,-21.875l-7.667,0l-7.667,0l0,43.417m-124.552,-38.309c-0.063,0.063 -0.114,18.402 -0.114,40.753l0,40.639l7.916,0l7.917,0l0,-12.5l0,-12.5l5.213,0l5.212,0l0.913,1.197c0.501,0.658 1.198,1.614 1.547,2.125c0.349,0.51 0.73,1.003 0.847,1.095c0.116,0.091 0.54,0.654 0.942,1.25c0.401,0.595 0.774,1.12 0.827,1.166c0.054,0.046 0.462,0.571 0.908,1.167c0.445,0.596 0.924,1.177 1.065,1.292c0.141,0.114 0.205,0.208 0.142,0.208c-0.097,0 0.564,0.937 1.192,1.69c0.104,0.125 0.453,0.564 0.775,0.977c0.322,0.412 0.66,0.84 0.752,0.951c0.091,0.111 0.165,0.252 0.165,0.315c0,0.062 0.402,0.609 0.893,1.215c0.491,0.606 1.035,1.327 1.208,1.602c0.174,0.275 0.447,0.65 0.607,0.833c0.718,0.822 1.959,2.412 1.959,2.511c0,0.116 0.884,1.278 1.388,1.823c0.17,0.183 0.664,0.859 1.098,1.502c0.434,0.642 0.98,1.374 1.212,1.625l0.423,0.456l9.773,0c5.375,0 9.772,-0.045 9.772,-0.099c0,-0.107 -1.566,-2.28 -2.255,-3.13c-0.569,-0.7 -3.365,-4.443 -4.015,-5.373c-0.285,-0.409 -0.703,-0.951 -0.928,-1.203c-0.435,-0.488 -3.523,-4.575 -4.42,-5.849c-0.293,-0.418 -0.829,-1.103 -1.19,-1.522c-0.361,-0.419 -0.885,-1.133 -1.165,-1.588c-0.28,-0.455 -0.681,-0.986 -0.893,-1.18c-0.211,-0.195 -0.646,-0.74 -0.967,-1.212c-0.321,-0.472 -1.071,-1.463 -1.667,-2.202c-0.596,-0.74 -1.158,-1.468 -1.249,-1.618c-0.265,-0.436 -1.466,-2.062 -1.863,-2.521c-0.199,-0.231 -0.643,-0.832 -0.987,-1.336c-0.344,-0.504 -0.744,-1.005 -0.888,-1.113c-0.252,-0.187 0.846,-1.376 2.205,-2.387c2.204,-1.641 5.299,-5.955 6.755,-9.417c3.099,-7.364 3.117,-16.694 0.045,-22.715c-0.193,-0.379 -0.351,-0.799 -0.351,-0.933c0,-0.135 -0.103,-0.347 -0.228,-0.473c-0.125,-0.125 -0.278,-0.386 -0.339,-0.578c-0.062,-0.193 -0.521,-0.963 -1.022,-1.712c-0.501,-0.748 -0.911,-1.404 -0.911,-1.458c0,-0.334 -2.869,-3.497 -4.107,-4.527c-0.262,-0.218 -0.814,-0.697 -1.226,-1.066c-1.141,-1.019 -6,-4.03 -6,-3.718c0,0.051 -0.394,-0.082 -0.875,-0.294c-2.266,-1.002 -5.35,-1.812 -7.959,-2.09c-1.648,-0.175 -27.881,-0.249 -28.052,-0.078m247.497,0.003c-0.061,0.061 -0.111,3.736 -0.111,8.167l0,8.055l-3.917,0l-3.917,0l0,7.917l0,7.917l3.917,0l3.917,0l0.002,13.958c0.004,16.531 0.103,18.149 1.364,22.208c0.415,1.336 2.3,5.019 3.019,5.901c2.119,2.595 3.788,4.266 4.264,4.266c0.101,0 0.184,0.067 0.184,0.149c0,0.931 6.956,4.007 10.083,4.457c4.082,0.588 11.714,-0.679 15,-2.49c0.184,-0.101 0.409,-0.197 0.5,-0.213c0.328,-0.058 2.25,-1.255 2.25,-1.401c0,-0.082 -0.076,-0.196 -0.168,-0.253c-0.093,-0.058 -0.441,-0.531 -0.773,-1.052c-0.332,-0.521 -0.763,-1.109 -0.959,-1.306c-0.196,-0.197 -0.652,-0.797 -1.014,-1.333c-0.559,-0.826 -1.296,-1.813 -2.002,-2.679c-0.43,-0.526 -0.79,-1.023 -1.243,-1.712c-0.271,-0.413 -0.755,-1.05 -1.076,-1.417c-0.32,-0.367 -0.755,-0.958 -0.965,-1.313c-0.868,-1.466 -1.336,-1.839 -2.02,-1.614c-0.337,0.112 -0.613,0.26 -0.613,0.329c0,0.069 -0.094,0.135 -0.208,0.146c-0.115,0.011 -0.769,0.219 -1.454,0.461c-2.899,1.025 -5.942,-0.086 -7.858,-2.872c-0.517,-0.751 -0.625,-1.086 -0.979,-3.054c-0.101,-0.558 -0.166,-6.436 -0.167,-15.041l-0.001,-14.125l6.334,0l6.333,0l0,-7.917l0,-7.917l-6.333,0l-6.334,0l0,-8.166l0,-8.167l-7.472,0c-4.11,0 -7.522,0.05 -7.583,0.111m-162.705,14.705c-0.043,0.042 -0.48,0.102 -0.972,0.131c-1.123,0.068 -3.683,0.711 -5.197,1.306c-2.649,1.042 -4.237,1.771 -4.237,1.944c0,0.075 -0.102,0.136 -0.226,0.136c-0.125,0 -0.556,0.252 -0.959,0.559c-0.402,0.307 -0.975,0.683 -1.272,0.836c-1.014,0.523 -4.298,3.578 -5.846,5.439c-0.843,1.013 -1.864,2.336 -1.864,2.415c0,0.048 -0.225,0.398 -0.5,0.778c-0.275,0.379 -0.5,0.767 -0.5,0.86c0,0.094 -0.104,0.289 -0.232,0.434c-0.286,0.324 -2.086,3.857 -2.184,4.285c-0.039,0.171 -0.337,1.023 -0.662,1.894c-0.909,2.434 -1.659,5.405 -1.831,7.25c-0.446,4.795 -0.446,6.346 -0.003,11.907c0.126,1.582 0.998,5.07 1.815,7.26c0.66,1.769 0.764,2.073 0.726,2.127c-0.057,0.08 2.077,4.048 2.33,4.331c0.142,0.161 0.205,0.292 0.139,0.292c-0.106,0 0.483,0.943 0.727,1.167c0.051,0.045 0.167,0.202 0.258,0.348c0.547,0.871 1.952,2.661 2.667,3.399c0.458,0.473 1.028,1.08 1.265,1.348c0.485,0.548 3.397,2.95 3.704,3.056c0.109,0.038 0.761,0.45 1.449,0.917c1.843,1.25 4.96,2.583 7.604,3.251c6.987,1.765 15.086,0.463 19.701,-3.167c0.629,-0.495 0.694,-0.407 0.694,0.931l0,1.25l7.583,0l7.583,0l0,-32.583l0,-32.584l-7.583,0l-7.583,0l0,1.334c0,1.464 -0.005,1.471 -0.641,1.019c-2.452,-1.74 -8.909,-4.189 -9.971,-3.781c-0.116,0.044 -0.253,0.013 -0.303,-0.069c-0.092,-0.149 -5.531,-0.168 -5.679,-0.02m220.344,0.032c-0.459,0.069 -1.127,0.166 -1.485,0.217c-2.799,0.399 -7.365,2.18 -9.834,3.836c-0.628,0.421 -1.177,0.766 -1.219,0.766c-0.389,0 -3.507,2.873 -5.068,4.669c-1.437,1.654 -1.811,2.118 -1.811,2.247c0,0.066 -0.213,0.392 -0.474,0.726c-0.261,0.334 -0.677,0.945 -0.924,1.358c-0.247,0.412 -0.517,0.862 -0.599,1c-0.757,1.264 -2.815,6.065 -2.916,6.8c-0.034,0.247 -0.255,1.162 -0.492,2.033c-3.518,12.934 -0.116,26.804 8.746,35.66c1.603,1.602 4.936,4.34 5.284,4.34c0.086,0 0.622,0.301 1.191,0.669c1.299,0.839 2.624,1.498 4.017,1.997c0.596,0.214 1.159,0.442 1.25,0.508c0.263,0.188 3.026,0.941 4.584,1.249c1.737,0.344 5.686,0.467 7.871,0.246c2.767,-0.281 4.032,-0.595 7.962,-1.977c1.447,-0.508 4.305,-2.006 4.671,-2.447c0.112,-0.135 0.296,-0.245 0.409,-0.245c0.191,0 1.558,-0.965 2.059,-1.454c0.123,-0.12 0.498,-0.421 0.834,-0.67c0.809,-0.6 3.653,-3.439 4.348,-4.341c0.303,-0.394 0.843,-1.028 1.198,-1.41c0.356,-0.381 0.648,-0.791 0.648,-0.909c0,-0.119 0.056,-0.217 0.125,-0.217c0.188,-0.002 0.546,-0.856 0.435,-1.036c-0.135,-0.219 -1.558,-1.108 -3.144,-1.964c-1.946,-1.052 -1.953,-1.056 -2.315,-1.375c-0.183,-0.161 -0.581,-0.382 -0.884,-0.492c-0.303,-0.109 -0.551,-0.254 -0.551,-0.321c0,-0.067 -0.164,-0.174 -0.365,-0.238c-0.298,-0.094 -1.959,-1.027 -2.735,-1.536c-0.101,-0.066 -0.493,-0.327 -0.871,-0.579c-0.379,-0.252 -0.784,-0.46 -0.9,-0.462c-0.117,-0.002 -0.399,-0.15 -0.629,-0.329c-0.579,-0.454 -1.5,-0.052 -1.5,0.654c0,0.083 -0.057,0.176 -0.128,0.207c-0.07,0.03 -0.426,0.429 -0.791,0.885c-0.365,0.456 -0.887,1.019 -1.16,1.25c-0.273,0.231 -0.974,0.852 -1.558,1.379c-0.585,0.527 -1.143,0.958 -1.24,0.958c-0.097,0 -0.521,0.221 -0.941,0.49c-8.275,5.308 -19.274,-0.832 -21.852,-12.198l-0.293,-1.291l21.269,-0.042l21.268,-0.042l0.112,-0.667c1.005,-6.018 0.242,-14.445 -1.751,-19.341c-0.521,-1.28 -2.382,-4.993 -2.649,-5.285c-0.111,-0.122 -0.277,-0.338 -0.369,-0.481c-0.854,-1.33 -1.632,-2.369 -2.332,-3.113c-0.459,-0.488 -0.861,-0.962 -0.894,-1.054c-0.084,-0.235 -4.192,-3.808 -4.329,-3.765c-0.061,0.02 -0.599,-0.311 -1.195,-0.734c-4.385,-3.118 -12.472,-4.964 -18.083,-4.129m63.406,0.047c-0.04,0.038 -0.523,0.118 -1.073,0.178c-2.25,0.247 -6.812,1.842 -8.7,3.043c-1.111,0.706 -1.05,0.742 -1.05,-0.618l0,-1.168l-7.542,0.043l-7.541,0.044l-0.042,32.541l-0.043,32.542l7.584,0l7.584,0l0,-19.553c0,-12.067 0.063,-19.899 0.164,-20.458c0.09,-0.498 0.195,-1.177 0.234,-1.51c0.347,-2.942 3.728,-7.126 6.781,-8.392c3.382,-1.402 5.957,-1.428 9.416,-0.098c1.502,0.578 1.66,0.681 3.196,2.094c1.257,1.157 3.754,4.75 3.3,4.75c-0.046,0 -0.004,0.207 0.092,0.459c0.758,1.986 0.724,1.044 0.815,22.625l0.085,20.333l7.548,0.043l7.548,0.044l-0.064,-20.877c-0.069,-22.692 -0.018,-21.4 -1.027,-25.761c-1.049,-4.531 -3.706,-9.319 -7.002,-12.62c-1.642,-1.644 -3.089,-2.912 -3.323,-2.912c-0.065,0 -0.357,-0.181 -0.649,-0.403c-0.867,-0.657 -3.077,-1.915 -3.571,-2.034c-0.253,-0.06 -0.535,-0.166 -0.626,-0.236c-0.629,-0.477 -4.874,-1.661 -6.834,-1.907c-1.062,-0.133 -5.163,-0.283 -5.26,-0.192m-338.92,1.811c1.632,0.61 3.064,1.427 3.988,2.275c1.09,1.002 1.955,1.965 2.149,2.394c0.115,0.252 0.254,0.458 0.31,0.458c0.209,0 1.491,3.012 1.748,4.109c0.363,1.546 0.247,4.597 -0.223,5.891c-0.312,0.858 -0.486,1.231 -1.534,3.281c-0.615,1.202 -2.999,3.421 -4.508,4.196c-2.961,1.521 -4.009,1.687 -10.625,1.689l-5.208,0.001l0,-12.509l0,-12.51l6.125,0.053l6.125,0.054l1.653,0.618m150.978,20.836c0.035,11.664 0.118,21.583 0.185,22.041c0.5,3.432 2.804,9.878 4.021,11.25c0.122,0.138 0.488,0.694 0.814,1.235c5.662,9.41 20.148,13.952 30.042,9.42c0.586,-0.269 1.176,-0.488 1.311,-0.488c0.135,0 0.246,-0.075 0.246,-0.167c0,-0.091 0.111,-0.166 0.247,-0.166c0.135,0 0.657,-0.263 1.158,-0.584c1.154,-0.738 1.095,-0.76 1.095,0.417l0,1l7.583,0l7.584,0l0,-32.583l0,-32.584l-7.579,0l-7.579,0l-0.052,20.292c-0.028,11.16 -0.104,20.48 -0.167,20.711c-0.919,3.333 -1.773,4.966 -3.604,6.888c-3.481,3.653 -9.272,4.476 -13.965,1.984c-0.945,-0.502 -3.721,-2.952 -3.721,-3.284c0,-0.114 -0.227,-0.52 -0.504,-0.903c-0.638,-0.88 -1.258,-2.276 -1.676,-3.771c-0.315,-1.129 -0.326,-1.817 -0.321,-21.542l0.005,-20.375l-7.593,0l-7.593,0l0.063,21.209m131.479,-7.94c4.213,1.227 8.062,5.436 8.861,9.69l0.228,1.208l-12.993,0l-12.993,0l0.107,-0.573c1.371,-7.308 9.657,-12.404 16.79,-10.325m-222.395,1.666c1.573,0.328 1.542,0.321 1.952,0.468c2.458,0.884 5.594,3.639 6.75,5.931c0.208,0.412 0.449,0.796 0.536,0.852c0.087,0.056 0.149,0.151 0.138,0.211c-0.012,0.061 0.199,0.577 0.469,1.148c1.016,2.151 1.238,3.094 1.695,7.205c0.342,3.075 -0.196,8.305 -1.062,10.321c-3.453,8.045 -9.091,11.366 -16.193,9.538c-11.24,-2.892 -14.555,-22.908 -5.331,-32.186c0.463,-0.465 0.986,-0.9 2.081,-1.728c2.135,-1.616 6.011,-2.376 8.965,-1.76m-10.464,62.607c0,0.115 4.263,4.468 9.473,9.675l9.472,9.467l1.819,-0.033c1,-0.018 2.456,-0.096 3.235,-0.175c4.405,-0.443 25.356,-2.298 26.833,-2.375c1.479,-0.077 7.257,-0.576 9.834,-0.849c2.103,-0.223 17.784,-1.583 20.166,-1.749c1.513,-0.105 3.05,-0.225 3.417,-0.266c2.024,-0.226 20.927,-1.893 22.333,-1.97c0.917,-0.049 4.142,-0.317 7.167,-0.595c13.492,-1.239 20.126,-1.82 21.75,-1.906c0.963,-0.051 5.425,-0.432 9.917,-0.847c13.228,-1.222 17.063,-1.558 18.916,-1.659c0.963,-0.053 2.125,-0.133 2.584,-0.177c0.458,-0.045 4.508,-0.418 9,-0.829c7.735,-0.709 11.827,-1.061 19.5,-1.678c1.833,-0.148 3.67,-0.302 4.083,-0.343c2.735,-0.27 13.978,-1.273 16.667,-1.487c14.795,-1.178 23.714,-2.033 23.574,-2.26c-0.158,-0.256 -239.741,-0.199 -239.74,0.056" id="path0"/>
   <path stroke="null" style="vector-effect: non-scaling-stroke;" fill-rule="evenodd" fill="#c80404" id="path1"/>
   <path stroke="null" style="vector-effect: non-scaling-stroke;" fill-rule="evenodd" fill="#c80404" id="path2"/>
   <path stroke="null" style="vector-effect: non-scaling-stroke;" fill-rule="evenodd" fill="#c80404" id="path3"/>
   <path stroke="null" style="vector-effect: non-scaling-stroke;" fill-rule="evenodd" fill="#c80404" id="path4"/>
  </g>
 </g>
</svg>