<svg width="1000" height="1000" xmlns="http://www.w3.org/2000/svg" version="1.1">

 <g>
  <title>Layer 1</title>
  <g stroke="null" transform="translate(1 324) translate(0.5 0.5) scale(2.48748 2.74647) translate(-0.5 -0.5)" style="vector-effect: non-scaling-stroke;" id="svgg">
   <path style="vector-effect: non-scaling-stroke;" stroke="null" fill-rule="evenodd" fill="#94d44c" d="m106.875,44.667l0.042,29.005l9.803,0c5.392,0 9.873,-0.043 9.958,-0.096c0.095,-0.058 0.155,-11.35 0.155,-28.997l0,-28.902l-10,-0.008l-10.001,-0.007l0.043,29.005" id="path0"/>
   <path style="vector-effect: non-scaling-stroke;" stroke="null" fill-rule="evenodd" fill="#046c94" d="m106.833,7.875l0,7.375l10,0l10,0l0,-7.375l0,-7.375l-10,0l-10,0l0,7.375m84.667,-0.042l0,7.334l-5.833,0l-5.834,0l0,7.5l0,7.5l5.834,0l5.833,0l0,15.333c0,10.111 0.057,15.333 0.167,15.333c0.091,0 0.166,0.375 0.166,0.834c0,0.458 0.075,0.833 0.167,0.833c0.092,0 0.167,0.258 0.167,0.573c0,0.316 0.075,0.62 0.166,0.677c0.092,0.057 0.167,0.282 0.167,0.5c0,0.218 0.075,0.443 0.167,0.5c0.091,0.057 0.166,0.249 0.166,0.427c0,0.177 0.075,0.323 0.167,0.323c0.092,0 0.167,0.15 0.167,0.333c0,0.184 0.075,0.334 0.166,0.334c0.092,0 0.167,0.133 0.167,0.296c0,0.163 0.15,0.405 0.333,0.537c0.184,0.132 0.334,0.346 0.334,0.476c0,0.129 0.134,0.356 0.299,0.504c0.165,0.149 0.481,0.532 0.703,0.853c0.501,0.725 0.607,0.83 1.331,1.331c0.321,0.222 0.705,0.538 0.853,0.703c0.148,0.165 0.34,0.3 0.427,0.3c0.086,0 0.303,0.131 0.48,0.291c0.178,0.161 0.624,0.448 0.99,0.638c0.367,0.19 0.835,0.434 1.042,0.542c0.879,0.458 1.05,0.529 1.289,0.529c0.139,0 0.252,0.075 0.252,0.166c0,0.092 0.225,0.167 0.5,0.167c0.275,0 0.5,0.075 0.5,0.167c0,0.091 0.225,0.166 0.5,0.166c0.275,0 0.5,0.075 0.5,0.167c0,0.092 0.3,0.167 0.667,0.167c0.367,0 0.667,0.075 0.667,0.166c0,0.092 0.368,0.167 0.819,0.167c0.508,0 0.846,0.079 0.889,0.208c0.054,0.162 1.571,0.209 6.839,0.209c5.193,0 6.818,-0.049 6.978,-0.209c0.114,-0.114 0.601,-0.208 1.081,-0.208c0.481,0 0.92,-0.075 0.977,-0.167c0.057,-0.091 0.399,-0.166 0.76,-0.166c0.361,0 0.657,-0.075 0.657,-0.167c0,-0.092 0.22,-0.167 0.49,-0.167c0.269,0 0.536,-0.075 0.593,-0.166c0.057,-0.092 0.286,-0.167 0.51,-0.167l0.407,0l0,-7.833c0,-7.723 -0.005,-7.834 -0.334,-7.834c-0.183,0 -0.333,0.075 -0.333,0.167c0,0.092 -0.15,0.167 -0.333,0.167c-0.184,0 -0.334,0.075 -0.334,0.166c0,0.092 -0.15,0.167 -0.333,0.167c-0.183,0 -0.333,0.075 -0.333,0.167c0,0.091 -0.221,0.166 -0.49,0.166c-0.27,0 -0.537,0.075 -0.594,0.167c-0.056,0.092 -0.544,0.167 -1.083,0.167c-0.539,0 -1.027,0.075 -1.083,0.166c-0.06,0.096 -0.947,0.167 -2.094,0.167c-1.215,0 -1.99,-0.065 -1.99,-0.167c0,-0.091 -0.375,-0.166 -0.833,-0.166c-0.458,0 -0.833,-0.075 -0.833,-0.167c0,-0.092 -0.225,-0.167 -0.5,-0.167c-0.275,0 -0.5,-0.075 -0.5,-0.166c0,-0.092 -0.123,-0.167 -0.272,-0.167c-0.15,0 -0.395,-0.131 -0.544,-0.292c-0.15,-0.16 -0.416,-0.371 -0.592,-0.469c-0.176,-0.098 -0.4,-0.322 -0.498,-0.498c-0.098,-0.176 -0.309,-0.442 -0.469,-0.592c-0.161,-0.149 -0.292,-0.394 -0.292,-0.544c0,-0.149 -0.075,-0.272 -0.167,-0.272c-0.091,0 -0.166,-0.15 -0.166,-0.333c0,-0.183 -0.075,-0.333 -0.167,-0.333c-0.092,0 -0.167,-0.3 -0.167,-0.667c0,-0.367 -0.075,-0.667 -0.166,-0.667c-0.101,0 -0.167,-0.691 -0.167,-1.74c0,-0.98 -0.073,-1.785 -0.167,-1.843c-0.108,-0.067 -0.166,-3.613 -0.166,-10.093l0,-9.99l8,0l8,0l0,-7.5l0,-7.5l-8,0l-8,0l0,-7.334l0,-7.333l-9.334,0l-9.333,0l0,7.333m-39.333,6.167c0,0.093 -0.445,0.167 -1,0.167c-0.556,0 -1,0.074 -1,0.166c0,0.092 -0.333,0.167 -0.74,0.167c-0.408,0 -0.787,0.075 -0.844,0.167c-0.056,0.091 -0.319,0.166 -0.583,0.166c-0.264,0 -0.527,0.075 -0.583,0.167c-0.057,0.092 -0.319,0.167 -0.584,0.167c-0.264,0 -0.526,0.075 -0.583,0.166c-0.057,0.092 -0.282,0.167 -0.5,0.167c-0.218,0 -0.443,0.075 -0.5,0.167c-0.057,0.091 -0.249,0.166 -0.427,0.166c-0.177,0 -0.323,0.075 -0.323,0.167c0,0.092 -0.131,0.166 -0.292,0.165c-0.373,-0.001 -3.041,1.337 -3.041,1.526c0,0.078 -0.15,0.142 -0.334,0.142c-0.183,0 -0.333,0.063 -0.333,0.139c0,0.076 -0.205,0.245 -0.455,0.375c-0.251,0.13 -0.675,0.443 -0.942,0.695c-0.267,0.252 -0.555,0.458 -0.639,0.458c-0.209,0 -2.631,2.491 -2.631,2.706c0,0.094 -0.131,0.293 -0.292,0.441c-0.162,0.148 -0.399,0.476 -0.529,0.728c-0.129,0.252 -0.297,0.458 -0.373,0.458c-0.077,0 -0.139,0.15 -0.139,0.334c0,0.183 -0.075,0.333 -0.167,0.333c-0.091,0 -0.166,0.15 -0.166,0.333c0,0.184 -0.075,0.334 -0.167,0.334c-0.092,0 -0.167,0.15 -0.167,0.333c0,0.183 -0.075,0.333 -0.166,0.333c-0.092,0 -0.167,0.146 -0.167,0.324c0,0.178 -0.075,0.37 -0.167,0.426c-0.091,0.057 -0.166,0.282 -0.166,0.5c0,0.219 -0.075,0.444 -0.167,0.5c-0.092,0.057 -0.167,0.361 -0.167,0.677c0,0.315 -0.075,0.573 -0.166,0.573c-0.093,0 -0.167,0.445 -0.167,1c0,0.556 -0.074,1 -0.167,1c-0.104,0 -0.166,1 -0.166,2.667c0,1.667 0.062,2.667 0.166,2.667c0.093,0 0.167,0.444 0.167,1c0,0.555 0.074,1 0.167,1c0.091,0 0.166,0.3 0.166,0.666c0,0.367 0.075,0.667 0.167,0.667c0.092,0 0.167,0.183 0.167,0.407c0,0.224 0.075,0.453 0.166,0.51c0.092,0.056 0.167,0.248 0.167,0.426c0,0.178 0.075,0.324 0.167,0.324c0.091,0 0.166,0.15 0.166,0.333c0,0.183 0.075,0.333 0.167,0.333c0.092,0 0.167,0.134 0.167,0.297c0,0.163 0.15,0.405 0.333,0.537c0.183,0.132 0.333,0.34 0.333,0.463c0,0.25 3.106,3.37 3.354,3.37c0.088,0 0.321,0.15 0.518,0.333c0.197,0.184 0.456,0.334 0.576,0.334c0.121,0 0.219,0.075 0.219,0.166c0,0.092 0.15,0.167 0.333,0.167c0.184,0 0.334,0.075 0.334,0.167c0,0.091 0.15,0.166 0.333,0.166c0.183,0 0.333,0.075 0.333,0.167c0,0.092 0.15,0.167 0.334,0.167c0.183,0 0.333,0.075 0.333,0.166c0,0.092 0.15,0.167 0.333,0.167c0.184,0 0.334,0.075 0.334,0.167c0,0.091 0.151,0.166 0.335,0.166c0.185,0 0.504,0.087 0.709,0.193c0.8,0.414 0.962,0.474 1.277,0.474c0.179,0 0.372,0.075 0.429,0.167c0.056,0.091 0.361,0.166 0.676,0.166c0.316,0 0.574,0.075 0.574,0.167c0,0.092 0.22,0.167 0.49,0.167c0.269,0 0.536,0.075 0.593,0.166c0.057,0.092 0.357,0.167 0.667,0.167c0.31,0 0.61,0.075 0.666,0.167c0.057,0.091 0.436,0.166 0.844,0.166c0.407,0 0.74,0.075 0.74,0.167c0,0.092 0.295,0.167 0.656,0.167c0.362,0 0.704,0.075 0.76,0.166c0.057,0.092 0.436,0.167 0.844,0.167c0.407,0 0.74,0.075 0.74,0.167c0,0.091 0.333,0.166 0.74,0.166c0.407,0 0.786,0.075 0.843,0.167c0.057,0.092 0.399,0.167 0.76,0.167c0.361,0 0.657,0.075 0.657,0.166c0,0.092 0.22,0.167 0.49,0.167c0.269,0 0.536,0.075 0.593,0.167c0.057,0.091 0.361,0.166 0.677,0.166c0.315,0 0.573,0.075 0.573,0.167c0,0.092 0.225,0.167 0.5,0.167c0.275,0 0.5,0.075 0.5,0.166c0,0.092 0.15,0.167 0.333,0.167c0.184,0 0.334,0.075 0.334,0.167c0,0.091 0.117,0.166 0.261,0.166c0.35,0 2.072,1.711 2.072,2.058c0,0.152 0.075,0.276 0.167,0.276c0.091,0 0.166,0.375 0.166,0.833c0,0.458 -0.075,0.833 -0.166,0.833c-0.092,0 -0.167,0.115 -0.167,0.256c0,0.576 -2.051,2.078 -2.839,2.078c-0.17,0 -0.354,0.075 -0.411,0.166c-0.057,0.092 -0.399,0.167 -0.76,0.167c-0.361,0 -0.657,0.075 -0.657,0.167c0,0.104 -1.024,0.166 -2.74,0.166c-1.647,0 -2.781,-0.066 -2.843,-0.166c-0.057,-0.092 -0.399,-0.167 -0.76,-0.167c-0.361,0 -0.657,-0.075 -0.657,-0.167c0,-0.091 -0.225,-0.166 -0.5,-0.166c-0.275,0 -0.5,-0.075 -0.5,-0.167c0,-0.092 -0.225,-0.167 -0.5,-0.167c-0.275,0 -0.5,-0.075 -0.5,-0.166c0,-0.092 -0.15,-0.167 -0.333,-0.167c-0.183,0 -0.333,-0.075 -0.333,-0.167c0,-0.091 -0.15,-0.166 -0.334,-0.166c-0.183,0 -0.333,-0.075 -0.333,-0.167c0,-0.092 -0.094,-0.167 -0.208,-0.167c-0.115,0 -0.471,-0.225 -0.792,-0.5c-0.321,-0.274 -0.643,-0.499 -0.716,-0.499c-0.074,0 -0.88,-0.751 -1.792,-1.667c-0.912,-0.917 -1.735,-1.667 -1.828,-1.667c-0.22,0 -2.796,2.579 -3.329,3.333c-0.227,0.321 -1.053,1.221 -1.835,2c-0.782,0.779 -1.608,1.679 -1.835,2c-0.227,0.321 -1.094,1.265 -1.926,2.099c-1.831,1.831 -2.406,2.562 -2.406,3.059c0,0.356 1.367,1.842 1.695,1.842c0.078,0 0.377,0.225 0.665,0.5c0.288,0.275 0.59,0.5 0.672,0.5c0.082,0 0.31,0.15 0.507,0.334c0.197,0.183 0.456,0.333 0.576,0.333c0.12,0 0.219,0.075 0.219,0.167c0,0.091 0.15,0.166 0.333,0.166c0.183,0 0.333,0.075 0.333,0.167c0,0.092 0.15,0.167 0.334,0.167c0.183,0 0.334,0.056 0.334,0.125c0.002,0.149 0.809,0.541 1.116,0.541c0.119,0 0.216,0.075 0.216,0.167c0,0.092 0.15,0.167 0.334,0.167c0.183,0 0.333,0.075 0.333,0.166c0,0.092 0.183,0.167 0.407,0.167c0.224,0 0.453,0.075 0.51,0.167c0.056,0.091 0.248,0.166 0.426,0.166c0.178,0 0.324,0.075 0.324,0.167c0,0.092 0.225,0.167 0.5,0.167c0.275,0 0.5,0.075 0.5,0.166c0,0.092 0.3,0.167 0.666,0.167c0.367,0 0.667,0.075 0.667,0.167c0,0.091 0.3,0.166 0.667,0.166c0.366,0 0.666,0.075 0.666,0.167c0,0.092 0.296,0.167 0.657,0.167c0.361,0 0.703,0.075 0.76,0.166c0.057,0.092 0.505,0.167 0.996,0.167c0.566,0 0.918,0.076 0.962,0.208c0.102,0.304 14.149,0.304 14.25,0c0.045,-0.135 0.415,-0.208 1.056,-0.208c0.546,0 0.986,-0.074 0.986,-0.167c0,-0.091 0.375,-0.166 0.833,-0.166c0.459,0 0.834,-0.075 0.834,-0.167c0,-0.092 0.3,-0.167 0.666,-0.167c0.367,0 0.667,-0.075 0.667,-0.166c0,-0.092 0.225,-0.167 0.5,-0.167c0.275,0 0.5,-0.075 0.5,-0.167c0,-0.091 0.258,-0.166 0.573,-0.166c0.316,0 0.62,-0.075 0.677,-0.167c0.057,-0.092 0.249,-0.167 0.427,-0.167c0.177,0 0.323,-0.075 0.323,-0.166c0,-0.092 0.183,-0.167 0.407,-0.167c0.224,0 0.453,-0.075 0.51,-0.167c0.056,-0.091 0.248,-0.166 0.426,-0.166c0.178,0 0.324,-0.075 0.324,-0.167c0,-0.092 0.15,-0.167 0.333,-0.167c0.183,0 0.333,-0.075 0.333,-0.166c0,-0.092 0.15,-0.167 0.334,-0.167c0.183,0 0.333,-0.075 0.333,-0.167c0,-0.091 0.116,-0.166 0.257,-0.166c0.141,0 0.418,-0.15 0.615,-0.334c0.197,-0.183 0.456,-0.333 0.576,-0.333c0.12,0 0.219,-0.075 0.219,-0.167c0,-0.091 0.103,-0.166 0.23,-0.166c0.126,0 0.539,-0.3 0.916,-0.667c0.378,-0.367 0.748,-0.667 0.821,-0.667c0.212,0 1.258,-1.026 1.699,-1.666c0.221,-0.321 0.518,-0.696 0.66,-0.834c0.143,-0.137 0.365,-0.456 0.495,-0.708c0.129,-0.252 0.297,-0.458 0.373,-0.458c0.077,0 0.139,-0.15 0.139,-0.334c0,-0.183 0.075,-0.333 0.167,-0.333c0.091,0 0.166,-0.15 0.166,-0.333c0,-0.184 0.075,-0.334 0.167,-0.334c0.092,0 0.167,-0.15 0.167,-0.333c0,-0.183 0.075,-0.333 0.166,-0.333c0.092,0 0.167,-0.146 0.167,-0.324c0,-0.178 0.075,-0.37 0.167,-0.426c0.091,-0.057 0.166,-0.282 0.166,-0.5c0,-0.219 0.075,-0.444 0.167,-0.5c0.092,-0.057 0.167,-0.357 0.167,-0.667c0,-0.31 0.075,-0.61 0.166,-0.667c0.092,-0.056 0.167,-0.619 0.167,-1.25c0,-0.631 0.075,-1.193 0.167,-1.25c0.093,-0.058 0.166,-0.859 0.166,-1.833c0,-0.974 -0.073,-1.775 -0.166,-1.833c-0.092,-0.057 -0.167,-0.624 -0.167,-1.26c0,-0.66 -0.072,-1.157 -0.167,-1.157c-0.091,0 -0.166,-0.3 -0.166,-0.667c0,-0.366 -0.075,-0.666 -0.167,-0.666c-0.092,0 -0.167,-0.225 -0.167,-0.5c0,-0.275 -0.075,-0.5 -0.166,-0.5c-0.092,0 -0.167,-0.148 -0.167,-0.329c0,-0.181 -0.191,-0.65 -0.424,-1.042c-0.233,-0.392 -0.467,-0.844 -0.519,-1.004c-0.053,-0.161 -0.162,-0.292 -0.243,-0.292c-0.081,0 -0.147,-0.106 -0.147,-0.236c0,-0.302 -2.934,-3.27 -3.542,-3.584c-0.252,-0.13 -0.458,-0.299 -0.458,-0.375c0,-0.076 -0.099,-0.138 -0.219,-0.138c-0.12,0 -0.379,-0.15 -0.576,-0.334c-0.197,-0.183 -0.474,-0.333 -0.615,-0.333c-0.141,0 -0.257,-0.075 -0.257,-0.167c0,-0.091 -0.15,-0.166 -0.333,-0.166c-0.184,0 -0.334,-0.075 -0.334,-0.167c0,-0.092 -0.15,-0.167 -0.333,-0.167c-0.183,0 -0.333,-0.075 -0.333,-0.166c0,-0.092 -0.146,-0.167 -0.324,-0.167c-0.178,0 -0.37,-0.075 -0.426,-0.167c-0.057,-0.091 -0.286,-0.166 -0.51,-0.166c-0.224,0 -0.407,-0.075 -0.407,-0.167c0,-0.092 -0.225,-0.167 -0.5,-0.167c-0.275,0 -0.5,-0.075 -0.5,-0.166c0,-0.092 -0.225,-0.167 -0.5,-0.167c-0.275,0 -0.5,-0.075 -0.5,-0.167c0,-0.091 -0.225,-0.166 -0.5,-0.166c-0.275,0 -0.5,-0.075 -0.5,-0.167c0,-0.092 -0.3,-0.167 -0.667,-0.167c-0.366,0 -0.666,-0.075 -0.666,-0.166c0,-0.092 -0.3,-0.167 -0.667,-0.167c-0.367,0 -0.667,-0.075 -0.667,-0.167c0,-0.091 -0.3,-0.166 -0.666,-0.166c-0.367,0 -0.667,-0.075 -0.667,-0.167c0,-0.092 -0.375,-0.167 -0.833,-0.167c-0.459,0 -0.834,-0.075 -0.834,-0.166c0,-0.092 -0.295,-0.167 -0.656,-0.167c-0.362,0 -0.704,-0.075 -0.76,-0.167c-0.057,-0.091 -0.436,-0.166 -0.844,-0.166c-0.407,0 -0.74,-0.075 -0.74,-0.167c0,-0.092 -0.3,-0.167 -0.666,-0.167c-0.367,0 -0.667,-0.075 -0.667,-0.166c0,-0.092 -0.3,-0.167 -0.667,-0.167c-0.366,0 -0.666,-0.075 -0.666,-0.167c0,-0.091 -0.225,-0.166 -0.5,-0.166c-0.275,0 -0.5,-0.075 -0.5,-0.167c0,-0.092 -0.225,-0.167 -0.5,-0.167c-0.275,0 -0.5,-0.075 -0.5,-0.166c0,-0.092 -0.15,-0.167 -0.334,-0.167c-0.183,0 -0.333,-0.075 -0.333,-0.167c0,-0.091 -0.117,-0.166 -0.261,-0.166c-0.143,0 -0.668,-0.408 -1.167,-0.906l-0.905,-0.906l0,-1.094c0,-0.618 0.072,-1.094 0.166,-1.094c0.092,0 0.167,-0.15 0.167,-0.334c0,-0.183 0.059,-0.333 0.131,-0.333c0.072,0 0.263,-0.225 0.426,-0.5c0.162,-0.275 0.387,-0.5 0.499,-0.5c0.112,0 0.312,-0.15 0.444,-0.333c0.132,-0.184 0.374,-0.334 0.537,-0.334c0.163,0 0.296,-0.075 0.296,-0.166c0,-0.092 0.225,-0.167 0.5,-0.167c0.275,0 0.5,-0.075 0.5,-0.167c0,-0.091 0.375,-0.166 0.834,-0.166c0.458,0 0.833,-0.075 0.833,-0.167c0,-0.093 0.444,-0.167 1,-0.167c0.556,0 1,0.074 1,0.167c0,0.093 0.444,0.167 1,0.167c0.556,0 1,0.074 1,0.166c0,0.092 0.3,0.167 0.667,0.167c0.366,0 0.666,0.075 0.666,0.167c0,0.091 0.15,0.166 0.334,0.166c0.183,0 0.333,0.075 0.333,0.167c0,0.092 0.173,0.167 0.385,0.167c0.212,0 0.546,0.15 0.743,0.333c0.197,0.183 0.474,0.333 0.615,0.333c0.141,0 0.257,0.063 0.257,0.139c0,0.076 0.206,0.245 0.458,0.375c0.252,0.13 0.961,0.743 1.576,1.361c1.542,1.554 1.19,1.734 6.03,-3.083c2.326,-2.315 4.833,-4.733 5.571,-5.375c1.628,-1.417 1.68,-1.652 0.588,-2.683c-0.427,-0.404 -0.847,-0.734 -0.933,-0.734c-0.086,0 -0.366,-0.225 -0.623,-0.5c-0.257,-0.275 -0.571,-0.5 -0.697,-0.5c-0.126,0 -0.338,-0.15 -0.47,-0.333c-0.132,-0.183 -0.339,-0.333 -0.46,-0.333c-0.122,0 -0.382,-0.15 -0.578,-0.334c-0.197,-0.183 -0.457,-0.333 -0.577,-0.333c-0.12,0 -0.218,-0.075 -0.218,-0.167c0,-0.091 -0.15,-0.166 -0.334,-0.166c-0.183,0 -0.333,-0.075 -0.333,-0.167c0,-0.092 -0.114,-0.167 -0.252,-0.167c-0.139,0 -0.402,-0.075 -0.584,-0.166c-0.182,-0.092 -0.48,-0.242 -0.662,-0.334c-0.182,-0.091 -0.444,-0.166 -0.583,-0.166c-0.139,0 -0.252,-0.075 -0.252,-0.167c0,-0.092 -0.225,-0.167 -0.5,-0.167c-0.275,0 -0.5,-0.075 -0.5,-0.166c0,-0.092 -0.225,-0.167 -0.5,-0.167c-0.275,0 -0.5,-0.075 -0.5,-0.167c0,-0.091 -0.221,-0.166 -0.49,-0.166c-0.27,0 -0.537,-0.075 -0.594,-0.167c-0.056,-0.092 -0.356,-0.167 -0.666,-0.167c-0.31,0 -0.61,-0.075 -0.667,-0.166c-0.057,-0.092 -0.432,-0.167 -0.833,-0.167c-0.402,0 -0.777,-0.075 -0.834,-0.167c-0.056,-0.091 -0.581,-0.166 -1.166,-0.166c-0.585,0 -1.11,-0.075 -1.167,-0.167c-0.065,-0.105 -2.03,-0.167 -5.343,-0.167c-3.383,0 -5.24,0.059 -5.24,0.167m111.666,0c0,0.092 -0.333,0.167 -0.74,0.167c-0.407,0 -0.786,0.075 -0.843,0.166c-0.057,0.092 -0.324,0.167 -0.593,0.167c-0.27,0 -0.49,0.075 -0.49,0.167c0,0.091 -0.225,0.166 -0.5,0.166c-0.275,0 -0.5,0.075 -0.5,0.167c0,0.092 -0.15,0.167 -0.334,0.167c-0.183,0 -0.333,0.075 -0.333,0.166c0,0.092 -0.15,0.167 -0.333,0.167c-0.184,0 -0.334,0.075 -0.334,0.167c0,0.091 -0.15,0.166 -0.333,0.166c-0.183,0 -0.333,0.075 -0.333,0.167c0,0.092 -0.094,0.167 -0.209,0.167c-0.114,0 -0.471,0.225 -0.791,0.5c-0.321,0.274 -0.641,0.499 -0.711,0.499c-0.177,0.001 -3.289,3.13 -3.289,3.307c0,0.079 -0.225,0.38 -0.5,0.667c-0.275,0.288 -0.5,0.62 -0.5,0.738c0,0.118 -0.15,0.323 -0.334,0.455c-0.183,0.132 -0.333,0.34 -0.333,0.461c0,0.121 -0.15,0.381 -0.333,0.578l-0.334,0.358l0,-4.282l0,-4.281l-9.333,0l-9.333,0l0,29.333l0,29.333l9.333,0l9.333,0l0,-13.823c0,-9.036 0.058,-13.859 0.167,-13.927c0.095,-0.059 0.167,-0.918 0.167,-2.01c0,-1.16 0.065,-1.906 0.166,-1.906c0.093,0 0.167,-0.445 0.167,-1c0,-0.556 0.074,-1 0.167,-1c0.091,0 0.166,-0.3 0.166,-0.667c0,-0.367 0.075,-0.667 0.167,-0.667c0.092,0 0.167,-0.225 0.167,-0.5c0,-0.275 0.075,-0.5 0.166,-0.5c0.092,0 0.167,-0.145 0.167,-0.323c0,-0.178 0.075,-0.37 0.167,-0.427c0.091,-0.056 0.166,-0.234 0.166,-0.395c0,-0.16 0.15,-0.453 0.334,-0.65c0.183,-0.196 0.333,-0.456 0.333,-0.578c0,-0.121 0.15,-0.328 0.333,-0.46c0.184,-0.132 0.334,-0.344 0.334,-0.47c0,-0.268 1.464,-1.697 1.739,-1.697c0.103,0 0.295,-0.15 0.427,-0.333c0.132,-0.183 0.374,-0.333 0.537,-0.333c0.163,0 0.297,-0.075 0.297,-0.167c0,-0.092 0.15,-0.167 0.333,-0.167c0.183,0 0.333,-0.075 0.333,-0.166c0,-0.092 0.15,-0.167 0.334,-0.167c0.183,0 0.333,-0.075 0.333,-0.167c0,-0.091 0.225,-0.166 0.5,-0.166c0.275,0 0.5,-0.075 0.5,-0.167c0,-0.092 0.258,-0.167 0.573,-0.167c0.316,0 0.62,-0.075 0.677,-0.166c0.057,-0.092 0.474,-0.167 0.927,-0.167c0.452,0 0.823,-0.075 0.823,-0.167c0,-0.105 1.222,-0.166 3.333,-0.166c2.111,0 3.334,0.061 3.334,0.166c0,0.093 0.444,0.167 1,0.167c0.555,0 1,0.074 1,0.167c0,0.091 0.3,0.166 0.666,0.166c0.367,0 0.667,0.075 0.667,0.167c0,0.092 0.375,0.167 0.833,0.167l0.834,0l0,-8.5l0,-8.5l-0.667,0c-0.367,0 -0.667,-0.075 -0.667,-0.167c0,-0.107 -1.611,-0.167 -4.5,-0.167c-2.889,0 -4.5,0.06 -4.5,0.167m35.667,0c0,0.094 -0.469,0.167 -1.073,0.167c-0.591,0 -1.12,0.075 -1.177,0.166c-0.057,0.092 -0.394,0.167 -0.75,0.167c-0.356,0 -0.693,0.075 -0.75,0.167c-0.057,0.091 -0.357,0.166 -0.667,0.166c-0.31,0 -0.61,0.075 -0.666,0.167c-0.057,0.092 -0.361,0.167 -0.677,0.167c-0.315,0 -0.573,0.075 -0.573,0.166c0,0.092 -0.225,0.167 -0.5,0.167c-0.275,0 -0.5,0.075 -0.5,0.167c0,0.091 -0.225,0.166 -0.5,0.166c-0.275,0 -0.5,0.075 -0.5,0.167c0,0.092 -0.15,0.167 -0.334,0.167c-0.183,0 -0.333,0.075 -0.333,0.166c0,0.092 -0.225,0.167 -0.5,0.167c-0.275,0 -0.5,0.075 -0.5,0.167c0,0.091 -0.15,0.166 -0.333,0.166c-0.184,0 -0.334,0.075 -0.334,0.167c0,0.092 -0.15,0.167 -0.333,0.167c-0.183,0 -0.333,0.075 -0.333,0.166c0,0.092 -0.15,0.167 -0.334,0.167c-0.183,0 -0.333,0.075 -0.333,0.167c0,0.091 -0.15,0.166 -0.333,0.166c-0.184,0 -0.334,0.075 -0.334,0.167c0,0.092 -0.115,0.167 -0.257,0.167c-0.141,0 -0.418,0.15 -0.614,0.333c-0.197,0.183 -0.457,0.333 -0.577,0.333c-0.12,0 -0.218,0.075 -0.218,0.167c0,0.092 -0.094,0.167 -0.209,0.167c-0.114,0 -0.471,0.225 -0.791,0.5c-0.321,0.274 -0.65,0.499 -0.731,0.499c-0.081,0 -0.268,0.135 -0.416,0.3c-0.149,0.165 -0.533,0.483 -0.853,0.707c-0.699,0.489 -4,3.762 -4,3.967c0,0.079 -0.225,0.379 -0.5,0.667c-0.275,0.288 -0.501,0.58 -0.501,0.65c0,0.069 -0.225,0.389 -0.499,0.71c-0.275,0.321 -0.5,0.677 -0.5,0.791c0,0.115 -0.075,0.209 -0.167,0.209c-0.092,0 -0.167,0.115 -0.167,0.257c0,0.141 -0.15,0.418 -0.333,0.614c-0.183,0.197 -0.333,0.457 -0.333,0.577c0,0.12 -0.075,0.218 -0.167,0.218c-0.092,0 -0.167,0.15 -0.167,0.334c0,0.183 -0.075,0.333 -0.166,0.333c-0.092,0 -0.167,0.146 -0.167,0.323c0,0.178 -0.075,0.37 -0.167,0.427c-0.091,0.057 -0.166,0.286 -0.166,0.51c0,0.224 -0.075,0.407 -0.167,0.407c-0.092,0 -0.167,0.15 -0.167,0.333c0,0.183 -0.075,0.333 -0.166,0.333c-0.092,0 -0.167,0.225 -0.167,0.5c0,0.275 -0.075,0.5 -0.167,0.5c-0.091,0 -0.166,0.225 -0.166,0.5c0,0.275 -0.075,0.5 -0.167,0.5c-0.092,0 -0.167,0.225 -0.167,0.5c0,0.275 -0.075,0.5 -0.166,0.5c-0.092,0 -0.167,0.333 -0.167,0.74c0,0.408 -0.075,0.787 -0.167,0.844c-0.091,0.056 -0.166,0.473 -0.166,0.926c0,0.453 -0.075,0.824 -0.167,0.824c-0.1,0 -0.167,0.663 -0.167,1.656c0,0.925 -0.073,1.703 -0.166,1.76c-0.095,0.059 -0.167,0.888 -0.167,1.917c0,1.029 0.072,1.858 0.167,1.917c0.092,0.056 0.166,0.804 0.166,1.666c0,0.863 0.075,1.61 0.167,1.667c0.092,0.057 0.167,0.474 0.167,0.927c0,0.452 0.075,0.823 0.166,0.823c0.092,0 0.167,0.3 0.167,0.667c0,0.366 0.075,0.666 0.167,0.666c0.091,0 0.166,0.258 0.166,0.574c0,0.315 0.075,0.62 0.167,0.676c0.092,0.057 0.167,0.25 0.167,0.429c0,0.179 0.075,0.475 0.166,0.657c0.092,0.182 0.242,0.48 0.334,0.662c0.091,0.182 0.166,0.482 0.166,0.667c0,0.184 0.075,0.335 0.167,0.335c0.092,0 0.167,0.15 0.167,0.334c0,0.183 0.075,0.333 0.166,0.333c0.092,0 0.167,0.15 0.167,0.333c0,0.184 0.075,0.334 0.167,0.334c0.091,0 0.166,0.15 0.166,0.333c0,0.183 0.075,0.333 0.167,0.333c0.092,0 0.167,0.15 0.167,0.334c0,0.183 0.075,0.333 0.166,0.333c0.092,0 0.167,0.116 0.167,0.257c0,0.141 0.15,0.418 0.333,0.615c0.184,0.197 0.334,0.456 0.334,0.576c0,0.12 0.075,0.219 0.166,0.219c0.092,0 0.167,0.101 0.167,0.225c0,0.124 0.225,0.461 0.5,0.748c0.275,0.288 0.5,0.605 0.5,0.705c0,0.1 0.281,0.457 0.625,0.793c0.344,0.337 0.829,0.886 1.079,1.221c0.533,0.713 1.818,1.97 2.017,1.973c0.076,0.001 0.427,0.301 0.779,0.668c0.352,0.367 0.71,0.667 0.796,0.667c0.085,0 0.39,0.225 0.678,0.5c0.288,0.275 0.62,0.5 0.738,0.5c0.118,0 0.323,0.15 0.455,0.333c0.132,0.183 0.339,0.333 0.46,0.333c0.121,0 0.381,0.15 0.578,0.334c0.197,0.183 0.456,0.333 0.576,0.333c0.121,0 0.219,0.075 0.219,0.167c0,0.091 0.15,0.166 0.333,0.166c0.184,0 0.334,0.075 0.334,0.167c0,0.092 0.15,0.167 0.333,0.167c0.183,0 0.333,0.075 0.333,0.166c0,0.092 0.15,0.167 0.334,0.167c0.183,0 0.333,0.075 0.333,0.167c0,0.091 0.15,0.166 0.333,0.166c0.184,0 0.334,0.075 0.334,0.167c0,0.092 0.145,0.167 0.323,0.167c0.178,0 0.37,0.075 0.427,0.166c0.056,0.092 0.286,0.167 0.51,0.167c0.223,0 0.406,0.075 0.406,0.167c0,0.091 0.151,0.166 0.336,0.166c0.185,0 0.485,0.075 0.667,0.167c0.182,0.092 0.48,0.242 0.662,0.333c0.182,0.092 0.557,0.167 0.833,0.167c0.276,0 0.502,0.075 0.502,0.167c0,0.091 0.221,0.166 0.49,0.166c0.27,0 0.537,0.075 0.594,0.167c0.056,0.092 0.436,0.167 0.843,0.167c0.407,0 0.74,0.075 0.74,0.166c0,0.092 0.36,0.167 0.8,0.167c0.44,0 0.894,0.094 1.008,0.208c0.303,0.303 12.716,0.303 12.817,0c0.044,-0.132 0.396,-0.208 0.962,-0.208c0.492,0 0.94,-0.075 0.996,-0.167c0.057,-0.091 0.399,-0.166 0.76,-0.166c0.361,0 0.657,-0.075 0.657,-0.167c0,-0.092 0.258,-0.167 0.573,-0.167c0.316,0 0.62,-0.075 0.677,-0.166c0.057,-0.092 0.324,-0.167 0.593,-0.167c0.27,0 0.49,-0.075 0.49,-0.167c0,-0.091 0.225,-0.166 0.5,-0.166c0.275,0 0.5,-0.075 0.5,-0.167c0,-0.092 0.183,-0.167 0.407,-0.167c0.224,0 0.453,-0.075 0.51,-0.166c0.057,-0.092 0.249,-0.167 0.427,-0.167c0.177,0 0.323,-0.075 0.323,-0.167c0,-0.091 0.15,-0.166 0.333,-0.166c0.184,0 0.334,-0.075 0.334,-0.167c0,-0.092 0.105,-0.167 0.234,-0.167c0.278,0 1.658,-0.695 1.738,-0.875c0.03,-0.068 0.199,-0.125 0.375,-0.125c0.176,0 0.319,-0.075 0.319,-0.166c0,-0.092 0.15,-0.167 0.334,-0.167c0.183,0 0.333,-0.075 0.333,-0.167c0,-0.091 0.098,-0.166 0.219,-0.166c0.12,0 0.379,-0.15 0.576,-0.334c0.197,-0.183 0.457,-0.333 0.578,-0.333c0.121,0 0.328,-0.15 0.46,-0.333c0.132,-0.184 0.327,-0.334 0.434,-0.334c0.106,0 0.502,-0.3 0.88,-0.666c0.378,-0.367 0.759,-0.667 0.847,-0.667c0.22,0 3.673,-3.468 3.673,-3.689c0,-0.097 0.225,-0.387 0.5,-0.644c0.275,-0.257 0.5,-0.531 0.5,-0.609c0,-0.078 0.225,-0.404 0.5,-0.725c0.274,-0.321 0.499,-0.677 0.499,-0.791c0,-0.115 0.076,-0.209 0.167,-0.209c0.092,0 0.167,-0.133 0.167,-0.296c0,-0.163 0.15,-0.405 0.333,-0.537c0.184,-0.132 0.334,-0.374 0.334,-0.537c0,-0.163 0.075,-0.296 0.166,-0.296c0.092,0 0.167,-0.15 0.167,-0.334c0,-0.183 0.075,-0.333 0.167,-0.333c0.091,0 0.166,-0.15 0.166,-0.333c0,-0.184 0.075,-0.334 0.167,-0.334c0.092,0 0.167,-0.145 0.167,-0.323c0,-0.178 0.075,-0.37 0.166,-0.427c0.092,-0.056 0.167,-0.286 0.167,-0.51c0,-0.223 0.075,-0.406 0.167,-0.406c0.091,0 0.166,-0.146 0.166,-0.324c0,-0.178 0.075,-0.37 0.167,-0.426c0.092,-0.057 0.167,-0.286 0.167,-0.51c0,-0.224 0.075,-0.407 0.166,-0.407c0.092,0 0.167,-0.3 0.167,-0.667c0,-0.366 0.075,-0.666 0.167,-0.666c0.091,0 0.166,-0.258 0.166,-0.574c0,-0.315 0.075,-0.62 0.167,-0.676c0.092,-0.057 0.167,-0.432 0.167,-0.834c0,-0.401 0.075,-0.776 0.166,-0.833c0.092,-0.057 0.167,-0.624 0.167,-1.26c0,-0.66 0.072,-1.157 0.167,-1.157c0.105,0 0.166,-1.246 0.166,-3.406c0,-2.092 -0.064,-3.447 -0.166,-3.51c-0.092,-0.057 -0.167,-0.624 -0.167,-1.26c0,-0.66 -0.072,-1.157 -0.167,-1.157c-0.091,0 -0.166,-0.375 -0.166,-0.833c0,-0.459 -0.075,-0.834 -0.167,-0.834c-0.092,0 -0.167,-0.3 -0.167,-0.666c0,-0.367 -0.075,-0.667 -0.166,-0.667c-0.092,0 -0.167,-0.225 -0.167,-0.5c0,-0.275 -0.075,-0.5 -0.167,-0.5c-0.091,0 -0.166,-0.225 -0.166,-0.5c0,-0.275 -0.075,-0.5 -0.167,-0.5c-0.092,0 -0.167,-0.225 -0.167,-0.5c0,-0.275 -0.075,-0.5 -0.166,-0.5c-0.092,0 -0.167,-0.15 -0.167,-0.333c0,-0.184 -0.075,-0.334 -0.167,-0.334c-0.091,0 -0.166,-0.15 -0.166,-0.333c0,-0.183 -0.075,-0.333 -0.167,-0.333c-0.092,0 -0.167,-0.098 -0.167,-0.217c0,-0.307 -0.392,-1.114 -0.541,-1.115c-0.069,-0.001 -0.125,-0.152 -0.125,-0.335c0,-0.183 -0.075,-0.333 -0.167,-0.333c-0.092,0 -0.167,-0.15 -0.167,-0.334c0,-0.183 -0.075,-0.333 -0.166,-0.333c-0.092,0 -0.167,-0.098 -0.167,-0.219c0,-0.12 -0.15,-0.379 -0.333,-0.576c-0.184,-0.197 -0.334,-0.425 -0.334,-0.507c0,-0.082 -0.225,-0.384 -0.5,-0.672c-0.275,-0.288 -0.5,-0.598 -0.5,-0.69c0,-0.32 -4.658,-5.003 -4.976,-5.003c-0.078,0 -0.376,-0.225 -0.664,-0.5c-0.288,-0.275 -0.62,-0.5 -0.738,-0.5c-0.118,0 -0.323,-0.15 -0.455,-0.333c-0.132,-0.183 -0.357,-0.333 -0.5,-0.333c-0.143,0 -0.368,-0.15 -0.5,-0.334c-0.132,-0.183 -0.374,-0.333 -0.537,-0.333c-0.163,0 -0.296,-0.075 -0.296,-0.167c0,-0.091 -0.116,-0.166 -0.257,-0.166c-0.142,0 -0.418,-0.15 -0.615,-0.334c-0.197,-0.183 -0.454,-0.333 -0.571,-0.333c-0.118,0 -0.481,-0.15 -0.807,-0.333c-0.327,-0.184 -0.704,-0.334 -0.839,-0.334c-0.134,0 -0.245,-0.075 -0.245,-0.166c0,-0.092 -0.15,-0.167 -0.333,-0.167c-0.183,0 -0.333,-0.075 -0.333,-0.167c0,-0.091 -0.225,-0.166 -0.5,-0.166c-0.275,0 -0.5,-0.075 -0.5,-0.167c0,-0.092 -0.183,-0.167 -0.407,-0.167c-0.224,0 -0.453,-0.075 -0.51,-0.166c-0.057,-0.092 -0.282,-0.167 -0.5,-0.167c-0.218,0 -0.443,-0.075 -0.5,-0.167c-0.057,-0.091 -0.324,-0.166 -0.593,-0.166c-0.27,0 -0.49,-0.075 -0.49,-0.167c0,-0.092 -0.3,-0.167 -0.667,-0.167c-0.367,0 -0.667,-0.075 -0.667,-0.166c0,-0.092 -0.375,-0.167 -0.833,-0.167c-0.458,0 -0.833,-0.075 -0.833,-0.167c0,-0.092 -0.441,-0.166 -0.99,-0.166c-0.545,0 -1.037,-0.075 -1.094,-0.167c-0.065,-0.105 -2.029,-0.167 -5.343,-0.167c-3.382,0 -5.24,0.059 -5.24,0.167m74.083,0c-0.056,0.092 -0.431,0.167 -0.833,0.167c-0.402,0 -0.777,0.075 -0.833,0.166c-0.057,0.092 -0.324,0.167 -0.594,0.167c-0.269,0 -0.49,0.075 -0.49,0.167c0,0.091 -0.225,0.166 -0.5,0.166c-0.275,0 -0.5,0.075 -0.5,0.167c0,0.092 -0.225,0.167 -0.5,0.167c-0.275,0 -0.5,0.075 -0.5,0.166c0,0.092 -0.15,0.167 -0.333,0.167c-0.183,0 -0.333,0.075 -0.333,0.167c0,0.091 -0.15,0.166 -0.334,0.166c-0.183,0 -0.333,0.075 -0.333,0.167c0,0.092 -0.15,0.167 -0.333,0.167c-0.184,0 -0.334,0.075 -0.334,0.166c0,0.092 -0.133,0.167 -0.296,0.167c-0.163,0 -0.405,0.15 -0.537,0.333c-0.132,0.184 -0.337,0.334 -0.455,0.334c-0.118,0 -0.45,0.225 -0.738,0.5c-0.288,0.275 -0.592,0.5 -0.676,0.5c-0.209,0 -2.631,2.491 -2.631,2.706c0,0.094 -0.136,0.293 -0.303,0.441c-0.167,0.148 -0.373,0.419 -0.459,0.603c-0.102,0.22 -0.17,-0.864 -0.2,-3.21l-0.045,-3.543l-9.121,0.043l-9.122,0.043l-0.042,29.066c-0.031,21.344 0.008,29.125 0.145,29.291c0.154,0.186 1.866,0.226 9.501,0.226l9.313,0l0,-16.333c0,-10.778 0.056,-16.333 0.166,-16.333c0.096,0 0.167,-0.5 0.167,-1.167c0,-0.667 0.071,-1.167 0.167,-1.167c0.091,0 0.166,-0.295 0.166,-0.656c0,-0.362 0.075,-0.704 0.167,-0.76c0.092,-0.057 0.167,-0.319 0.167,-0.584c0,-0.264 0.075,-0.526 0.166,-0.583c0.092,-0.057 0.167,-0.249 0.167,-0.427c0,-0.177 0.075,-0.323 0.167,-0.323c0.091,0 0.166,-0.15 0.166,-0.333c0,-0.184 0.075,-0.334 0.167,-0.334c0.092,0 0.167,-0.133 0.167,-0.296c0,-0.163 0.15,-0.405 0.333,-0.537c0.183,-0.132 0.333,-0.322 0.333,-0.421c0,-0.228 1.076,-1.412 1.283,-1.412c0.085,0 0.304,-0.132 0.486,-0.292c0.469,-0.412 1.017,-0.708 1.312,-0.708c0.139,0 0.253,-0.075 0.253,-0.167c0,-0.092 0.183,-0.167 0.406,-0.167c0.224,0 0.454,-0.075 0.51,-0.166c0.057,-0.092 0.357,-0.167 0.667,-0.167c0.31,0 0.61,-0.075 0.667,-0.167c0.137,-0.221 4.529,-0.221 4.666,0c0.057,0.092 0.324,0.167 0.594,0.167c0.269,0 0.49,0.075 0.49,0.167c0,0.091 0.173,0.166 0.385,0.166c0.212,0 0.546,0.15 0.743,0.334c0.197,0.183 0.437,0.333 0.535,0.333c0.275,0 2.003,1.794 2.003,2.08c0,0.139 0.075,0.253 0.167,0.253c0.092,0 0.167,0.15 0.167,0.334c0,0.183 0.075,0.333 0.166,0.333c0.092,0 0.167,0.15 0.167,0.333c0,0.184 0.075,0.334 0.167,0.334c0.091,0 0.166,0.183 0.166,0.406c0,0.224 0.075,0.454 0.167,0.51c0.092,0.057 0.167,0.319 0.167,0.584c0,0.264 0.075,0.526 0.166,0.583c0.092,0.057 0.167,0.507 0.167,1c0,0.493 0.075,0.943 0.167,1c0.109,0.068 0.166,6.03 0.166,17.343l0,17.24l9.5,0l9.5,0l0,-18.406c0,-12.092 -0.057,-18.443 -0.166,-18.51c-0.096,-0.06 -0.167,-0.947 -0.167,-2.094c0,-1.215 -0.065,-1.99 -0.167,-1.99c-0.094,0 -0.166,-0.469 -0.166,-1.073c0,-0.591 -0.075,-1.12 -0.167,-1.177c-0.092,-0.056 -0.167,-0.394 -0.167,-0.75c0,-0.356 -0.075,-0.693 -0.166,-0.75c-0.092,-0.056 -0.167,-0.394 -0.167,-0.75c0,-0.356 -0.075,-0.693 -0.167,-0.75c-0.091,-0.056 -0.166,-0.323 -0.166,-0.593c0,-0.269 -0.075,-0.49 -0.167,-0.49c-0.092,0 -0.167,-0.225 -0.167,-0.5c0,-0.275 -0.075,-0.5 -0.166,-0.5c-0.092,0 -0.167,-0.183 -0.167,-0.407c0,-0.224 -0.075,-0.453 -0.167,-0.51c-0.091,-0.056 -0.166,-0.248 -0.166,-0.426c0,-0.178 -0.075,-0.324 -0.167,-0.324c-0.092,0 -0.167,-0.15 -0.167,-0.333c0,-0.183 -0.075,-0.333 -0.166,-0.333c-0.092,0 -0.167,-0.116 -0.167,-0.257c0,-0.142 -0.15,-0.418 -0.333,-0.615c-0.184,-0.197 -0.334,-0.456 -0.334,-0.576c0,-0.121 -0.075,-0.219 -0.166,-0.219c-0.092,0 -0.167,-0.101 -0.167,-0.223c0,-0.123 -0.319,-0.569 -0.708,-0.992c-0.39,-0.422 -0.862,-0.94 -1.05,-1.151c-0.504,-0.568 -2.131,-1.967 -2.287,-1.967c-0.075,0 -0.297,-0.15 -0.493,-0.334c-0.197,-0.183 -0.457,-0.333 -0.577,-0.333c-0.12,0 -0.218,-0.075 -0.218,-0.167c0,-0.091 -0.15,-0.166 -0.334,-0.166c-0.183,0 -0.333,-0.075 -0.333,-0.167c0,-0.092 -0.15,-0.167 -0.333,-0.167c-0.184,0 -0.334,-0.075 -0.334,-0.166c0,-0.092 -0.151,-0.167 -0.335,-0.167c-0.185,0 -0.504,-0.087 -0.709,-0.193c-0.824,-0.426 -0.971,-0.474 -1.453,-0.474c-0.277,0 -0.503,-0.075 -0.503,-0.166c0,-0.092 -0.3,-0.167 -0.666,-0.167c-0.367,0 -0.667,-0.075 -0.667,-0.167c0,-0.091 -0.371,-0.166 -0.823,-0.166c-0.453,0 -0.87,-0.075 -0.927,-0.167c-0.065,-0.104 -1.776,-0.167 -4.583,-0.167c-2.807,0 -4.519,0.063 -4.584,0.167m-373.083,1.5c0,0.183 0.075,0.333 0.167,0.333c0.091,0 0.166,0.225 0.166,0.5c0,0.275 0.075,0.5 0.167,0.5c0.092,0 0.167,0.146 0.167,0.324c0,0.178 0.075,0.37 0.166,0.426c0.092,0.057 0.167,0.286 0.167,0.51c0,0.224 0.075,0.407 0.167,0.407c0.091,0 0.166,0.225 0.166,0.5c0,0.275 0.075,0.5 0.167,0.5c0.092,0 0.167,0.146 0.167,0.323c0,0.178 0.075,0.37 0.166,0.427c0.092,0.057 0.167,0.286 0.167,0.51c0,0.224 0.075,0.407 0.167,0.407c0.091,0 0.166,0.225 0.166,0.5c0,0.275 0.075,0.5 0.167,0.5c0.092,0 0.167,0.183 0.167,0.406c0,0.224 0.075,0.454 0.166,0.51c0.092,0.057 0.167,0.249 0.167,0.427c0,0.178 0.075,0.323 0.167,0.323c0.091,0 0.166,0.225 0.166,0.5c0,0.275 0.075,0.5 0.167,0.5c0.092,0 0.167,0.183 0.167,0.407c0,0.224 0.075,0.453 0.166,0.51c0.092,0.057 0.167,0.249 0.167,0.427c0,0.177 0.075,0.323 0.167,0.323c0.091,0 0.166,0.225 0.166,0.5c0,0.275 0.075,0.5 0.167,0.5c0.092,0 0.167,0.183 0.167,0.407c0,0.224 0.075,0.453 0.166,0.51c0.092,0.056 0.167,0.248 0.167,0.426c0,0.178 0.075,0.324 0.167,0.324c0.091,0 0.166,0.225 0.166,0.5c0,0.275 0.075,0.5 0.167,0.5c0.092,0 0.167,0.225 0.167,0.5c0,0.275 0.075,0.5 0.166,0.5c0.092,0 0.167,0.15 0.167,0.333c0,0.183 0.075,0.333 0.167,0.333c0.091,0 0.166,0.225 0.166,0.5c0,0.275 0.075,0.5 0.167,0.5c0.092,0 0.167,0.225 0.167,0.5c0,0.275 0.075,0.5 0.166,0.5c0.092,0 0.167,0.146 0.167,0.324c0,0.178 0.075,0.37 0.167,0.426c0.091,0.057 0.166,0.286 0.166,0.51c0,0.224 0.075,0.407 0.167,0.407c0.092,0 0.167,0.225 0.167,0.5c0,0.275 0.075,0.5 0.166,0.5c0.092,0 0.167,0.146 0.167,0.323c0,0.178 0.075,0.37 0.167,0.427c0.091,0.057 0.166,0.286 0.166,0.51c0,0.224 0.075,0.407 0.167,0.407c0.092,0 0.167,0.225 0.167,0.5c0,0.275 0.075,0.5 0.166,0.5c0.092,0 0.167,0.145 0.167,0.323c0,0.178 0.075,0.37 0.167,0.427c0.091,0.056 0.166,0.286 0.166,0.51c0,0.223 0.075,0.406 0.167,0.406c0.092,0 0.167,0.225 0.167,0.5c0,0.275 0.075,0.5 0.166,0.5c0.092,0 0.167,0.183 0.167,0.407c0,0.224 0.075,0.453 0.167,0.51c0.091,0.057 0.166,0.249 0.166,0.427c0,0.177 0.075,0.323 0.167,0.323c0.092,0 0.167,0.225 0.167,0.5c0,0.275 0.075,0.5 0.166,0.5c0.092,0 0.167,0.183 0.167,0.407c0,0.224 0.075,0.453 0.167,0.51c0.091,0.056 0.166,0.248 0.166,0.426c0,0.178 0.075,0.324 0.167,0.324c0.092,0 0.167,0.225 0.167,0.5c0,0.275 0.075,0.5 0.166,0.5c0.092,0 0.167,0.183 0.167,0.406c0,0.224 0.075,0.454 0.167,0.51c0.091,0.057 0.166,0.249 0.166,0.427c0,0.178 0.075,0.323 0.167,0.323c0.092,0 0.167,0.225 0.167,0.5c0,0.275 0.075,0.5 0.166,0.5c0.092,0 0.167,0.225 0.167,0.5c0,0.275 0.075,0.5 0.167,0.5c0.091,0 0.166,0.15 0.166,0.334c0,0.183 0.075,0.333 0.167,0.333c0.092,0 0.167,0.225 0.167,0.5c0,0.275 0.075,0.5 0.166,0.5c0.092,0 0.167,0.225 0.167,0.5c0,0.275 0.075,0.5 0.167,0.5c0.091,0 0.166,0.146 0.166,0.323c0,0.178 0.075,0.37 0.167,0.427c0.092,0.057 0.167,0.286 0.167,0.51c0,0.224 0.075,0.407 0.166,0.407c0.092,0 0.167,0.225 0.167,0.5c0,0.275 0.075,0.5 0.167,0.5c0.091,0 0.166,0.145 0.166,0.323c0,0.178 0.075,0.37 0.167,0.427c0.092,0.056 0.167,0.286 0.167,0.51c0,0.223 0.075,0.406 0.166,0.406c0.092,0 0.167,0.225 0.167,0.5c0,0.275 0.075,0.5 0.167,0.5c0.091,0 0.166,0.146 0.166,0.324c0,0.178 0.075,0.37 0.167,0.426c0.092,0.057 0.167,0.286 0.167,0.51c0,0.224 0.075,0.407 0.166,0.407c0.092,0 0.167,0.225 0.167,0.5c0,0.275 0.075,0.5 0.167,0.5c0.091,0 0.166,0.183 0.166,0.407c0,0.224 0.075,0.453 0.167,0.51c0.092,0.056 0.167,0.248 0.167,0.426c0,0.178 0.075,0.324 0.166,0.324c0.092,0 0.167,0.225 0.167,0.5c0,0.275 0.075,0.5 0.167,0.5c0.091,0 0.166,0.183 0.166,0.406c0,0.224 0.075,0.454 0.167,0.51c0.092,0.057 0.167,0.249 0.167,0.427c0,0.178 0.075,0.323 0.166,0.323c0.092,0 0.167,0.225 0.167,0.5c0,0.275 0.075,0.5 0.167,0.5c0.091,0 0.166,0.183 0.166,0.407c0,0.224 0.075,0.453 0.167,0.51c0.092,0.057 0.167,0.249 0.167,0.427c0,0.177 0.075,0.323 0.166,0.323c0.092,0 0.167,0.225 0.167,0.5c0,0.275 0.075,0.5 0.167,0.5c0.091,0 0.166,0.225 0.166,0.5c0,0.275 0.075,0.5 0.167,0.5c0.092,0 0.167,0.15 0.167,0.333c0,0.184 0.075,0.334 0.166,0.334c0.092,0 0.167,0.225 0.167,0.5c0,0.275 0.075,0.5 0.167,0.5c0.091,0 0.166,0.225 0.166,0.5c0,0.275 0.075,0.5 0.167,0.5c0.092,0 0.167,0.15 0.167,0.333c0,0.329 0.111,0.333 9.5,0.333c9.389,0 9.5,-0.004 9.5,-0.333c0,-0.183 0.075,-0.333 0.166,-0.333c0.092,0 0.167,-0.258 0.167,-0.574c0,-0.315 0.075,-0.62 0.167,-0.676c0.091,-0.057 0.166,-0.324 0.166,-0.594c0,-0.269 0.075,-0.49 0.167,-0.49c0.092,0 0.167,-0.3 0.167,-0.666c0,-0.367 0.075,-0.667 0.166,-0.667c0.092,0 0.167,-0.225 0.167,-0.5c0,-0.275 0.075,-0.5 0.167,-0.5c0.091,0 0.166,-0.3 0.166,-0.667c0,-0.366 0.075,-0.666 0.167,-0.666c0.092,0 0.167,-0.225 0.167,-0.5c0,-0.275 0.075,-0.5 0.166,-0.5c0.092,0 0.167,-0.3 0.167,-0.667c0,-0.367 0.075,-0.667 0.167,-0.667c0.091,0 0.166,-0.225 0.166,-0.5c0,-0.275 0.075,-0.5 0.167,-0.5c0.092,0 0.167,-0.3 0.167,-0.666c0,-0.367 0.075,-0.667 0.166,-0.667c0.092,0 0.167,-0.221 0.167,-0.49c0,-0.27 0.075,-0.537 0.167,-0.593c0.091,-0.057 0.166,-0.361 0.166,-0.677c0,-0.315 0.075,-0.573 0.167,-0.573c0.092,0 0.167,-0.221 0.167,-0.49c0,-0.27 0.075,-0.537 0.166,-0.594c0.092,-0.056 0.167,-0.361 0.167,-0.676c0,-0.316 0.075,-0.574 0.167,-0.574c0.091,0 0.166,-0.22 0.166,-0.49c0,-0.269 0.075,-0.536 0.167,-0.593c0.092,-0.057 0.167,-0.361 0.167,-0.677c0,-0.315 0.075,-0.573 0.166,-0.573c0.092,0 0.167,-0.221 0.167,-0.49c0,-0.27 0.075,-0.537 0.167,-0.593c0.091,-0.057 0.166,-0.361 0.166,-0.677c0,-0.315 0.075,-0.573 0.167,-0.573c0.092,0 0.167,-0.258 0.167,-0.574c0,-0.315 0.075,-0.62 0.166,-0.676c0.092,-0.057 0.167,-0.324 0.167,-0.594c0,-0.269 0.075,-0.49 0.167,-0.49c0.091,0 0.166,-0.258 0.166,-0.573c0,-0.316 0.075,-0.62 0.167,-0.677c0.092,-0.056 0.167,-0.323 0.167,-0.593c0,-0.269 0.075,-0.49 0.166,-0.49c0.092,0 0.167,-0.258 0.167,-0.573c0,-0.316 0.075,-0.62 0.167,-0.677c0.091,-0.057 0.166,-0.324 0.166,-0.593c0,-0.27 0.075,-0.49 0.167,-0.49c0.092,0 0.167,-0.258 0.167,-0.574c0,-0.315 0.075,-0.62 0.166,-0.676c0.092,-0.057 0.167,-0.324 0.167,-0.594c0,-0.269 0.075,-0.49 0.167,-0.49c0.091,0 0.166,-0.3 0.166,-0.666c0,-0.367 0.075,-0.667 0.167,-0.667c0.092,0 0.167,-0.225 0.167,-0.5c0,-0.275 0.075,-0.5 0.166,-0.5c0.092,0 0.167,-0.3 0.167,-0.667c0,-0.366 0.075,-0.666 0.167,-0.666c0.091,0 0.166,-0.225 0.166,-0.5c0,-0.275 0.075,-0.5 0.167,-0.5c0.092,0 0.167,-0.3 0.167,-0.667c0,-0.367 0.075,-0.667 0.166,-0.667c0.092,0 0.167,-0.225 0.167,-0.5c0,-0.275 0.075,-0.5 0.167,-0.5c0.091,0 0.166,-0.15 0.166,-0.333c0,-0.183 0.075,-0.333 0.167,-0.333c0.092,0 0.167,0.225 0.167,0.5c0,0.275 0.075,0.5 0.166,0.5c0.092,0 0.167,0.225 0.167,0.5c0,0.275 0.075,0.5 0.167,0.5c0.091,0 0.166,0.225 0.166,0.5c0,0.275 0.075,0.5 0.167,0.5c0.092,0 0.167,0.225 0.167,0.5c0,0.275 0.075,0.5 0.166,0.5c0.092,0 0.167,0.22 0.167,0.49c0,0.269 0.075,0.536 0.167,0.593c0.091,0.057 0.166,0.319 0.166,0.583c0,0.265 0.075,0.527 0.167,0.584c0.092,0.056 0.167,0.323 0.167,0.593c0,0.269 0.075,0.49 0.166,0.49c0.092,0 0.167,0.225 0.167,0.5c0,0.275 0.075,0.5 0.167,0.5c0.091,0 0.166,0.225 0.166,0.5c0,0.275 0.075,0.5 0.167,0.5c0.092,0 0.167,0.225 0.167,0.5c0,0.275 0.075,0.5 0.166,0.5c0.092,0 0.167,0.225 0.167,0.5c0,0.275 0.075,0.5 0.167,0.5c0.091,0 0.166,0.221 0.166,0.49c0,0.27 0.075,0.537 0.167,0.593c0.092,0.057 0.167,0.319 0.167,0.584c0,0.264 0.075,0.526 0.166,0.583c0.092,0.057 0.167,0.324 0.167,0.593c0,0.27 0.075,0.49 0.167,0.49c0.091,0 0.166,0.225 0.166,0.5c0,0.275 0.075,0.5 0.167,0.5c0.092,0 0.167,0.225 0.167,0.5c0,0.275 0.075,0.5 0.166,0.5c0.092,0 0.167,0.225 0.167,0.5c0,0.275 0.075,0.5 0.167,0.5c0.091,0 0.166,0.225 0.166,0.5c0,0.275 0.075,0.5 0.167,0.5c0.092,0 0.167,0.221 0.167,0.49c0,0.27 0.075,0.537 0.166,0.594c0.092,0.056 0.167,0.319 0.167,0.583c0,0.264 0.075,0.527 0.167,0.583c0.091,0.057 0.166,0.282 0.166,0.5c0,0.219 0.075,0.444 0.167,0.5c0.092,0.057 0.167,0.324 0.167,0.594c0,0.269 0.075,0.49 0.166,0.49c0.092,0 0.167,0.225 0.167,0.5c0,0.275 0.075,0.5 0.167,0.5c0.091,0 0.166,0.225 0.166,0.5c0,0.275 0.075,0.5 0.167,0.5c0.092,0 0.167,0.225 0.167,0.5c0,0.275 0.075,0.5 0.166,0.5c0.092,0 0.167,0.22 0.167,0.49c0,0.269 0.075,0.536 0.167,0.593c0.091,0.057 0.166,0.319 0.166,0.583c0,0.265 0.075,0.527 0.167,0.584c0.092,0.056 0.167,0.281 0.167,0.5c0,0.218 0.075,0.443 0.166,0.5c0.092,0.056 0.167,0.323 0.167,0.593c0,0.269 0.075,0.49 0.167,0.49c0.091,0 0.166,0.225 0.166,0.5c0,0.275 0.075,0.5 0.167,0.5c0.092,0 0.167,0.225 0.167,0.5c0,0.275 0.075,0.5 0.166,0.5c0.092,0 0.167,0.225 0.167,0.5c0,0.275 0.075,0.5 0.167,0.5c0.091,0 0.166,0.221 0.166,0.49c0,0.27 0.075,0.537 0.167,0.593c0.092,0.057 0.167,0.319 0.167,0.584c0,0.264 0.075,0.526 0.166,0.583c0.092,0.057 0.167,0.271 0.167,0.477c0,0.205 0.069,0.444 0.153,0.531c0.083,0.087 0.177,0.346 0.208,0.575l0.056,0.417l9.218,0.043c10.016,0.047 9.698,0.075 9.698,-0.864c0,-0.236 0.075,-0.429 0.167,-0.429c0.092,0 0.167,-0.225 0.167,-0.5c0,-0.275 0.075,-0.5 0.166,-0.5c0.092,0 0.167,-0.146 0.167,-0.323c0,-0.178 0.075,-0.37 0.167,-0.427c0.091,-0.057 0.166,-0.286 0.166,-0.51c0,-0.224 0.075,-0.407 0.167,-0.407c0.092,0 0.167,-0.225 0.167,-0.5c0,-0.275 0.075,-0.5 0.166,-0.5c0.092,0 0.167,-0.225 0.167,-0.5c0,-0.275 0.075,-0.5 0.167,-0.5c0.091,0 0.166,-0.183 0.166,-0.406c0,-0.224 0.075,-0.454 0.167,-0.51c0.092,-0.057 0.167,-0.249 0.167,-0.427c0,-0.178 0.075,-0.323 0.166,-0.323c0.092,0 0.167,-0.225 0.167,-0.5c0,-0.275 0.075,-0.5 0.167,-0.5c0.091,0 0.166,-0.225 0.166,-0.5c0,-0.275 0.075,-0.5 0.167,-0.5c0.092,0 0.167,-0.151 0.167,-0.336c0,-0.185 0.086,-0.503 0.192,-0.708c0.415,-0.803 0.474,-0.963 0.474,-1.287c0,-0.185 0.075,-0.336 0.167,-0.336c0.092,0 0.167,-0.225 0.167,-0.5c0,-0.275 0.075,-0.5 0.166,-0.5c0.092,0 0.167,-0.151 0.167,-0.336c0,-0.184 0.075,-0.484 0.167,-0.666c0.091,-0.182 0.241,-0.48 0.333,-0.662c0.092,-0.182 0.167,-0.482 0.167,-0.667c0,-0.185 0.075,-0.336 0.166,-0.336c0.092,0 0.167,-0.225 0.167,-0.5c0,-0.275 0.075,-0.5 0.167,-0.5c0.091,0 0.166,-0.225 0.166,-0.5c0,-0.275 0.075,-0.5 0.167,-0.5c0.092,0 0.167,-0.145 0.167,-0.323c0,-0.178 0.075,-0.37 0.166,-0.427c0.092,-0.056 0.167,-0.286 0.167,-0.51c0,-0.223 0.075,-0.406 0.167,-0.406c0.091,0 0.166,-0.225 0.166,-0.5c0,-0.275 0.075,-0.5 0.167,-0.5c0.092,0 0.167,-0.225 0.167,-0.5c0,-0.275 0.075,-0.5 0.166,-0.5c0.092,0 0.167,-0.146 0.167,-0.324c0,-0.178 0.075,-0.37 0.167,-0.426c0.091,-0.057 0.166,-0.286 0.166,-0.51c0,-0.224 0.075,-0.407 0.167,-0.407c0.092,0 0.167,-0.225 0.167,-0.5c0,-0.275 0.075,-0.5 0.166,-0.5c0.092,0 0.167,-0.225 0.167,-0.5c0,-0.275 0.075,-0.5 0.167,-0.5c0.091,0 0.166,-0.146 0.166,-0.323c0,-0.178 0.075,-0.37 0.167,-0.427c0.092,-0.057 0.167,-0.286 0.167,-0.51c0,-0.224 0.075,-0.407 0.166,-0.407c0.092,0 0.167,-0.225 0.167,-0.5c0,-0.275 0.075,-0.5 0.167,-0.5c0.091,0 0.166,-0.225 0.166,-0.5c0,-0.275 0.075,-0.5 0.167,-0.5c0.092,0 0.167,-0.183 0.167,-0.406c0,-0.224 0.075,-0.454 0.166,-0.51c0.092,-0.057 0.167,-0.249 0.167,-0.427c0,-0.178 0.075,-0.323 0.167,-0.323c0.091,0 0.166,-0.225 0.166,-0.5c0,-0.275 0.075,-0.5 0.167,-0.5c0.092,0 0.167,-0.225 0.167,-0.5c0,-0.275 0.075,-0.5 0.166,-0.5c0.092,0 0.167,-0.151 0.167,-0.336c0,-0.185 0.075,-0.485 0.167,-0.667c0.091,-0.182 0.241,-0.48 0.333,-0.662c0.092,-0.182 0.167,-0.482 0.167,-0.666c0,-0.185 0.075,-0.336 0.166,-0.336c0.092,0 0.167,-0.225 0.167,-0.5c0,-0.275 0.075,-0.5 0.167,-0.5c0.091,0 0.166,-0.225 0.166,-0.5c0,-0.275 0.075,-0.5 0.167,-0.5c0.092,0 0.167,-0.146 0.167,-0.323c0,-0.178 0.075,-0.37 0.166,-0.427c0.092,-0.057 0.167,-0.286 0.167,-0.51c0,-0.224 0.075,-0.407 0.167,-0.407c0.091,0 0.166,-0.225 0.166,-0.5c0,-0.275 0.075,-0.5 0.167,-0.5c0.092,0 0.167,-0.225 0.167,-0.5c0,-0.275 0.075,-0.5 0.166,-0.5c0.092,0 0.167,-0.145 0.167,-0.323c0,-0.178 0.075,-0.37 0.167,-0.427c0.091,-0.056 0.166,-0.286 0.166,-0.51c0,-0.223 0.075,-0.406 0.167,-0.406c0.092,0 0.167,-0.225 0.167,-0.5c0,-0.275 0.075,-0.5 0.166,-0.5c0.092,0 0.167,-0.225 0.167,-0.5c0,-0.275 0.075,-0.5 0.167,-0.5c0.091,0 0.166,-0.146 0.166,-0.324c0,-0.178 0.075,-0.37 0.167,-0.426c0.092,-0.057 0.167,-0.286 0.167,-0.51c0,-0.224 0.075,-0.407 0.166,-0.407c0.092,0 0.167,-0.225 0.167,-0.5c0,-0.275 0.075,-0.5 0.167,-0.5c0.091,0 0.166,-0.225 0.166,-0.5c0,-0.275 0.075,-0.5 0.167,-0.5c0.092,0 0.167,-0.183 0.167,-0.407c0,-0.224 0.075,-0.453 0.166,-0.51c0.092,-0.056 0.167,-0.248 0.167,-0.426c0,-0.178 0.075,-0.324 0.167,-0.324c0.091,0 0.166,-0.225 0.166,-0.5c0,-0.275 0.075,-0.5 0.167,-0.5c0.092,0 0.167,-0.225 0.167,-0.5c0,-0.275 0.075,-0.5 0.166,-0.5c0.092,0 0.167,-0.151 0.167,-0.335c0,-0.185 0.087,-0.504 0.193,-0.709c0.414,-0.802 0.474,-0.963 0.474,-1.287c0,-0.184 0.075,-0.335 0.166,-0.335c0.092,0 0.167,-0.225 0.167,-0.5c0,-0.275 0.075,-0.5 0.167,-0.5c0.091,0 0.166,-0.151 0.166,-0.336c0,-0.185 0.075,-0.485 0.167,-0.667c0.092,-0.182 0.242,-0.48 0.333,-0.662c0.092,-0.182 0.167,-0.557 0.167,-0.833l0,-0.502l-9.44,0c-10.509,0 -9.876,-0.072 -9.888,1.125c-0.003,0.298 -0.08,0.541 -0.172,0.541c-0.092,0 -0.167,0.225 -0.167,0.5c0,0.275 -0.075,0.5 -0.166,0.5c-0.092,0 -0.167,0.221 -0.167,0.49c0,0.27 -0.075,0.537 -0.167,0.594c-0.091,0.056 -0.166,0.361 -0.166,0.676c0,0.316 -0.075,0.574 -0.167,0.574c-0.092,0 -0.167,0.225 -0.167,0.5c0,0.275 -0.075,0.5 -0.166,0.5c-0.092,0 -0.167,0.225 -0.167,0.5c0,0.275 -0.075,0.5 -0.167,0.5c-0.091,0 -0.166,0.258 -0.166,0.573c0,0.316 -0.075,0.62 -0.167,0.677c-0.092,0.056 -0.167,0.323 -0.167,0.593c0,0.269 -0.075,0.49 -0.166,0.49c-0.092,0 -0.167,0.225 -0.167,0.5c0,0.275 -0.075,0.5 -0.167,0.5c-0.091,0 -0.166,0.221 -0.166,0.49c0,0.27 -0.075,0.537 -0.167,0.593c-0.092,0.057 -0.167,0.361 -0.167,0.677c0,0.315 -0.075,0.573 -0.166,0.573c-0.092,0 -0.167,0.225 -0.167,0.5c0,0.275 -0.075,0.5 -0.167,0.5c-0.091,0 -0.166,0.225 -0.166,0.5c0,0.275 -0.075,0.5 -0.167,0.5c-0.092,0 -0.167,0.258 -0.167,0.574c0,0.315 -0.075,0.62 -0.166,0.676c-0.092,0.057 -0.167,0.324 -0.167,0.594c0,0.269 -0.075,0.49 -0.167,0.49c-0.091,0 -0.166,0.225 -0.166,0.5c0,0.275 -0.075,0.5 -0.167,0.5c-0.092,0 -0.167,0.22 -0.167,0.49c0,0.269 -0.075,0.536 -0.166,0.593c-0.092,0.057 -0.167,0.361 -0.167,0.677c0,0.315 -0.075,0.573 -0.167,0.573c-0.091,0 -0.166,0.225 -0.166,0.5c0,0.275 -0.075,0.5 -0.167,0.5c-0.092,0 -0.167,0.225 -0.167,0.5c0,0.275 -0.075,0.5 -0.166,0.5c-0.092,0 -0.167,0.258 -0.167,0.573c0,0.316 -0.075,0.62 -0.167,0.677c-0.091,0.057 -0.166,0.324 -0.166,0.593c0,0.27 -0.075,0.49 -0.167,0.49c-0.092,0 -0.167,0.225 -0.167,0.5c0,0.275 -0.075,0.5 -0.166,0.5c-0.092,0 -0.167,0.221 -0.167,0.49c0,0.27 -0.075,0.537 -0.167,0.594c-0.091,0.056 -0.166,0.361 -0.166,0.676c0,0.316 -0.075,0.574 -0.167,0.574c-0.092,0 -0.167,0.225 -0.167,0.5c0,0.275 -0.075,0.5 -0.166,0.5c-0.092,0 -0.167,0.22 -0.167,0.49c0,0.269 -0.075,0.536 -0.167,0.593c-0.091,0.057 -0.166,0.319 -0.166,0.583c0,0.265 -0.075,0.527 -0.167,0.584c-0.092,0.056 -0.167,0.323 -0.167,0.593c0,0.269 -0.075,0.49 -0.166,0.49c-0.092,0 -0.167,0.225 -0.167,0.5c0,0.275 -0.075,0.5 -0.167,0.5c-0.091,0 -0.166,0.221 -0.166,0.49c0,0.27 -0.075,0.537 -0.167,0.593c-0.092,0.057 -0.167,0.361 -0.167,0.677c0,0.315 -0.075,0.573 -0.166,0.573c-0.092,0 -0.167,-0.225 -0.167,-0.5c0,-0.275 -0.075,-0.5 -0.167,-0.5c-0.091,0 -0.166,-0.225 -0.166,-0.5c0,-0.275 -0.075,-0.5 -0.167,-0.5c-0.092,0 -0.167,-0.258 -0.167,-0.573c0,-0.316 -0.075,-0.62 -0.166,-0.677c-0.092,-0.056 -0.167,-0.323 -0.167,-0.593c0,-0.269 -0.075,-0.49 -0.167,-0.49c-0.091,0 -0.166,-0.225 -0.166,-0.5c0,-0.275 -0.075,-0.5 -0.167,-0.5c-0.092,0 -0.167,-0.258 -0.167,-0.573c0,-0.316 -0.075,-0.62 -0.166,-0.677c-0.092,-0.057 -0.167,-0.324 -0.167,-0.593c0,-0.27 -0.075,-0.49 -0.167,-0.49c-0.091,0 -0.166,-0.225 -0.166,-0.5c0,-0.275 -0.075,-0.5 -0.167,-0.5c-0.092,0 -0.167,-0.258 -0.167,-0.574c0,-0.315 -0.075,-0.62 -0.166,-0.676c-0.092,-0.057 -0.167,-0.324 -0.167,-0.594c0,-0.269 -0.075,-0.49 -0.167,-0.49c-0.091,0 -0.166,-0.225 -0.166,-0.5c0,-0.275 -0.075,-0.5 -0.167,-0.5c-0.092,0 -0.167,-0.22 -0.167,-0.49c0,-0.269 -0.075,-0.536 -0.166,-0.593c-0.092,-0.057 -0.167,-0.361 -0.167,-0.677c0,-0.315 -0.075,-0.573 -0.167,-0.573c-0.091,0 -0.166,-0.225 -0.166,-0.5c0,-0.275 -0.075,-0.5 -0.167,-0.5c-0.092,0 -0.167,-0.221 -0.167,-0.49c0,-0.27 -0.075,-0.537 -0.166,-0.593c-0.092,-0.057 -0.167,-0.361 -0.167,-0.677c0,-0.315 -0.075,-0.573 -0.167,-0.573c-0.091,0 -0.166,-0.225 -0.166,-0.5c0,-0.275 -0.075,-0.5 -0.167,-0.5c-0.092,0 -0.167,-0.221 -0.167,-0.49c0,-0.27 -0.075,-0.537 -0.166,-0.594c-0.092,-0.056 -0.167,-0.361 -0.167,-0.676c0,-0.316 -0.075,-0.574 -0.167,-0.574c-0.091,0 -0.166,-0.225 -0.166,-0.5c0,-0.275 -0.075,-0.5 -0.167,-0.5c-0.092,0 -0.167,-0.22 -0.167,-0.49c0,-0.269 -0.075,-0.536 -0.166,-0.593c-0.092,-0.057 -0.167,-0.361 -0.167,-0.677c0,-0.315 -0.075,-0.573 -0.167,-0.573c-0.091,0 -0.166,-0.225 -0.166,-0.5c0,-0.275 -0.075,-0.5 -0.167,-0.5c-0.092,0 -0.167,-0.221 -0.167,-0.49c0,-0.27 -0.075,-0.537 -0.166,-0.593c-0.092,-0.057 -0.167,-0.361 -0.167,-0.677c0,-0.315 -0.075,-0.573 -0.167,-0.573c-0.091,0 -0.166,-0.225 -0.166,-0.5c0,-0.275 -0.075,-0.5 -0.167,-0.5c-0.092,0 -0.167,-0.221 -0.167,-0.49c0,-0.27 -0.075,-0.537 -0.166,-0.594c-0.092,-0.056 -0.167,-0.361 -0.167,-0.676c0,-0.316 -0.075,-0.574 -0.167,-0.574c-0.091,0 -0.166,-0.225 -0.166,-0.5c0,-0.275 -0.075,-0.5 -0.167,-0.5c-0.092,0 -0.167,-0.22 -0.167,-0.49c0,-0.269 -0.075,-0.536 -0.166,-0.593c-0.092,-0.057 -0.167,-0.361 -0.167,-0.677c0,-0.315 -0.075,-0.573 -0.167,-0.573c-0.091,0 -0.166,-0.193 -0.166,-0.429c0,-0.943 0.406,-0.911 -10.698,-0.864l-10.219,0.043l-0.052,0.625c-0.028,0.344 -0.122,0.625 -0.208,0.625c-0.086,0 -0.157,0.258 -0.157,0.573c0,0.316 -0.075,0.62 -0.166,0.677c-0.092,0.057 -0.167,0.324 -0.167,0.593c0,0.27 -0.075,0.49 -0.167,0.49c-0.091,0 -0.166,0.3 -0.166,0.667c0,0.367 -0.075,0.667 -0.167,0.667c-0.092,0 -0.167,0.22 -0.167,0.49c0,0.269 -0.075,0.536 -0.166,0.593c-0.092,0.057 -0.167,0.361 -0.167,0.677c0,0.315 -0.075,0.573 -0.167,0.573c-0.091,0 -0.166,0.258 -0.166,0.573c0,0.316 -0.075,0.62 -0.167,0.677c-0.092,0.057 -0.167,0.324 -0.167,0.593c0,0.27 -0.075,0.49 -0.166,0.49c-0.092,0 -0.167,0.3 -0.167,0.667c0,0.367 -0.075,0.667 -0.167,0.667c-0.091,0 -0.166,0.22 -0.166,0.49c0,0.269 -0.075,0.536 -0.167,0.593c-0.092,0.057 -0.167,0.361 -0.167,0.677c0,0.315 -0.075,0.573 -0.166,0.573c-0.092,0 -0.167,0.3 -0.167,0.667c0,0.366 -0.075,0.666 -0.167,0.666c-0.091,0 -0.166,0.221 -0.166,0.49c0,0.27 -0.075,0.537 -0.167,0.594c-0.092,0.056 -0.167,0.361 -0.167,0.676c0,0.316 -0.075,0.574 -0.166,0.574c-0.092,0 -0.167,0.22 -0.167,0.49c0,0.269 -0.075,0.536 -0.167,0.593c-0.091,0.057 -0.166,0.361 -0.166,0.677c0,0.315 -0.075,0.573 -0.167,0.573c-0.092,0 -0.167,0.3 -0.167,0.667c0,0.366 -0.075,0.666 -0.166,0.666c-0.092,0 -0.167,0.221 -0.167,0.49c0,0.27 -0.075,0.537 -0.167,0.594c-0.091,0.056 -0.166,0.361 -0.166,0.676c0,0.316 -0.075,0.574 -0.167,0.574c-0.092,0 -0.167,0.258 -0.167,0.573c0,0.316 -0.075,0.62 -0.166,0.677c-0.092,0.056 -0.167,0.323 -0.167,0.593c0,0.269 -0.075,0.49 -0.167,0.49c-0.091,0 -0.166,0.3 -0.166,0.667c0,0.366 -0.075,0.666 -0.167,0.666c-0.092,0 -0.167,0.221 -0.167,0.49c0,0.27 -0.075,0.537 -0.166,0.594c-0.092,0.056 -0.167,0.361 -0.167,0.676c0,0.316 -0.075,0.574 -0.167,0.574c-0.091,0 -0.166,0.258 -0.166,0.573c0,0.316 -0.075,0.62 -0.167,0.677c-0.092,0.056 -0.167,0.323 -0.167,0.593c0,0.269 -0.075,0.49 -0.166,0.49c-0.092,0 -0.167,0.3 -0.167,0.667c0,0.366 -0.075,0.666 -0.167,0.666c-0.091,0 -0.166,0.221 -0.166,0.49c0,0.27 -0.075,0.537 -0.167,0.594c-0.092,0.056 -0.167,0.329 -0.167,0.605c0,0.446 -0.311,0.978 -0.571,0.978c-0.052,0 -0.095,-0.225 -0.095,-0.5c0,-0.275 -0.075,-0.5 -0.167,-0.5c-0.092,0 -0.167,-0.225 -0.167,-0.5c0,-0.275 -0.075,-0.5 -0.166,-0.5c-0.092,0 -0.167,-0.225 -0.167,-0.5c0,-0.275 -0.075,-0.5 -0.167,-0.5c-0.091,0 -0.166,-0.225 -0.166,-0.5c0,-0.275 -0.075,-0.5 -0.167,-0.5c-0.092,0 -0.167,-0.225 -0.167,-0.5c0,-0.275 -0.075,-0.5 -0.166,-0.5c-0.092,0 -0.167,-0.225 -0.167,-0.5c0,-0.275 -0.075,-0.5 -0.167,-0.5c-0.091,0 -0.166,-0.225 -0.166,-0.5c0,-0.275 -0.075,-0.5 -0.167,-0.5c-0.092,0 -0.167,-0.225 -0.167,-0.5c0,-0.275 -0.075,-0.5 -0.166,-0.5c-0.092,0 -0.167,-0.221 -0.167,-0.49c0,-0.27 -0.075,-0.537 -0.167,-0.593c-0.091,-0.057 -0.166,-0.282 -0.166,-0.5c0,-0.219 -0.075,-0.444 -0.167,-0.5c-0.092,-0.057 -0.167,-0.282 -0.167,-0.5c0,-0.219 -0.075,-0.444 -0.166,-0.5c-0.092,-0.057 -0.167,-0.282 -0.167,-0.5c0,-0.219 -0.075,-0.444 -0.167,-0.5c-0.091,-0.057 -0.166,-0.282 -0.166,-0.5c0,-0.219 -0.075,-0.444 -0.167,-0.5c-0.092,-0.057 -0.167,-0.319 -0.167,-0.584c0,-0.264 -0.075,-0.526 -0.166,-0.583c-0.092,-0.057 -0.167,-0.282 -0.167,-0.5c0,-0.218 -0.075,-0.443 -0.167,-0.5c-0.091,-0.057 -0.166,-0.282 -0.166,-0.5c0,-0.218 -0.075,-0.443 -0.167,-0.5c-0.092,-0.057 -0.167,-0.282 -0.167,-0.5c0,-0.218 -0.075,-0.443 -0.166,-0.5c-0.092,-0.057 -0.167,-0.282 -0.167,-0.5c0,-0.218 -0.075,-0.443 -0.167,-0.5c-0.091,-0.057 -0.166,-0.282 -0.166,-0.5c0,-0.218 -0.075,-0.443 -0.167,-0.5c-0.092,-0.057 -0.167,-0.282 -0.167,-0.5c0,-0.218 -0.075,-0.443 -0.166,-0.5c-0.092,-0.057 -0.167,-0.282 -0.167,-0.5c0,-0.218 -0.075,-0.443 -0.167,-0.5c-0.091,-0.057 -0.166,-0.282 -0.166,-0.5c0,-0.218 -0.075,-0.443 -0.167,-0.5c-0.092,-0.057 -0.167,-0.324 -0.167,-0.593c0,-0.27 -0.075,-0.49 -0.166,-0.49c-0.092,0 -0.167,-0.225 -0.167,-0.5c0,-0.275 -0.075,-0.5 -0.167,-0.5c-0.091,0 -0.166,-0.225 -0.166,-0.5c0,-0.275 -0.075,-0.5 -0.167,-0.5c-0.092,0 -0.167,-0.225 -0.167,-0.5c0,-0.275 -0.075,-0.5 -0.166,-0.5c-0.092,0 -0.167,-0.225 -0.167,-0.5c0,-0.275 -0.075,-0.5 -0.167,-0.5c-0.091,0 -0.166,-0.225 -0.166,-0.5c0,-0.275 -0.075,-0.5 -0.167,-0.5c-0.092,0 -0.167,-0.225 -0.167,-0.5c0,-0.275 -0.075,-0.5 -0.166,-0.5c-0.092,0 -0.167,-0.225 -0.167,-0.5c0,-0.275 -0.075,-0.5 -0.167,-0.5c-0.091,0 -0.166,-0.225 -0.166,-0.5c0,-0.275 -0.075,-0.5 -0.167,-0.5c-0.092,0 -0.167,-0.225 -0.167,-0.5c0,-0.275 -0.075,-0.5 -0.166,-0.5c-0.092,0 -0.167,-0.225 -0.167,-0.5c0,-0.275 -0.075,-0.5 -0.167,-0.5c-0.091,0 -0.166,-0.225 -0.166,-0.5c0,-0.275 -0.075,-0.5 -0.167,-0.5c-0.092,0 -0.167,-0.225 -0.167,-0.5l0,-0.5l-10.166,0c-10.056,0 -10.167,0.003 -10.167,0.333m307,14.833c0,0.092 0.375,0.167 0.833,0.167c0.459,0 0.834,0.075 0.834,0.167c0,0.091 0.225,0.166 0.5,0.166c0.275,0 0.5,0.075 0.5,0.167c0,0.092 0.145,0.167 0.323,0.167c0.178,0 0.37,0.075 0.427,0.166c0.056,0.092 0.251,0.167 0.433,0.167c0.182,0 0.492,0.15 0.688,0.333c0.197,0.184 0.457,0.334 0.577,0.334c0.12,0 0.218,0.075 0.218,0.166c0,0.092 0.117,0.167 0.26,0.167c0.322,0 3.407,3.106 3.407,3.43c0,0.13 0.075,0.237 0.167,0.237c0.091,0 0.166,0.098 0.166,0.218c0,0.12 0.15,0.38 0.334,0.577c0.183,0.196 0.333,0.506 0.333,0.688c0,0.182 0.075,0.377 0.167,0.433c0.091,0.057 0.166,0.249 0.166,0.427c0,0.178 0.075,0.323 0.167,0.323c0.092,0 0.167,0.225 0.167,0.5c0,0.275 0.075,0.5 0.166,0.5c0.092,0 0.167,0.333 0.167,0.74c0,0.408 0.075,0.787 0.167,0.844c0.101,0.062 0.166,1.279 0.166,3.093c0,1.882 -0.061,2.99 -0.166,2.99c-0.092,0 -0.167,0.3 -0.167,0.667c0,0.366 -0.075,0.666 -0.167,0.666c-0.091,0 -0.166,0.221 -0.166,0.49c0,0.27 -0.075,0.537 -0.167,0.594c-0.092,0.056 -0.167,0.286 -0.167,0.51c0,0.223 -0.075,0.406 -0.166,0.406c-0.092,0 -0.167,0.15 -0.167,0.334c0,0.183 -0.075,0.333 -0.167,0.333c-0.091,0 -0.166,0.15 -0.166,0.333c0,0.184 -0.075,0.334 -0.167,0.334c-0.092,0 -0.167,0.133 -0.167,0.296c0,0.163 -0.15,0.405 -0.333,0.537c-0.183,0.132 -0.333,0.327 -0.333,0.434c0,0.276 -2.096,2.399 -2.367,2.399c-0.125,0 -0.335,0.15 -0.467,0.334c-0.132,0.183 -0.357,0.333 -0.5,0.333c-0.143,0 -0.368,0.15 -0.5,0.333c-0.132,0.184 -0.337,0.334 -0.455,0.334c-0.119,0 -0.365,0.075 -0.547,0.166c-0.182,0.092 -0.48,0.242 -0.662,0.334c-0.182,0.091 -0.478,0.166 -0.657,0.166c-0.179,0 -0.372,0.075 -0.429,0.167c-0.056,0.092 -0.319,0.167 -0.583,0.167c-0.264,0 -0.527,0.075 -0.583,0.166c-0.057,0.092 -0.544,0.167 -1.084,0.167c-0.539,0 -1.026,0.075 -1.083,0.167c-0.057,0.091 -0.774,0.166 -1.593,0.166c-0.883,0 -1.49,-0.068 -1.49,-0.166c0,-0.093 -0.441,-0.167 -0.99,-0.167c-0.545,0 -1.037,-0.075 -1.094,-0.167c-0.056,-0.091 -0.361,-0.166 -0.676,-0.166c-0.316,0 -0.574,-0.075 -0.574,-0.167c0,-0.092 -0.225,-0.167 -0.5,-0.167c-0.275,0 -0.5,-0.075 -0.5,-0.166c0,-0.092 -0.15,-0.167 -0.333,-0.167c-0.183,0 -0.333,-0.075 -0.333,-0.167c0,-0.091 -0.15,-0.166 -0.334,-0.166c-0.183,0 -0.333,-0.075 -0.333,-0.167c0,-0.092 -0.15,-0.167 -0.333,-0.167c-0.184,0 -0.334,-0.075 -0.334,-0.166c0,-0.092 -0.115,-0.167 -0.255,-0.167c-0.141,0 -0.512,-0.256 -0.824,-0.568c-0.313,-0.313 -0.798,-0.704 -1.078,-0.87c-0.28,-0.165 -0.509,-0.388 -0.509,-0.495c0,-0.106 -0.3,-0.503 -0.667,-0.88c-0.367,-0.378 -0.667,-0.8 -0.667,-0.937c0,-0.138 -0.075,-0.25 -0.166,-0.25c-0.092,0 -0.169,-0.094 -0.171,-0.208c-0.002,-0.115 -0.15,-0.396 -0.329,-0.625c-0.18,-0.229 -0.328,-0.586 -0.33,-0.792c-0.002,-0.206 -0.079,-0.375 -0.17,-0.375c-0.092,0 -0.167,-0.183 -0.167,-0.407c0,-0.224 -0.075,-0.453 -0.167,-0.51c-0.091,-0.056 -0.166,-0.323 -0.166,-0.593c0,-0.269 -0.075,-0.49 -0.167,-0.49c-0.092,0 -0.167,-0.375 -0.167,-0.833c0,-0.459 -0.075,-0.834 -0.166,-0.834c-0.103,0 -0.167,-0.885 -0.167,-2.323c0,-1.369 0.068,-2.366 0.167,-2.427c0.091,-0.056 0.166,-0.469 0.166,-0.916c0,-0.448 0.075,-0.86 0.167,-0.917c0.092,-0.057 0.167,-0.324 0.167,-0.593c0,-0.27 0.075,-0.49 0.166,-0.49c0.092,0 0.167,-0.225 0.167,-0.5c0,-0.275 0.075,-0.5 0.167,-0.5c0.091,0 0.166,-0.15 0.166,-0.334c0,-0.183 0.075,-0.333 0.167,-0.333c0.092,0 0.167,-0.15 0.167,-0.333c0,-0.184 0.075,-0.334 0.166,-0.334c0.092,0 0.167,-0.133 0.167,-0.296c0,-0.163 0.15,-0.405 0.333,-0.537c0.184,-0.132 0.334,-0.329 0.334,-0.436c0,-0.276 2.429,-2.731 2.701,-2.731c0.124,0 0.333,-0.15 0.465,-0.333c0.132,-0.183 0.374,-0.333 0.537,-0.333c0.163,0 0.297,-0.075 0.297,-0.167c0,-0.092 0.15,-0.167 0.333,-0.167c0.183,0 0.333,-0.075 0.333,-0.166c0,-0.092 0.15,-0.167 0.334,-0.167c0.183,0 0.333,-0.075 0.333,-0.167c0,-0.091 0.183,-0.166 0.407,-0.166c0.224,0 0.453,-0.075 0.51,-0.167c0.056,-0.092 0.281,-0.167 0.5,-0.167c0.218,0 0.443,-0.075 0.5,-0.166c0.056,-0.092 0.398,-0.167 0.76,-0.167c0.361,0 0.656,-0.075 0.656,-0.167c0,-0.104 1.056,-0.166 2.834,-0.166c1.777,0 2.833,0.062 2.833,0.166" id="path1"/>
   <path style="vector-effect: non-scaling-stroke;" stroke="null" fill-rule="evenodd" fill="#7cc45c" d="m106.859,15.581c0.11,0.11 19.831,0.118 19.941,0.008c0.049,-0.049 -4.436,-0.089 -9.967,-0.089c-5.53,0 -10.019,0.036 -9.974,0.081m5.016,58.211c2.635,0.025 6.948,0.025 9.583,0c2.636,-0.026 0.48,-0.047 -4.791,-0.047c-5.271,0 -7.427,0.021 -4.792,0.047" id="path2"/>
   <path style="vector-effect: non-scaling-stroke;" stroke="null" fill-rule="evenodd" fill="#28a470" d="m111.887,15.292c2.734,0.025 7.159,0.025 9.833,0c2.675,-0.026 0.438,-0.047 -4.97,-0.047c-5.408,0 -7.597,0.021 -4.863,0.047" id="path3"/>
   <path style="vector-effect: non-scaling-stroke;" stroke="null" fill-rule="evenodd" fill="#2c6c70" d="m111.792,15.458c2.773,0.026 7.31,0.026 10.083,0c2.773,-0.025 0.504,-0.046 -5.042,-0.046c-5.546,0 -7.814,0.021 -5.041,0.046" id="path4"/>
   <path style="vector-effect: non-scaling-stroke;" stroke="null" fill-rule="evenodd" fill="#046c98" id="path5"/>
   <path style="vector-effect: non-scaling-stroke;" stroke="null" fill-rule="evenodd" fill="#046c98" id="path6"/>
   <path style="vector-effect: non-scaling-stroke;" stroke="null" fill-rule="evenodd" fill="#046c98" id="path7"/>
   <path style="vector-effect: non-scaling-stroke;" stroke="null" fill-rule="evenodd" fill="#046c98" id="path8"/>
  </g>
 </g>
</svg>